<?xml version="1.0" encoding="utf-8"?>
<!-- Generator: Adobe Illustrator 25.2.1, SVG Export Plug-In . SVG Version: 6.00 Build 0)  -->
<svg version="1.1" id="Calque_1" xmlns="http://www.w3.org/2000/svg" xmlns:xlink="http://www.w3.org/1999/xlink" x="0px" y="0px"
	 viewBox="0 0 800 600" style="enable-background:new 0 0 800 600;" xml:space="preserve">
<style type="text/css">
	.st0{fill:#C23757;}
	.st1{fill:#1F364B;}
	.st2{fill:none;stroke:#2D5071;stroke-linecap:round;stroke-linejoin:round;stroke-miterlimit:10;}
	.st3{fill:#E0AF9A;}
	.st4{fill:#A78374;}
	.st5{fill:none;stroke:#000000;stroke-linecap:round;stroke-linejoin:round;stroke-miterlimit:10;}
	.st6{fill:#FFFFFF;}
	.st7{fill:#E3F3FF;}
	.st8{fill:none;stroke:#E3F3FF;stroke-miterlimit:10;}
	.st9{fill:#DB9688;}
	.st10{fill:#DEF1F8;}
	.st11{fill:#9ADBFC;}
	.st12{fill:#9D2640;}
	.st13{fill:none;stroke:#B91E3D;stroke-width:2;stroke-miterlimit:10;}
	.st14{fill:none;stroke:#B91E3D;stroke-width:1;stroke-miterlimit:9.9998;}
	.st15{fill:none;stroke:#B91E3D;stroke-miterlimit:10;}
	.st16{fill:none;stroke:#B91E3D;stroke-miterlimit:9.9999;}
	.st17{fill:none;}
</style>
<g>
	<path class="st0" d="M192.1,143c3-23,22.7-42.8,45.7-46s47.3,10.6,56.5,31.9c8.8,20.5,3.8,44.8-7.8,63.9
		c-11.5,19.1-28.9,33.8-46.2,47.8s-35.2,27.9-48.4,45.8c-13.2-17.9-30-31.8-47.3-45.8s-34.7-28.8-46.2-47.8s-16.5-43.4-7.8-63.9
		C99.7,107.5,124,93.8,147,97s42.7,23,45.7,46H192.1L192.1,143z"/>
	<path class="st0" d="M610,143.9c3-23,22.7-42.8,45.7-46s47.3,10.6,56.5,31.9c8.8,20.5,3.8,44.8-7.8,63.9
		c-11.5,19.1-28.9,33.8-46.2,47.8s-35.2,27.9-48.4,45.8c-13.2-17.9-30-31.8-47.3-45.8s-34.7-28.8-46.2-47.8
		c-11.5-19.1-16.5-43.4-7.8-63.9c9.1-21.3,33.5-35.1,56.5-31.9s42.7,23,45.7,46H610L610,143.9z"/>
</g>
<g>
	<g>
		<path class="st1" d="M578.2,119.8c-0.1,0.2-0.3,0.5-0.4,0.8c-1.6,3.1-3.2,6.2-3.8,9.7c-0.4,2.2-0.4,4.5,0.2,6.6
			c0.3,1.1,0.8,2,1.3,3s0.8,2,1.3,3c-6.9,3.9-10,12.9-8.2,20.7s7.6,14.2,14.6,18c7,3.9,15,5.4,22.9,6.2c20.5,1.9,42.5-1.9,58.2-15.2
			c4-3.4,7.6-7.5,9.8-12.3c2.1-4.9,2.6-10.6,0.5-15.4c-2.1-4.9-7-8.6-12.3-8.6c4-2.3,5-7.8,3.5-12.2c-1.5-4.3-5-7.7-8.4-10.7
			s-7-6.1-9.1-10.1c-1.8-3.5-2.3-7.6-4.2-11.1c-3-5.5-9-8.7-14.9-10.8c-8.7-3.1-18.3-4.4-27.1-1.8c-4.4,1.3-8.5,3.7-11.9,6.7
			c-3.1,2.7-4.6,6.8-5.4,10.7c-0.9,4.7-1,9.6-2.4,14.2C581.2,114.1,579.7,117,578.2,119.8z"/>
		<g>
			<path class="st2" d="M643.4,103.1c-0.3,3.1,1.4,6,3.5,8.2s4.8,3.9,7.1,5.9s4.4,4.6,4.8,7.7c0.4,2.4-0.4,5-1.8,7s-3.5,3.5-5.7,4.6
				c3.5,0.9,6.8,2.4,9.4,4.9s4.3,5.9,4.2,9.5s-2.2,7.1-5.5,8.4"/>
			<path class="st2" d="M635.9,113.6c0.7,2.7,2.4,5,4.1,7.2s3.5,4.5,4.3,7.1c0.8,2.6,0.5,5.9-1.6,7.8c-1.7,1.5-4.1,1.9-6.3,1.7
				c2.5,1.8,4.9,3.6,6.9,5.9s3.2,5.3,3,8.3c-0.3,3.6-3.1,6.9-6.6,7.8"/>
			<path class="st2" d="M586.7,114c-1.2,2.9-3,5.5-4.5,8.2c-1.5,2.8-2.7,5.8-2.4,8.9c0.4,4.6,3.8,8.3,7,11.6
				c-3.6,2.1-6.4,5.7-7.2,9.8s0.1,8.6,2.8,11.8s7,5,11.2,4.5"/>
			<path class="st2" d="M599.4,130.1c-2.2,2.2-3.8,5-4.7,8c-0.4,1.4-0.7,2.9-0.4,4.4s1.2,2.9,2.6,3.4c-1.8,1.4-3.1,3.6-3.5,5.9
				c-0.4,2.3,0,4.7,1.2,6.7c1.6,2.6,4.4,4.4,7.3,5.2s6.1,0.9,9.1,0.8"/>
		</g>
	</g>
	<g>
		<g>
			<g>
				<path class="st3" d="M546.4,208.5c-2.6,4.3-5.4,8.5-8.9,12c-5.2,5.1-11.8,8.5-18.3,11.8c-18.4,9.4-37.6,18.1-55.2,28.8
					c0.7,1.3,7.6,18.2,7.4,18.3c11.2-2.3,22.2-4.4,33.1-8c11.3-3.8,22.2-8.4,33.2-13c6.1-2.6,12.3-5.2,17.8-8.9
					c9.5-6.4,16.5-15.6,23.4-24.7c4-5.2,7.9-10.5,11.3-16.1c3.2-5.3,6.8-11.6,7.5-17.8c1-8.8-1.6-19.8-10.7-23.3
					c-2-0.8-5.5-1.8-7.6-1c-1.7,0.6-3.5,2.6-4.9,3.7c-3.8,3.1-7.2,6.6-10.3,10.4c-6.3,7.9-11.3,16.8-16.4,25.5
					C547.3,206.9,546.9,207.7,546.4,208.5z"/>
			</g>
			<path class="st4" d="M567.4,185.6c-7.7,17.3-8.5,37.6-2.3,55.5c7.8-7.5,14.5-16,20-25.3"/>
		</g>
		<g>
			<path class="st3" d="M462.6,255.3c-0.8,0.2-1.6,0.4-2.5,0.4c-1.7,0.2-3.4,0-4.9-0.5c-0.7-0.2-1.4-0.5-2.2-0.7
				c-0.8-0.2-1.5-0.5-2.2-0.8c-0.6-0.3-1.2-0.6-1.8-0.5c-0.5,0.1-1,0.5-1.3,1c-0.8,1.3-0.6,3,0.2,4.3c0.8,1.3,2.2,2.1,3.6,2.6
				s3,0.6,4.5,0.8c1,0.1,2.1,0.3,3.1,0.5c0.9,0.2,1.5,0.5,2.4,0.9c1.7,0.8,3.6,1.1,5.4,1c2.3-0.1,4.6-1,6.5-2.5
				c0.2-0.2,0.5-0.4,0.6-0.8c0-0.2,0-0.4-0.1-0.6c-0.6-1.7-1.7-3.1-3.1-4.1s-3.2-1.6-5-1.6C464.8,254.8,463.7,255,462.6,255.3z"/>
			<path class="st3" d="M462.9,287c-3.8,1.6-8.4,1.4-11.6-1.1c-1.2-0.9-2.2-2.2-2.3-3.8c0-0.8,0.2-1.7,0.1-2.5
				c-0.1-1.5-1.1-2.8-1.9-4.1c-1-1.7-1.3-3.5-2-5.3c-0.6-1.6-0.8-3.6-0.1-5.3c0.6-1.6,2.2-2.9,3.8-2.6c1.6,0.3,2.6,1.9,4,2.6
				c1.1,0.5,2.3,0.5,3.5,0.2c1.1-0.3,2.2-0.8,3.2-1.4c2.2-1.1,4.4-2.3,6.6-3.4c1.6,4.2,3.4,8.3,5.3,12.3c0.6,1.2,1.2,2.5,1.4,3.9
				c0.1,1.6-0.5,2.6-1.6,3.6s-2,2.3-3.1,3.4C466.7,284.9,464.9,286.1,462.9,287z"/>
			<circle class="st0" cx="456.6" cy="271" r="12.8"/>
			<g>
				<path class="st3" d="M442.5,275.5c1.8,4.1,5,7.6,8.6,10.1c1.2,0.9,2.9,1.9,4.5,1.8c1.7-0.2,2.1-1.9,2.2-3.3
					c-3.4-2.4,1.7-6,4.1-6.7c2.5-0.7,1.8-4.7-0.8-4.6c3.3-1.3,1.6-6.4-1.8-5.4c4.5-3-1.2-7.3-4.5-4.6c0.6-0.5,0.3-1.4,0-1.9
					c-0.4-0.6-1-1.1-1.8-1.2s-1.6,0.1-2.3,0.4c-2.2,0.9-4.2,2.1-6,3.6c-1.3,1.1-2.5,2.4-3.1,3.9s-0.6,3.2-0.2,4.8
					C441.7,273.4,442,274.5,442.5,275.5z"/>
				<path class="st5" d="M460.6,272.4c-2.8,0.7-5.3,2.2-7.1,4.4c-1.8,2.2-2.9,4.9-3.1,7.8"/>
				<path class="st5" d="M454.2,263.4c-2.7,1.1-5.3,2.5-7.3,4.5c-2.1,2-3.7,4.6-4.2,7.4"/>
				<path class="st5" d="M458.9,267.2c-3,0.7-5.9,2.2-8.2,4.4c-2.3,2.1-4,4.9-4.9,7.9"/>
			</g>
		</g>
	</g>
	<g>
		<path class="st3" d="M701.3,343.1c17.5,72.4,28.4,146.4,32.5,220.8c-31.7-1-63.4-2.1-95.2-3.2c9.4-70.2,18.9-140.5,28.3-210.8"/>
		<polygon class="st4" points="723.5,458.4 678.1,499.9 641.1,448.4 		"/>
	</g>
	<g>
		<path class="st1" d="M563.1,341.7c-7.3,34.5-5.8,58.5-10.1,95.7c2.6,12.1-6.3,24.9-11.1,36.3c62.3-0.6,124.5-5.7,186-15.2
			c-3.8-49.8-15.2-99.1-33.8-145.5L563.1,341.7z"/>
		<path class="st2" d="M699.8,459.5c-3.9-30.2-14-70.6-21.4-100.1c10.5,29.2,25.5,69.2,30.5,99.9"/>
		<path class="st2" d="M656.3,463.6c0.9-30.6-5.8-70.2-10.9-100.4c0.5,33.5,2.7,75.9-2.4,109"/>
		<path class="st2" d="M616.2,463.1c-4.9-33.2-11.3-66.2-19.1-98.9c0.2,32.5-0.6,65-2.2,97.4"/>
	</g>
	<g>
		<g>
			<path class="st6" d="M562.1,344.3c0.6-31.2,17-60.7,17.8-91.8c-11.1-25.8-21.8-56.3-7.1-83.2c15.7-10.5,34.8-17.1,53.5-19.2
				c11.8-1.3,24.2-0.3,35.9,2.1c1.8,0.4,3.6,0.8,5.1,1.7s2.8,2.3,3.9,3.7c12.3,15.2,14.4,34.5,10.7,53.2c-3.2,16-8.9,31.5-11,47.7
				c0.6,4.5,3.7,8.2,6.5,11.9c16,20.7,28.3,48.5,29.7,74.6"/>
			<path class="st7" d="M636.8,237.7c-13.6,13.4-32.8,19-50.5,26.3c-2.2,0.9-4.7,2.1-5.6,4.3c-1.1,2.5,0.2,5.4,1.6,7.7
				c7.5,11.7,21,18.1,34.4,21.5c24.4,6.3,50.8,4.9,74.4-4.1c-2.5-13.9-17.5-23-19.5-37c-1-7.1,1.7-14.2,2.8-21.3
				c2.1-13.5-1.9-27.6-10.3-38.3c-1.5-1.9-4.3-6.3-7-6.4c-3.6-0.1-3.3,3.9-3.3,6.4c0,7.1-1.4,14.2-4,20.9
				C646.9,225.3,642.5,232.1,636.8,237.7z"/>
			<path class="st8" d="M581.1,166.9c-5.9,17.7-6.1,37.2-0.4,55c3,9.5,7.8,18.6,8.5,28.6c0.7,9.3-2.1,18.6-4.1,27.7
				c-4.6,21.2-4.9,43.3-0.8,64.6"/>
			<path class="st8" d="M595.9,160.1c-8.6,16.2-6.4,36.1-1.5,53.8s12.4,35,13.8,53.3c1,13.1-1.2,26.2-2,39.2
				c-0.9,13.1-0.3,26.8,5.7,38.4"/>
			<path class="st8" d="M653.7,152.1c-11.5,21.1-15.3,46.2-10.7,69.8c2.5,12.6,7.3,24.9,6.8,37.8c-0.2,4.5-1,9.2,0.5,13.5
				c1.7,4.6,5.7,7.8,9.4,11c17.7,15.5,29.7,37.5,33.2,60.8"/>
			<path class="st8" d="M636.1,152.6c-9.8,16.9-14.4,36.8-12.8,56.3c1.4,17.7,7.7,34.7,10.8,52.2c2.5,14,3,28.4,5,42.4
				c2.1,14.1,5.9,28.3,14.4,39.8"/>
		</g>
	</g>
	<g>
		<g>
			<path class="st3" d="M628.4,117.4c-0.1,0.8-0.2,1.6-0.2,2.4c-0.5,5.3-0.2,10.7,0.7,16c0.5,2.6,1.1,5.2,1.8,7.8
				c0.4,1.2,0.7,2.3,1.3,3.4c0.6,1,0.5,2.1-0.1,3c-0.5,0.9-1.4,1.6-2.2,2.3c-3.6,3-7.3,5.9-11.2,8.4c-2.9,1.8-6.3,3.4-9.6,2.5
				c-1.6-0.4-2.9-1.4-4.1-2.5c-1.7-1.5-2.6-3.1-2.5-5.4c0.1-1.9,1.2-3.7,1.7-5.5c1.3-4.6,1.5-9.5,1.7-14.3c0.2-4.6,0.4-9.2,0.6-13.8
				"/>
			<path class="st4" d="M605,132.2c0.1,3.4,0.2,6.9-0.1,10.3c-0.3,3.4-1.1,6.9-2.6,9.9c2.7,0.7,5.1-0.5,7.4-1.7c2-1.1,4-2.4,5.8-3.8
				c4.6-3.7,8.7-8.3,10.6-13.9c0.9-2.6,1.3-5.3,1.2-8"/>
		</g>
		<g>
			<g>
				<g>
					<path class="st6" d="M604.2,149.5c0,5.1,1.9,9.3,5.2,13c-1.7,3.5-5.1,7-5.3,11.3c-8.3-7.5-9.7-20.8,0.2-27.7
						C604.3,147.1,604.3,148.6,604.2,149.5z"/>
					<path class="st6" d="M622.2,154.7c-14,13.6-16.3,2.2-7.5,17.6c11-3.4,32.7-21.5,15.6-30.4C629.5,146.2,625.7,151.8,622.2,154.7
						z"/>
				</g>
			</g>
			<path class="st5" d="M597.1,157.4c-0.3,6.2,2.3,12.4,7,16.4c0.8-4.1,2.8-8,5.7-11.1c3.4,2.5,5.7,7,5.4,11.2
				c10.6-3.7,19.1-13.1,21.8-24"/>
		</g>
	</g>
	<g>
		<g>
			<path class="st3" d="M634.6,112.3c2.2,29-50.8,40.9-49.8,10.6c0.1-11.5-0.9-25.9,7.3-34.9C609.6,77.2,635.2,91.6,634.6,112.3z"/>
		</g>
		<path class="st0" d="M599,125.8c0.4-0.2,0.9-0.3,1.3-0.1c0.4,0.1,0.8,0.4,1.2,0.7c-0.1-1,0.7-2,1.7-2.2s2.1,0.4,3,1
			s1.8,1.3,2.9,1.3c-0.5,1.3-0.9,2.6-1.5,3.9c-0.5,1-1.1,2-2,2.5c-1.2,0.8-2.9,0.6-4.1-0.2c-1.2-0.8-2-2.1-2.2-3.6
			c0,0.1-1.4-0.1-1.5-0.2c-0.4-0.3,0-0.7,0.2-1C598.2,127.2,598.3,126.2,599,125.8z"/>
		<g>
			<path class="st1" d="M645,96.9c2.5,26.1-23.7,25.3-17.8,6.3c-10.6-1.8-25.7-6.3-29.7-16.8c-7,6-8.7,11-12.4,19.4
				c-6.4-21.4,22.3-41.2,40.7-29.3C635.9,76.8,643.7,87.3,645,96.9z"/>
			<g>
				<path class="st2" d="M597,86.2c1.2-3.3,4.5-5.4,7.9-6.3s7-0.7,10.5-0.8c3.5-0.1,7.2-0.6,10.1-2.5"/>
				<path class="st2" d="M607.9,89.6c3,3,6.9,5.1,11,6.2s8.4,1.4,12.7,1.2c4-0.2,8.3-1,11.4-3.6"/>
				<path class="st2" d="M618.2,83.8c6.2,2.8,13.7,2.8,19.8-0.2"/>
			</g>
		</g>
		<g>
			<path class="st3" d="M643.9,118.2c0.2,9.9-16.7,14.5-16.5,2.3C626.5,101.5,643.7,104.1,643.9,118.2z"/>
			<g>
				<path class="st5" d="M638,115.4c-0.8,1.4-2.3,2.5-3.9,2.7"/>
				<path class="st5" d="M634.2,113.9c-0.8,2.5-0.7,4.5,0.4,6.9"/>
			</g>
		</g>
		<g>
			<path class="st5" d="M600.5,107.9c0,2.8-1.3,5.5-3.4,7.3c-0.4,0.3-0.8,0.6-1.1,1s-0.6,0.9-0.5,1.4c0.1,0.7,0.7,1.2,1.4,1.5
				c1.2,0.4,2.7,0.1,3.6-0.8"/>
			<g>
				<path class="st1" d="M591.6,111.7c-3,1.7-3.2-5.4,0.1-3.8C593,108.8,592.7,110.8,591.6,111.7z"/>
				<path class="st5" d="M595.8,104.6c-0.8-1.1-2.1-1.8-3.5-1.9c-1.3-0.1-2.7,0.4-3.7,1.4"/>
			</g>
			<g>
				<path class="st1" d="M609.4,112.3c-3,1.7-3.2-5.4,0.1-3.8C610.7,109.4,610.5,111.5,609.4,112.3z"/>
				<path class="st5" d="M605.7,105.2c0.9-0.6,1.9-1.1,2.9-1.4s2.2-0.4,3.2-0.1s2,1,2.5,2"/>
			</g>
			<g>
				<path class="st9" d="M621.8,124.2c-0.6,1.7-2.4,2.8-4.1,2.5c-1.8-0.3-3.1-2-3.3-3.8c-0.2-1.4,0.4-3,1.5-3.9
					c1.2-0.8,3.4-0.8,4.6,0.1C621.9,120.2,622.4,122.6,621.8,124.2z"/>
			</g>
			<g>
				<path class="st9" d="M593.2,126.6c-0.6,1.7-2.4,2.8-4.1,2.5c-1.8-0.3-3.1-2-3.3-3.8c-0.2-1.4,0.4-3,1.5-3.9
					c1.2-0.8,3.4-0.8,4.6,0.1C593.3,122.7,593.8,125.1,593.2,126.6z"/>
			</g>
			<path class="st6" d="M599.9,133c4.7-1,7.1-3.7,9.8-7.7c-3.7,2.1-8.5,3.5-12.8,3.1C598.2,129.7,599.6,131.2,599.9,133z"/>
		</g>
	</g>
	<g>
		<g>
			<path class="st3" d="M694.1,193c0.5,1.4,1.1,2.9,1.6,4.4c5.5,16,8.1,32.9,9.3,49.8c0.3,4.6,1,12.2-2.9,15.7
				c-3.8,3.4-10,4.8-14.9,5.7c-29.2,5.6-58.9,6.5-88.4,3.4c-0.5,0-0.9-0.1-1.4-0.1c-2.1-0.3-2.1-0.1-2.4-1.9
				c-0.4-1.8-0.4-3.7-0.5-5.5c-0.4-3.6-0.7-7.3-1.1-10.9c24.3-6.8,48.5-13.7,72.8-20.5c-5-13-9.6-26.6-12.9-40.2
				c-3-12.2-1.3-24,4.6-35.1c1-1.8,2.2-3.8,4.2-4.4c3.2-1,8.2,1.2,10.4,3.6c3.6,3.8,6.8,8.1,9.6,12.5C687,176.8,691,184.8,694.1,193
				z"/>
			<path class="st5" d="M665.9,233.2c9.2,2.9,17.4,9.1,22.7,17.3"/>
		</g>
		<g>
			<path class="st3" d="M602.2,253.4c-3.3-8.7-14.3-7.2-21.9-6.8c-1.8,0-3.5-0.3-5.3-0.4c-1.1-0.1-3-0.1-2.8,1.5
				c0.2,1.5,1.5,2.9,2.8,3.6c1,0.5,2,0.7,3,1c-4,1.3-8.2,1.1-12.4,1.3c-0.9,0-1.9,0.1-2.8,0.4c-0.9,0.4-1.7,1-1.9,1.9
				c-0.5,1.7,1.1,3.5,2.8,3.5c-7-0.2-7.2,6.5-0.3,7c-2.2-0.4-3.1,2.5-1.7,4c2.4,2.6,6.5,1.8,9.7,2.3c-1-0.1-2.3,1.1-2.5,2
				c-0.6,2.7,2.6,3.8,4.8,3.6c12.8,0.3,23.7-4.3,36.4-6.8L602.2,253.4z"/>
			<g>
				<path class="st5" d="M577,252c2.9-0.3,5.9-0.6,8.8-0.9"/>
				<path class="st5" d="M563.5,259.3c5.7,0.6,11.4,0.5,17-0.4"/>
				<path class="st5" d="M571.1,272.6c4.8,0,9.7-0.6,14.4-1.9"/>
				<path class="st5" d="M563.1,266.3c5.6,0.6,11.3,0.4,16.8-0.7"/>
			</g>
		</g>
	</g>
</g>
<g>
	<g>
		<path class="st3" d="M276.2,197.1c4,6.6,8.5,13,14,18.5c8.3,8.3,18.7,14.1,29,19.7c11.3,6.1,22.8,12.1,35,16.2
			c0.4,0.1-3.9,10.2-4.3,11.1c-0.2,0.5-3,7.9-3.1,7.9c-26-4.2-63.7-16.2-85.2-31.5c-16.6-11.8-21.6-23.9-35.9-40.7
			c-8.5-13.6-8.7-41,12.5-40.7c3.6,0,7.1,4.3,9.7,6.5c3.5,3,6.9,6.2,10.1,9.6c5.7,6,11.7,12.5,15.8,19.6
			C274.7,194.5,275.4,195.8,276.2,197.1z"/>
		<path class="st4" d="M265.9,182.7c0.9,1.1,1.8,2.2,2.6,3.2c3.4,4.2,6.1,8.8,9.3,13.1c0.3,0.4,0.7,0.6,0.5,1.1
			c-0.1,0.4-0.9,0.8-1.2,1c-1,0.8-1.9,1.6-2.8,2.4c-1.8,1.6-3.6,3.3-5.2,5c-3.3,3.5-6.3,7.3-8.9,11.3c-1.3,2-2.5,4.1-3.6,6.2
			c-1.1,2.2-1.6,4.6-2.2,7c-6.1-6.3-13.3-12.3-15.9-20.6"/>
	</g>
	<g>
		<path class="st3" d="M355.7,246.4c0.8,0.2,1.6,0.4,2.5,0.4c1.7,0.2,3.4,0,4.9-0.5c0.7-0.2,1.4-0.5,2.2-0.7
			c0.8-0.2,1.5-0.5,2.2-0.8c0.6-0.3,1.2-0.6,1.8-0.5c0.5,0.1,1,0.5,1.3,1c0.8,1.3,0.6,3-0.2,4.3c-0.8,1.3-2.2,2.1-3.6,2.6
			s-3,0.6-4.5,0.8c-1,0.1-2.1,0.3-3.1,0.5c-0.9,0.2-1.5,0.5-2.4,0.9c-1.7,0.8-3.6,1.1-5.4,1.1c-2.3-0.1-4.6-1-6.5-2.5
			c-0.2-0.2-0.5-0.4-0.6-0.8c0-0.2,0-0.4,0.1-0.6c0.6-1.7,1.7-3.1,3.1-4.1s3.2-1.6,5-1.6C353.5,246,354.6,246.2,355.7,246.4z"/>
		<path class="st3" d="M355.4,278.1c3.8,1.6,8.4,1.4,11.6-1.1c1.2-0.9,2.2-2.2,2.3-3.8c0-0.8-0.2-1.7-0.1-2.5
			c0.1-1.5,1.1-2.8,1.9-4.1c1-1.7,1.3-3.5,2-5.3c0.6-1.6,0.8-3.6,0.1-5.3c-0.6-1.6-2.2-2.9-3.8-2.6c-1.6,0.3-2.6,1.9-4,2.6
			c-1.1,0.5-2.3,0.5-3.5,0.2c-1.1-0.3-2.2-0.8-3.2-1.4c-2.2-1.1-4.4-2.3-6.6-3.4c-1.6,4.2-3.4,8.3-5.3,12.3
			c-0.6,1.2-1.2,2.5-1.4,3.9c-0.1,1.6,0.5,2.6,1.6,3.6s2,2.3,3.1,3.4C351.6,276,353.4,277.3,355.4,278.1z"/>
		<circle class="st0" cx="361.7" cy="262.1" r="12.8"/>
		<g>
			<path class="st3" d="M375.8,266.6c-1.8,4.1-5,7.6-8.6,10.1c-1.2,0.9-2.9,1.9-4.5,1.8c-1.7-0.2-2.1-1.9-2.2-3.3
				c3.4-2.4-1.7-6-4.1-6.7c-2.5-0.7-1.8-4.7,0.8-4.6c-3.3-1.3-1.6-6.4,1.8-5.4c-4.5-3,1.2-7.3,4.5-4.6c-0.6-0.5-0.3-1.4,0-1.9
				c0.4-0.6,1-1.1,1.8-1.2c0.8-0.1,1.6,0.1,2.3,0.4c2.2,0.9,4.2,2.1,6,3.6c1.3,1.1,2.5,2.4,3.1,3.9s0.6,3.2,0.2,4.8
				C376.6,264.6,376.2,265.6,375.8,266.6z"/>
			<path class="st5" d="M357.6,263.6c2.8,0.7,5.3,2.2,7.1,4.4s2.9,4.9,3.1,7.8"/>
			<path class="st5" d="M364,254.5c2.7,1.1,5.3,2.5,7.3,4.6c2.1,2,3.7,4.6,4.2,7.4"/>
			<path class="st5" d="M359.4,258.4c3,0.7,5.9,2.2,8.2,4.4c2.3,2.1,4,4.9,4.9,7.9"/>
		</g>
	</g>
	<g>
		<path class="st6" d="M263.7,179.2c-1.2-3.3-4.3-5.4-7.2-7.1c-0.7-9.6-10.4-18.3-19.7-19.6c-15.7,1.4-17.6,24.1-15.3,36.3
			c1.7,9.1,14.8,35.2,25.8,24.7C253.2,204.8,264.2,189.6,263.7,179.2z"/>
		<path class="st5" d="M256.6,172.4c-0.8,8.7-3.8,17.1-8.7,24.3"/>
	</g>
</g>
<g>
	<path class="st1" d="M227.9,306.7L97.1,325.8c-23.5,102.9-26.3,165-23.8,270.5c62.8,1,146.8,4.8,225.4-1.6
		C250.4,494,244.1,419.1,227.9,306.7z M143.4,585.1c-3-41.5,16.8-187.4,25.6-217.9c2.4,36.9,26.6,171.6,33.4,207.9L143.4,585.1z"/>
	<polyline class="st2" points="169.2,366.7 172,357.4 183.7,357.9 	"/>
	<path class="st2" d="M91.6,358.3c5.5-0.5,10.8-3.3,14.3-7.5s5.3-10,4.8-15.5"/>
</g>
<path class="st7" d="M92,337.5l142.5,0.9c-0.4-2.6-0.8-5.2-1.2-7.8l-140.8,1.7C92.4,334,92.2,335.8,92,337.5z"/>
<path class="st10" d="M241.2,164.9c-0.2-0.9-0.5-1.8-0.8-2.7c-2.2-5.9-6.6-9.6-12.3-12c-6.5-2.7-13.1-5.2-19.9-7.1
	c-13.5-3.9-27.6-6-41.7-4.8c-12.6,1.6-31.9,0.5-34.6,16.5c-17.3,58.1-33.2,117-39.3,177.4l140.8-1.7c-3.7-26.2-3.2-52.8-0.8-79.1
	c1.4-15.1,3.4-30.1,5.6-45c1.1-7.3,3-14.9,3.3-22.2c0.1-2.9,0-5.5,0.3-8.5C242.1,172.1,242.1,168.4,241.2,164.9z"/>
<path class="st7" d="M174.6,149.7c6,3.8,13.2,5.6,20.2,6.3c6.9,1.7,26.3-5.6,14.4-12.4C201.9,138,153.6,131.9,174.6,149.7z"/>
<path class="st11" d="M129.9,269.8c5.6,10.9,13.9,21.7,25.8,24.9c10.7,2.9,22.1-0.9,31.8-6.3c24.9-14,42.9-39.6,47.7-67.7
	c-8.8,2.3-16.8,6.9-25.2,10.3c-8.4,3.4-17.9,5.7-26.5,2.9c-6.8-2.2-12.3-7.1-17.5-12c-9.4-8.7-18.8-17.4-28.2-26.1
	c-2.6-2.4-5.4-4.9-8.8-5.3c-4.5-0.6-8.8,2.7-10.9,6.7c-4.1,7.8-1.9,17.6-1.3,25.9c0.8,10.3,2.9,20.6,6.3,30.3
	C124.9,259.2,127.2,264.6,129.9,269.8z"/>
<path class="st5" d="M233.4,153.1c10.1,8.8,9.4,20.6,8.8,31.2c-0.7,10.6-3.5,21-6.5,31.3"/>
<g>
	<path class="st3" d="M187.2,114c-0.4,2.2-1,4.4-1.6,6.6c-1.4,4.8-3.5,9.5-6,13.8c-1.1,1.9-2.3,4.6-4.1,5.9
		c-0.8,0.6-1.3,0.9-1.2,1.9c0.1,1.1,1,1.9,1.8,2.6c4.4,3.7,10,5.9,15.7,6.6s11.6-0.3,16.9-2.4c0.6-0.3,1.3-0.6,1.4-1.3
		c0.2-0.8-0.4-1.5-0.8-2.1c-0.5-0.7-0.8-1.4-1.1-2.2c-0.5-1.6-0.5-3.3-0.4-5c0.3-6.2,1.4-12.3,2.5-18.4
		C202.6,118.3,194.9,116.3,187.2,114z"/>
	<path class="st4" d="M187,119.9c0.9,11.1,10.1,18.5,20.7,20c0.1-5.2,1.5-10.4,4-14.9"/>
</g>
<g>
	<g>
		<path class="st3" d="M181.2,103.6c-2.3,30.2,53.1,42.7,52,11.1c-0.1-12,0.9-27.1-7.6-36.4C207.4,67,180.6,82,181.2,103.6z"/>
	</g>
	<g>
		<path class="st1" d="M231.6,89.3c-12.8-2.6-27.5-4.4-39.7,0.9c1.9,6.6-1,16.1-7.9,19c-9.4-0.6-14.7-11.3-10.9-22.9
			C181.8,60.3,225.9,56.9,231.6,89.3z"/>
		<g>
			<path class="st2" d="M176.7,80.9c3.8,1.5,7.6,0.7,11.4-0.6c7.5-2.6,14-6.9,18.8-13.2"/>
			<path class="st2" d="M214.7,68.9c-0.7,2.8,0,5.2,1.5,7.7c1.4,2.5,3.7,4.5,6.2,6s4.6,2.2,7.4,2.9"/>
			<path class="st2" d="M173.4,88.9c3.2-0.3,5.7,0.9,8,3.2c2.3,2.2,3.7,5.3,3.9,8.5s-0.7,6.4-2.5,9.1"/>
		</g>
	</g>
	<g>
		<path class="st3" d="M171.6,109.8c-0.2,10.4,17.4,15.1,17.2,2.4C189.7,92.3,171.7,95,171.6,109.8z"/>
		<g>
			<path class="st5" d="M177.7,106.8c0.8,1.5,2.4,2.6,4.1,2.9"/>
			<path class="st5" d="M181.7,105.3c0.8,2.6,0.6,5.6-0.5,8.1"/>
		</g>
	</g>
	<g>
		<path class="st5" d="M216.9,99.1c0,2.9,1.3,5.7,3.5,7.6c0.4,0.3,0.8,0.7,1.2,1.1c0.3,0.4,0.6,0.9,0.5,1.4
			c-0.1,0.7-0.8,1.3-1.4,1.6c-1.3,0.5-2.8,0.1-3.8-0.8"/>
		<g>
			<path class="st1" d="M226.1,103c3.2,1.8,3.3-5.7-0.1-3.9C224.8,99.9,225,102.1,226.1,103z"/>
			<path class="st5" d="M221.8,95.6c0.8-1.1,2.2-1.9,3.6-2c1.4-0.1,2.9,0.5,3.8,1.5"/>
		</g>
		<g>
			<path class="st1" d="M207.6,103.6c3.2,1.8,3.3-5.7-0.1-3.9C206.2,100.6,206.5,102.8,207.6,103.6z"/>
			<path class="st5" d="M211.4,96.2c-0.9-0.6-1.9-1.2-3-1.5s-2.3-0.4-3.4-0.1c-1.1,0.3-2.1,1-2.6,2.1"/>
		</g>
		<path class="st5" d="M206.9,117.4c4.4,3.2,10.3,4.3,15.6,3.1"/>
		<g>
			<path class="st9" d="M194.6,116c0.6,1.7,2.5,2.9,4.3,2.7c1.9-0.3,3.2-2.1,3.5-3.9c0.2-1.5-0.4-3.2-1.6-4.1
				c-1.2-0.9-3.6-0.8-4.8,0.1C194.6,111.9,194,114.4,194.6,116z"/>
		</g>
		<g>
			<path class="st9" d="M224.5,118.6c0.6,1.7,2.5,2.9,4.3,2.7c1.9-0.3,3.2-2.1,3.5-3.9c0.2-1.5-0.4-3.2-1.6-4.1
				c-1.2-0.9-3.6-0.8-4.8,0.1C224.4,114.4,223.9,117,224.5,118.6z"/>
		</g>
	</g>
</g>
<g>
	<path class="st3" d="M119,161.1c-2.5,5.2-4.2,10.8-5.2,16.5c-2,12,1.6,25.3,5.3,36.8c3.9,12.2,9.7,23.8,17.1,34.2
		c5.3,7.5,12,14.7,20.9,17c6.2,1.6,12.9,0.5,18.9-1.9s11.4-6,16.7-9.6c19.4-13,38.7-24.1,58.1-37.1c-2.4-2.3-4.9-7.1-6.6-9.9
		c-0.5-0.8-4.9-6.5-5.7-6.4c-25,6.6-41.7,11.7-65.4,19.6C169.2,202.1,143.7,109.6,119,161.1z"/>
	<path class="st4" d="M166.9,202.3c-12.9,11-26.4,20.7-40.4,30.2c-2.8-4-5.2-8.2-6.4-12.9L166.9,202.3z"/>
	<path class="st5" d="M173.1,220.7c-1.2,4.2-1.8,8.6-1.7,12.9"/>
</g>
<path class="st10" d="M116.6,161.3c-7.1,19.8-4.5,42.5,4.2,61.5c16.6-7.5,30.9-13.3,47.5-20.9c-4.9-21-12.9-42.2-25.6-59.7
	C131.5,143.6,121.2,151,116.6,161.3z"/>
<polygon class="st11" points="118.5,217.1 167.8,197 168.3,201.9 120.9,222.7 "/>
<path class="st5" d="M168.2,202c-2-15.5-6.6-30.7-13.4-44.7"/>
<path class="st5" d="M120.9,222.7c-1.8-4-3.4-8-4.8-12.1"/>
<g>
	<path class="st3" d="M234,204.9c-3.8-8.6,5.1-15.2,10.8-20.2c1.3-1.3,2.3-2.7,3.5-4.1c0.5-0.7,1.5-1.8,2.5-1.4
		c0.8,0.3,1,1.3,1.2,2.1c0.2,1.1,0.2,2.3-0.2,3.4c-0.4,1.1-1.2,2.5-2.2,3.1c2-1.1,4.1-2.3,5.8-3.8c1.6-1.4,2.8-3,4.3-4.5
		c1.4-1.3,3.3-2.8,5.3-1.8c1.6,0.8,1.9,3.1,0.6,4.4c4.8-5.1,9.7-0.5,5.1,4.7c1.3-1.8,4-0.4,4.1,1.6c0.1,3.6-3.4,5.8-5.3,8.5
		c0.6-0.8,2.4-0.8,3.2-0.4c2.3,1.5,0.8,4.5-0.8,5.9c-9,9.2-19.9,13.6-30.7,20.8L234,204.9z"/>
	<g>
		<path class="st5" d="M251,186.2c-2.3,1.9-4.6,3.7-6.9,5.6"/>
		<path class="st5" d="M265.6,181.9c-3.6,4.4-7.8,8.4-12.4,11.7"/>
		<path class="st5" d="M269.7,196.8c-3.4,3.4-7.3,6.4-11.5,8.8"/>
		<path class="st5" d="M270.9,186.6c-3.5,4.4-7.8,8.2-12.5,11.3"/>
	</g>
</g>
<g>
	<g>
		<g>
			<g>
				<rect x="343.8" y="52.7" class="st1" width="5.2" height="28.7"/>
				<rect x="449.6" y="73.6" class="st1" width="5.2" height="43.4"/>
				<rect x="395.1" y="32.4" class="st1" width="4.8" height="311.9"/>
				<rect x="343.8" y="52.7" class="st1" width="56.1" height="4.6"/>
				<rect x="396.7" y="73.6" class="st1" width="58.1" height="4.6"/>
			</g>
		</g>
		<g>
			<path class="st0" d="M397.6,30.9c0-0.2-0.1-0.3-0.1-0.5c0,0.2-0.1,0.3-0.1,0.5H397.6z"/>
			<path class="st0" d="M403.7,47.6c8.6-3.1,15.8-9.7,20-17.9c-0.2-0.8-0.4-1.6-0.8-2.4c-2.3-5.3-8.3-8.8-14.1-7.9
				c-5.6,0.8-10.4,5.5-11.3,11c0,0.2,0.1,0.3,0.1,0.5h-0.2c0-0.2,0.1-0.3,0.1-0.5c-1-5.5-5.7-10.2-11.3-11c-5.7-0.8-11.8,2.6-14.1,8
				c-2.2,5.1-0.9,11.2,1.9,15.9c0.7,1.2,1.5,2.2,2.3,3.3C384.9,50.4,394.9,50.8,403.7,47.6z"/>
			<path class="st12" d="M403.7,47.6c-8.8,3.2-18.8,2.7-27.3-1.1c2.6,3.2,5.9,6,9.2,8.7c4.3,3.5,8.5,6.9,11.8,11.4
				c3.3-4.5,7.8-7.9,12.1-11.4c4.3-3.5,8.6-7.2,11.5-11.9c2.4-4,3.7-9,2.7-13.5C419.5,37.9,412.3,44.5,403.7,47.6z"/>
		</g>
		<g>
			<path class="st0" d="M398.7,224.2c7.1-2.6,13-8.1,16.8-14.6c0.5-0.9,1-1.8,1.4-2.7c-2.2-3.7-6.6-5.9-10.9-5.4
				c-4.5,0.6-8.4,4.5-9.2,9c0,0.1,0,0.2,0.1,0.4h-0.1c0-0.1,0-0.2,0.1-0.4c-0.8-4.5-4.7-8.4-9.2-9c-4.7-0.6-9.6,2.1-11.5,6.5
				c-1.8,4.2-0.8,9.1,1.6,13c0.7,1.2,1.5,2.3,2.5,3.3C386,226.5,392.7,226.4,398.7,224.2z"/>
			<path class="st0" d="M396.8,210.9c0-0.1,0-0.2-0.1-0.4c0,0.1,0,0.2-0.1,0.4H396.8z"/>
			<path class="st12" d="M417.4,208c-0.2-0.4-0.4-0.8-0.6-1.1c-0.4,0.9-0.9,1.9-1.4,2.7c-3.8,6.5-9.7,11.9-16.8,14.6
				c-5.9,2.2-12.7,2.3-18.6,0.1c2,2.4,4.5,4.4,6.9,6.4c3.5,2.9,6.9,5.7,9.6,9.3c2.7-3.6,6.3-6.5,9.8-9.3c3.5-2.9,7-5.9,9.4-9.7
				C418.2,217.1,419.2,212.2,417.4,208z"/>
		</g>
	</g>
	<g>
		<g>
			<rect x="310.9" y="68.1" class="st0" width="4.9" height="15.6"/>
			<rect x="305.6" y="73.4" class="st0" width="15.6" height="4.9"/>
		</g>
		<g>
			<rect x="471.9" y="85" class="st0" width="4.9" height="15.6"/>
			<rect x="466.6" y="90.3" class="st0" width="15.6" height="4.9"/>
		</g>
		<g>
			<rect x="449.1" y="190.9" class="st0" width="4.9" height="15.6"/>
			<rect x="443.8" y="196.2" class="st0" width="15.6" height="4.9"/>
		</g>
		<g>
			<rect x="479.7" y="177.8" class="st0" width="4.9" height="15.6"/>
			<rect x="474.4" y="183.2" class="st0" width="15.6" height="4.9"/>
		</g>
		<g>
			<rect x="376.4" y="161.2" class="st0" width="4.9" height="15.6"/>
			<rect x="371.1" y="166.6" class="st0" width="15.6" height="4.9"/>
		</g>
		<g>
			<rect x="321.2" y="161.7" class="st0" width="4.9" height="15.6"/>
			<rect x="315.9" y="167" class="st0" width="15.6" height="4.9"/>
		</g>
	</g>
	<g>
		<path class="st13" d="M358.3,144.1c0.2,6.4,0.3,12.8,0.3,19.2c-0.1,11.8-0.5,23.5-1.4,35.3c-1,13.2-2.5,26.4-5.4,39.3
			c-2.4,10.8-5.5,22-11.9,31.2c-1.8,2.6-4,5.6-6.6,7.2c-5.2,3.1-11.5,4.3-17.5,3.3c-6.9-1.1-13.2-5.2-17.2-11
			c-5.4-7.9-6-17.9-9.2-26.9c-2.4-6.6-6.2-12.6-11.2-17.5"/>
		<g>
			<g>
				<path class="st6" d="M282,226.5c2.5-1.6,4.4-3.9,5.6-6.5c-3.2-2.3-6.3-5.1-8.2-8c-4.3,4.1-9.1,7.7-14.4,10.5
					c0.9,1.9,2,3.7,3.4,5.4C272.9,229.4,278,229,282,226.5z"/>
				<path class="st7" d="M287.6,220c-1.2,2.6-3.2,5-5.6,6.5c-4,2.5-9.1,2.9-13.5,1.3c2.5,3,5.8,5.4,9.5,6.8
					c5.4-2.7,10.8-6.7,13.4-12.1C290.1,221.7,288.9,220.9,287.6,220z"/>
			</g>
			<path class="st0" d="M276.3,223.4c-0.2,0.2-0.5,0.4-0.6,0.6c-0.2,0.2-0.2,0.6-0.1,0.8c0.2,0.4,0.7,0.5,1.2,0.5
				c1.5-0.1,2.9-1.1,3.7-2.4c0.3-0.5,0.8-1.7,0.3-2.1c-0.5-0.4-1.3,0.4-1.7,0.6C278.1,222.1,277.2,222.8,276.3,223.4z"/>
		</g>
		<g>
			<path class="st6" d="M381.1,111.6c-1.8-11.8-3.9-22.8-6.3-32.9c-0.2-1.1-1.1-1.8-2.2-2c-5.2-0.9-11.5-1.5-18.6-1.3
				c-13.4,0.5-24.2,3.9-31.6,7c-1,0.4-1.6,1.3-1.6,2.4c-0.2,9-0.2,18.6,0.3,28.7c0.6,13.3,1.8,25.6,3.4,37c0.2,1.4,1.5,2.4,2.9,2.3
				l2.5-0.3l0.7,6.5c0.1,0.9,0.9,1.6,1.9,1.5l5.8-0.7c0.9-0.1,1.6-0.9,1.5-1.9l-0.7-6.5l3.7-0.4l2,17.6c0.1,0.9,0.9,1.6,1.9,1.5
				l5.8-0.7c0.9-0.1,1.6-0.9,1.5-1.9l-2-17.6l4.2-0.5l0.7,6.5c0.1,0.9,0.9,1.6,1.9,1.5l5.8-0.7c0.9-0.1,1.6-0.9,1.5-1.9l-0.7-6.5
				l4.2-0.5l0.7,6.5c0.1,0.9,0.9,1.6,1.9,1.5l5.8-0.7c0.9-0.1,1.6-0.9,1.5-1.9l-0.7-6.5l3.6-0.4c1.4-0.2,2.5-1.4,2.4-2.8
				C383.9,133.8,382.8,123,381.1,111.6z"/>
			<g>
				<circle class="st7" cx="345.5" cy="74.8" r="5.3"/>
				<path class="st6" d="M347.3,74.7c0,1-0.8,1.8-1.8,1.8s-1.8-0.8-1.8-1.8s0.8-1.8,1.8-1.8S347.3,73.7,347.3,74.7z"/>
			</g>
			<g>
				<g>
					<path class="st7" d="M375.7,107.3c-1.5-9.1-3.3-17.7-5.1-25.7c-0.2-0.9-0.9-1.5-1.8-1.6c-7-0.6-15.9-0.7-26,1
						c-6.2,1.1-11.7,2.6-16.4,4.2c-0.8,0.3-1.4,1.1-1.4,1.9c-0.1,8.9,0.2,18.6,0.8,28.7c0.1,2,0.3,4,0.5,5.9
						C344,123.2,358.1,97.3,375.7,107.3z"/>
					<path class="st6" d="M327.9,92.4c-0.1-1.4-0.2-3,0.6-4.1c0.8-1.2,2.3-1.7,3.7-2c2.6-0.7,5.2-1.1,7.8-1.6
						c4.9-0.9,9.9-1.7,14.8-2.6c1-0.2,1.9-0.3,2.9-0.1s1.8,1,1.9,1.9c0.1,1-0.6,1.8-1.4,2.4c-4.6,3.9-11.3,4.8-15.5,9.1
						c-2.9,2.9-4.1,7.1-6.7,10.3c-0.6,0.8-1.4,1.5-2.3,1.9s-2,0.6-2.9,0.2s-1.5-1.2-1.9-2.1c-0.7-1.8-0.4-4.1-0.6-6
						C328.3,97.3,328.1,94.9,327.9,92.4z"/>
				</g>
				<g>
					<path class="st0" d="M375.7,107.3c-17.6-10.1-31.7,15.9-49.4,14.5c0.7,8.5,1.7,16.6,2.8,24.1c0.2,1.1,1.2,1.9,2.3,1.7l46.7-5.3
						c1.1-0.1,1.9-1.1,1.8-2.2c-0.7-7.6-1.6-15.6-2.8-23.9C376.7,113.2,376.2,110.2,375.7,107.3z"/>
					<path class="st12" d="M345.2,137.9c4-2.2,7.8-5,12.1-6.7c2.7-1.1,5.6-1.7,8.2-2.9s5.2-3.1,6.2-5.8c0.5-1.4,0.8-3.1,2.2-3.7
						c1.2,2.8,1.6,5.6,1.8,8.5c0.2,3.2,1,6.5,1.4,9.7c0.1,0.9,0.2,1.9-0.2,2.6c-0.6,1.1-2.1,1.3-3.4,1.3
						c-10.8,0.6-21.6,1.9-32.3,3.9c-2.4,0.4-4.8,0.9-7.2,0.7c-1.6-0.1-4.2-2.2-1.8-3.1c2.2-0.9,4.5-1,6.7-1.7
						C341.2,139.9,343.3,138.9,345.2,137.9z"/>
				</g>
			</g>
		</g>
	</g>
	<g>
		<path class="st13" d="M436.5,187.7c-1.8,7.4-21,87.7,6.3,109c2.3,1.8,7.9,6.2,15.6,6.2c14.5,0.1,24.2-15.5,34.9-28.3
			c9.8-11.7,25.8-27.3,51.8-41.7"/>
		<g>
			<g>
				<g>
					<g>
						<path class="st6" d="M484.4,112.8c0.5-3-2-5.7-5-5.5c-7.4,0.4-16.1,0.2-25.6-0.9c-10.2-1.2-19.1-3.3-26.5-5.6
							c-2.9-0.9-5.9,1.1-6.2,4.1c-2.2,22.5-4.5,44.9-6.7,67.4l0,0l3.3,0.4c1,0.1,1.7,1,1.6,2l-0.5,4.5c-0.1,1,0.6,1.9,1.6,2l5.5,0.6
							c1,0.1,1.9-0.6,2-1.6l0.5-4.5c0.1-1,1-1.7,2-1.6l0,0c1,0.1,1.7,1,1.6,2l-1.7,15.7c-0.1,1,0.6,1.9,1.6,2l5.5,0.6
							c1,0.1,1.9-0.6,2-1.6l1.7-15.7c0.1-1,1-1.7,2-1.6l0.5,0.1c1,0.1,1.7,1,1.6,2L445,182c-0.1,1,0.6,1.9,1.6,2l5.5,0.6
							c1,0.1,1.9-0.6,2-1.6l0.5-4.5c0.1-1,1-1.7,2-1.6l0.5,0.1c1,0.1,1.7,1,1.6,2l-0.5,4.5c-0.1,1,0.6,1.9,1.6,2l5.5,0.6
							c1,0.1,1.9-0.6,2-1.6l0.5-4.5c0.1-1,1-1.7,2-1.6l4.3,0.5l0,0L484.4,112.8z"/>
					</g>
				</g>
			</g>
			<g>
				<circle class="st7" cx="452" cy="105.8" r="5.3"/>
				<path class="st6" d="M453.8,105.7c0,1-0.8,1.8-1.8,1.8s-1.8-0.8-1.8-1.8s0.8-1.8,1.8-1.8C453,103.9,453.8,104.7,453.8,105.7z"/>
			</g>
			<g>
				<g>
					<path class="st7" d="M475.1,112.1c-6.9,0.4-15.1,0.4-24.3-0.7c-8.4-1-15.7-2.7-21.9-4.5c-1.8-0.5-3.6,0.7-3.7,2.6l-2.5,33.7
						c2.4,5.2,7.1,9.4,12.6,11c4.3,1.3,9,1.1,13.3,2.3c2.8,0.8,5.4,2.3,8.1,3.6s5.5,2.4,8.4,2.5c2,0.1,4.1-0.4,5.8-1.4
						c2.4-15.2,4.9-30.4,7.3-45.7C478.5,113.6,477,112,475.1,112.1z"/>
					<path class="st6" d="M465.4,126.5c-2.1-4.3-7.4-4.4-11.5-4.3c-6.1,0.1-10.9-4.1-16.6-5.4c-6.4-1.6-6.2,4.9-5.4,9.3
						c-0.2,2.4,0,4.9,1.2,7c1.8,2.9,5.4,4.1,8.6,5.3c7.2,1.5,12.2,9.4,19.3,9.8C467,143.9,466.3,133.2,465.4,126.5z"/>
				</g>
				<path class="st0" d="M456.7,160c-2.7-1.3-5.2-2.7-8.1-3.6c-4.3-1.3-9-1.1-13.3-2.3c-5.5-1.6-10.2-5.8-12.6-11l-1.5,20.3
					c-0.1,1.7,1.2,3.1,2.8,3.1c6,0.1,12.7,0.5,20,1.4c8.1,1.1,15.5,2.6,21.9,4.3c1.6,0.4,3.3-0.6,3.6-2.3c0.5-2.9,0.9-5.9,1.4-8.8
					c-1.7,1-3.8,1.5-5.8,1.4C462.1,162.4,459.3,161.2,456.7,160z"/>
			</g>
			<path class="st12" d="M425.5,158.2c0,1.3,0.3,2.7,1.1,3.6c1.1,1.2,2.8,1.4,4.4,1.5c2.8,0.2,5.5,0.2,8.3,0.2
				c0.5,0,1.2-0.1,1.4-0.5c0.2-0.5-0.2-1.1-0.6-1.4c-1.4-1.1-3.2-1.3-4.9-1.8c-2.2-0.7-4.2-2-5.7-3.7c-0.6-0.6-1.1-1.3-1.8-1.7
				c-0.7-0.4-1.9-0.6-2.1,0.4C425.5,155.9,425.5,157.1,425.5,158.2z"/>
			<path class="st12" d="M466.5,165.1c0.3-0.1,0.6-0.2,0.9-0.1c0.4,0.1,0.6,0.6,0.7,1c0.1,0.9-0.4,1.8-1.1,2.4
				c-0.7,0.6-1.6,0.9-2.5,0.9c-1.5,0.2-3.1-0.2-4.6-0.7s-2.9-1.2-4.3-1.8c-0.5-0.2-1.1-0.4-1.3-0.9c-0.2-0.4-0.2-0.9,0-1.3
				c0.9-1.6,2.8-0.3,4,0.1c1.7,0.6,3.5,0.9,5.2,0.8C464.5,165.6,465.5,165.4,466.5,165.1z"/>
		</g>
		<g>
			<g>
				<path class="st6" d="M551.8,227.3c-1.7-1.9-3.3-3.9-4.3-5.9c-4.7,3.7-9.9,6.6-15.4,8.8c0.5,1.7,1.3,3.2,2.2,4.7
					C541.8,239.6,552,236.7,551.8,227.3z"/>
				<path class="st7" d="M551.8,227.3c0.2,9.4-10,12.3-17.5,7.6c2.2,3.7,5.5,6.8,9.3,8.7c5.6-2.1,11.4-5.5,14.6-10.6
					C556,231.5,553.8,229.5,551.8,227.3z"/>
			</g>
			<path class="st0" d="M543.5,233.4c0.4,0.7,1.1,1.2,1.9,1.4c0.4,0.1,0.9,0,1.2-0.3s0.5-0.7,0.5-1.1c0.1-0.7-0.1-1.4-0.5-2
				c-0.6-0.9-2-1.5-3.1-1.1C542.5,230.7,543,232.6,543.5,233.4z"/>
		</g>
	</g>
</g>
<g>
	<g>
		<path class="st0" d="M733.4,621.9c-11,2.5-22.4-1.4-33.3-4.6s-23.1-5.6-33.2-0.4c-8.6,4.4-13.7,13.5-18.2,22s-9.5,17.6-17.9,22.3
			c-8.5,4.7-21.5,2.5-24.6-6.7c-1.5-4.6-0.3-9.7-0.9-14.5c-1.3-10.9-12-18.8-22.8-20.8s-21.9,0.4-32.8,2.3
			c-10.9,1.9-22.4,3.2-32.6-1c-10.2-4.2-17.2-13.2-21.2-23.1c-3.3-8.2-7.8-22.1-3.1-30.3c4.4-7.7,13.9-10.3,22.4-12.8
			s17.9-6.9,20-15.5c0.9-3.6,0.3-7.5,1.8-10.8s6.7-5.4,8.7-2.3c0.9,1.3,0.7,3,1.1,4.6c1.3,5.2,7.6,7,13,7.6
			c14.8,1.6,29-2.3,43.5-1.4c14.1,0.9,28.1,0.2,42.3-1c3-0.3,6.2-0.6,8.8-2.1s4.7-4.5,4.1-7.5c-0.8-4.1-5.7-5.9-9.9-5.9
			c-4.2-0.1-8.6,0.8-12.3-1.2c-4.4-2.2-6.2-7.5-10.2-10.5c-6.7-5.1-16.2-1.6-23.8,2c0-6.9-0.1-13.9-2.5-20.3s-7.6-12.3-14.4-13.4
			c-3.3-0.6-7.2,0.2-9.2,3c-2.6,3.5,1.2,11,2.9,14.5c1.5,3.1,3.5,6.2,3.6,9.7c0.3,6.9-6.5,11.8-12.4,15.4c-2.7,1.6-6.5,2.9-8.4,0.5
			c-1.9-2.5,0.7-5.9,2.5-8.5c4-6,3.7-14.6-0.8-20.3c-4.5-5.7-12.8-8-19.5-5.5c-9.1,3.4-10.2,10.7-10.9,19
			c-0.7,7.4-5.9,13.5-11.7,17.9c-11.9,8.8-29,10.8-42.1,3.6c-3.7-2-7.4-5.4-7-9.6c0.3-3.9,4.3-6.7,8.1-7.3c3.9-0.6,7.8,0.4,11.7,0.9
			c3.9,0.5,8.2,0.4,11.3-1.9c3.1-2.4,4.2-7.7,1.1-10.1c-1.6-1.3-3.9-1.5-5.6-2.7c-2.6-1.8-3.1-5.6-1.9-8.5c1.1-2.9,3.6-5.1,6.1-7.1
			c8.8-6.7,19.4-10.4,30-13c3.6-0.9,36.3-2.2,36.5-2.8c4.9-12-1.8-27.4-13.9-32c1.1-3.9,2.2-7.9,1.5-11.9s-3.6-7.9-7.6-8.3
			c-3.9-0.4-7.5,2.6-9,6.1c-1.8,4-3.2,10.2-4,14.6c-1.2,6.4,1,12.8-1.5,19.1c-0.9,2.2-3,4.4-5.3,3.9s-3.2-3.4-4.7-5.1
			c-3.2-3.6-9-2.7-13.7-1.6s-10.7,1.6-13.4-2.5c-1.6-2.4-1.2-5.7,0-8.3c1.3-2.6,3.3-4.7,5.2-6.9c7.4-8.6,15.4-21.9,15.8-33.6
			c0.1-5-1.6-8,2.4-12.4c3.3-3.6,8.5-5.3,13.2-5.7c18.5-1.4,35.9-3.9,52.2-10.2c-35.7-21.9-75.5-37.7-118-46
			c-3.2,6.9-8.2,13.1-14,18.2c-9.1,8.1-20.1,13.8-30.5,20.1c-10.5,6.3-20.8,13.4-27.8,23.4c-11.3,16-12.8,37.5-24.5,53.3
			c-4.2,5.6-11,10.7-17.8,8.6c-4.2-1.3-7.2-5.3-8.6-9.6c-1.3-4.3-1.2-8.8-1.1-13.3c0.3-11.1,0.5-22.1,0.8-33.2
			c0.1-5.1,0.2-10.3-1.2-15.1c-1.5-4.9-4.9-9.4-9.7-11c-5.3-1.7-11,0.5-16.6,1s-12.6-2.3-12.7-7.9c0-4.3,4-7.4,7.6-9.9
			c9.7-6.9,18-15.7,24.5-25.7c-30.9,5.5-60.5,15-88.1,27.9c0.3,0.1,0.5,0.1,0.5,0.1c7.5,0.9,14.9,1.9,22.4,2.8
			c1.9,0.2,3.9,0.5,5.3,1.9c2.1,2,1.7,5.8-0.2,8.1c-1.9,2.3-4.7,3.5-7.5,4.7c-13,5.4-26,11-38.9,16.7c-4.4,2-9.1,4.1-12,8
			s-3.3,10.1,0.5,13.1c3.6,2.9,9.9,2.6,11.3,6.9c1.6,5.1-6,8.7-6.7,14c-0.5,3.8,3,7.3,6.9,7.9c3.8,0.6,7.6-0.9,11-2.8
			c12.2-6.7,18.3-16.8,24-28.9c2.4-5.1,5.5-9.4,11.6-6.6c6.4,2.9,6.4,10,7.2,16c0.5,3.6,1.9,7.5,5.1,9.2c3,1.6,6.6,0.8,9.9,0.5
			c3.4-0.3,7.4,0.5,8.8,3.5c1.8,3.9-2.1,8-3.1,12.1c-1.6,6.8,4.5,12.8,9.9,17.2c5.4,4.5,11.1,11.1,8.6,17.6
			c-2.6,6.8-12.4,7.5-18.9,4.2s-11.5-9-18.1-12c-5.8-2.6-12.9-2.8-18.6,0.1s-9.7,9.1-9.5,15.5c0.2,4.3,2.1,8.4,2,12.7
			s-4.2,9-8.1,7.4c-1.9-0.8-3.1-2.8-4.1-4.6c-3.6-6.7-6.4-16.9-13.9-19.6c-6.3-2.3-15-1.2-20.2,3.3c-14.5,12.5-10.6,35.7-2.6,50.9
			c3.5,6.7,8.6,13,15.6,15.7c6.9,2.6,14.7,1.4,22,0c6-1.2,12-2.4,17.4-5.2c5.4-2.7,10.3-7.1,12.3-12.8c1.5-4.3,1.4-9.1,3.4-13.2
			c2-4.1,7.7-7,11.1-3.9c2.9,2.6,1.8,7.3,0.3,11c-2.9,7.1-6.5,13.9-10.7,20.3c-2,3-4,7.2-1.5,9.9c1.4,1.5,3.8,1.7,5.9,1.4
			c5.3-0.7,10.2-3.5,15.5-3.9c5.3-0.3,11.6,3.4,10.9,8.7c-0.5,3.5-3.9,5.8-6.3,8.4c-2.4,2.6-3.8,7.4-0.8,9.3c1,0.6,2.2,0.8,3.3,0.9
			c11.1,1.2,22.2,2.3,33.4,3.5c9.6,1,19.7,2.2,27.5,7.9c11.4,8.3,14.8,23.9,14.7,38s-3,28.4-0.4,42.3l-160.5-20.3
			c1.2-18.9,9.9-37.2,23.8-50.1c3.5-3.2,7.8-7.4,6.3-12c-1.1-3.4-4.8-5-8.2-6c-15.5-4.7-32.3-5.2-48.1-1.5
			c-5.2,1.2-10.3,2.9-15.6,3.4s-11-0.3-15.2-3.6c-7.4-5.8-7.7-16.6-8.3-26c-0.8-13.9-3.6-27.8-8.2-40.9c-1.9-5.5-10.2-28.2-19-16
			c-6.3,8.8-5.7,22.1-3.3,32c0.7,2.8,1.6,5.6,1,8.3c-0.6,2.8-3.3,5.3-6,4.6c-2.4-0.7-3.5-3.5-4.1-5.9c-3.3-12.4-4.2-25.5-2.7-38.3
			c0.6-4.6,1.4-9.2,1.1-13.8c-0.3-4.6-1.9-9.4-5.5-12.3c-1.2-1-2.7-1.9-4.1-2.7C67.3,525.1,43,596.3,43,673.2
			c0,197.2,159.9,357.1,357.1,357.1s357.1-159.9,357.1-357.1c0-21.4-1.9-42.3-5.5-62.7C746.7,616,740.5,620.2,733.4,621.9z"/>
		<path class="st12" d="M118.2,481.8c0.3,4.6-0.6,9.2-1.1,13.8c-1.5,12.8-0.6,25.8,2.7,38.3c0.7,2.4,1.7,5.2,4.1,5.9
			c2.7,0.8,5.4-1.8,6-4.6s-0.3-5.6-1-8.3c-2.4-10-3-23.2,3.3-32c8.7-12.3,17,10.5,19,16c4.6,13.2,7.4,27,8.2,40.9
			c0.6,9.4,0.9,20.2,8.3,26c4.2,3.3,9.9,4.1,15.2,3.6s10.4-2.2,15.6-3.4c15.8-3.7,32.6-3.2,48.1,1.5c3.4,1,7.1,2.7,8.2,6
			c1.5,4.6-2.8,8.8-6.3,12c-13.9,12.8-22.6,31.2-23.8,50.1l160.5,20.3c-2.6-13.9,0.2-28.2,0.4-42.3c0.2-14.1-3.2-29.7-14.7-38
			c-7.8-5.7-17.9-6.9-27.5-7.9c-11.1-1.2-22.2-2.3-33.4-3.5c-1.1-0.1-2.3-0.3-3.3-0.9c-3-1.9-1.7-6.7,0.8-9.3
			c2.4-2.6,5.8-4.9,6.3-8.4c0.8-5.3-5.5-9-10.9-8.7s-10.2,3.1-15.5,3.9c-2.1,0.3-4.4,0.2-5.9-1.4c-2.5-2.6-0.4-6.8,1.5-9.9
			c4.2-6.4,7.8-13.2,10.7-20.3c1.5-3.6,2.5-8.3-0.3-11c-3.4-3.1-9.1-0.1-11.1,3.9c-2,4.1-1.9,8.9-3.4,13.2
			c-2,5.7-6.9,10.1-12.3,12.8s-11.5,4-17.4,5.2c-7.3,1.4-15,2.7-22,0c-7.1-2.7-12.1-9-15.6-15.7c-7.9-15.3-11.9-38.5,2.6-51
			c5.2-4.4,13.9-5.6,20.2-3.3c7.4,2.7,10.3,13,13.9,19.6c1,1.9,2.1,3.8,4.1,4.6c4,1.6,8-3.1,8.1-7.4s-1.8-8.4-2-12.7
			c-0.3-6.4,3.8-12.6,9.5-15.5s12.7-2.8,18.6-0.1c6.6,3,11.6,8.8,18.1,12s16.2,2.6,18.9-4.2c2.5-6.5-3.2-13.1-8.6-17.6
			s-11.5-10.4-9.9-17.2c1-4.2,4.9-8.2,3.1-12.1c-1.4-3.1-5.4-3.8-8.8-3.5s-7,1-9.9-0.5c-3.2-1.7-4.6-5.6-5.1-9.2
			c-0.8-6-0.8-13.1-7.2-16c-6.1-2.8-9.2,1.5-11.6,6.6c-5.7,12.1-11.8,22.2-24,28.9c-3.4,1.9-7.2,3.4-11,2.8s-7.4-4.1-6.9-7.9
			c0.7-5.3,8.4-8.9,6.7-14c-1.4-4.4-7.7-4.1-11.3-6.9c-3.8-3-3.4-9.3-0.5-13.1c2.9-3.9,7.5-6,12-8c12.9-5.7,25.9-11.3,38.9-16.7
			c2.7-1.1,5.6-2.4,7.5-4.7c1.9-2.3,2.3-6,0.2-8.1c-1.4-1.3-3.4-1.6-5.3-1.9c-7.5-0.9-14.9-1.9-22.4-2.8c0,0-0.2,0-0.5-0.1
			c-56.4,26.4-104.7,67-140.4,117.2c1.5,0.8,2.9,1.7,4.1,2.7C116.2,472.4,117.9,477.2,118.2,481.8z"/>
		<path class="st12" d="M312.6,347.4c-3.5,2.5-7.6,5.5-7.6,9.9c0.1,5.6,7.1,8.4,12.7,7.9s11.3-2.7,16.6-1c4.8,1.5,8.2,6.1,9.7,11
			s1.4,10,1.2,15.1c-0.3,11.1-0.5,22.1-0.8,33.2c-0.1,4.5-0.2,9,1.1,13.3c1.3,4.3,4.3,8.3,8.6,9.6c6.7,2.1,13.6-3,17.8-8.6
			c11.7-15.8,13.2-37.2,24.5-53.3c7-10,17.4-17.1,27.8-23.4c10.5-6.3,21.4-12,30.5-20.1c5.7-5.1,10.8-11.2,14-18.2
			c-22.2-4.3-45.2-6.6-68.7-6.6c-21.5,0-42.5,1.9-62.9,5.5C330.6,331.6,322.2,340.4,312.6,347.4z"/>
		<path class="st12" d="M586.6,368.8c-16.3,6.4-33.7,8.8-52.2,10.2c-4.7,0.4-9.9,2.1-13.2,5.7c-4,4.4-2.3,7.4-2.4,12.4
			c-0.3,11.7-8.4,25.1-15.8,33.6c-1.9,2.2-4,4.3-5.2,6.9s-1.6,5.9,0,8.3c2.6,4.1,8.7,3.6,13.4,2.5s10.5-2.1,13.7,1.6
			c1.6,1.8,2.4,4.6,4.7,5.1s4.4-1.7,5.3-3.9c2.6-6.2,0.4-12.7,1.5-19.1c0.8-4.4,2.2-10.6,4-14.6c1.6-3.6,5.2-6.6,9-6.1
			c4,0.4,6.9,4.3,7.6,8.3c0.7,4-0.4,8-1.5,11.9c12.1,4.6,18.8,20,13.9,32c-0.3,0.6-32.9,1.9-36.5,2.8c-10.6,2.6-21.2,6.3-30,13
			c-2.5,1.9-4.9,4.1-6.1,7.1s-0.6,6.7,1.9,8.5c1.7,1.2,4,1.4,5.6,2.7c3.1,2.5,2,7.8-1.1,10.1c-3.1,2.4-7.4,2.4-11.3,1.9
			s-7.8-1.5-11.7-0.9c-3.9,0.6-7.8,3.4-8.1,7.3c-0.4,4.2,3.4,7.5,7,9.6c13.1,7.2,30.3,5.2,42.1-3.6c5.9-4.3,11.1-10.5,11.7-17.9
			c0.8-8.2,1.8-15.6,10.9-19c6.8-2.5,15.1-0.1,19.5,5.5c4.5,5.7,4.8,14.3,0.8,20.3c-1.8,2.6-4.3,6-2.5,8.5s5.7,1.1,8.4-0.5
			c6-3.5,12.8-8.4,12.4-15.4c-0.2-3.5-2.2-6.5-3.6-9.7c-1.7-3.5-5.5-11-2.9-14.5c2-2.7,5.8-3.5,9.2-3c6.8,1.1,12,7,14.4,13.4
			s2.5,13.5,2.5,20.3c7.6-3.6,17.1-7,23.8-2c3.9,3,5.8,8.2,10.2,10.5c3.7,1.9,8.2,1.1,12.3,1.2c4.2,0.1,9.1,1.8,9.9,5.9
			c0.6,3-1.5,6-4.1,7.5c-2.7,1.5-5.8,1.8-8.8,2.1c-14.2,1.2-28.2,1.9-42.3,1c-14.4-0.9-28.7,3.1-43.5,1.4c-5.3-0.6-11.7-2.4-13-7.6
			c-0.4-1.5-0.2-3.2-1.1-4.6c-2-3.1-7.2-1.1-8.7,2.3c-1.5,3.3-0.9,7.2-1.8,10.8c-2.1,8.6-11.5,12.9-20,15.5
			c-8.5,2.5-18,5.1-22.4,12.8c-4.6,8.2-0.2,22.2,3.1,30.3c4,10,11,19,21.2,23.1c10.2,4.2,21.7,2.9,32.6,1c10.9-1.9,22-4.3,32.8-2.3
			s21.5,9.9,22.8,20.8c0.6,4.8-0.7,9.9,0.9,14.5c3.1,9.2,16.1,11.4,24.6,6.7s13.4-13.8,17.9-22.3s9.6-17.6,18.2-22
			c10.1-5.2,22.3-2.8,33.2,0.4s22.2,7.1,33.3,4.6c7.1-1.6,13.3-5.8,18.2-11.3C733.5,508.4,671.9,421.1,586.6,368.8z"/>
	</g>
	<g>
		<g>
			<g>
				<g>
					<ellipse class="st6" cx="408.1" cy="369" rx="34.5" ry="34.5"/>
				</g>
			</g>
			<path class="st7" d="M379,387.5c11.3,17.2,35,21,50.4,9.1c14.8-11.3,17.8-33.6,5.8-49.2C416.4,360.8,397.7,374.2,379,387.5z"/>
			<g>
				<path class="st0" d="M397.8,368.2c-16.3,35.8,55.1,26,10-17.5C404.5,356.5,400.6,362.1,397.8,368.2z"/>
				<path class="st12" d="M412.3,376.2c-4,10.9,4.4,13.4,8,2.6C422.7,369.4,416.4,367.8,412.3,376.2z"/>
			</g>
			<ellipse class="st14" cx="407.8" cy="369.5" rx="28.1" ry="28.1"/>
		</g>
		<g>
			<g>
				<g>
					
						<ellipse transform="matrix(0.8255 -0.5645 0.5645 0.8255 -228.6813 204.8707)" class="st6" cx="216.9" cy="472.2" rx="35.8" ry="35.8"/>
				</g>
			</g>
			<path class="st7" d="M186.6,491.4c11.7,17.8,36.2,21.7,52.2,9.4c15.3-11.8,18.4-34.8,6-50.9C225.4,463.7,206.1,477.6,186.6,491.4
				z"/>
			<g>
				<path class="st0" d="M206.2,471.4c-16.9,37,57.1,26.9,10.3-18.1C213.1,459.3,209.1,465,206.2,471.4z"/>
				<path class="st12" d="M221.2,479.7c-4.2,11.3,4.6,13.8,8.3,2.7C231.9,472.6,225.4,471,221.2,479.7z"/>
			</g>
			<circle class="st15" cx="216.6" cy="472.7" r="29.1"/>
		</g>
		<g>
			<g>
				<g>
					<ellipse class="st6" cx="377.3" cy="548.8" rx="37" ry="37"/>
				</g>
			</g>
			<path class="st7" d="M346.1,568.7c12.1,18.4,37.4,22.5,54,9.7c15.8-12.2,19-36,6.2-52.7C386.2,540.1,366.2,554.4,346.1,568.7z"/>
			<g>
				<path class="st0" d="M366.3,548c-17.5,38.3,59,27.8,10.7-18.7C373.4,535.5,369.3,541.4,366.3,548z"/>
				<path class="st12" d="M381.8,556.6c-4.3,11.7,4.7,14.3,8.5,2.8C392.9,549.3,386.2,547.6,381.8,556.6z"/>
			</g>
			<circle class="st15" cx="377.1" cy="549.4" r="30.1"/>
		</g>
		<g>
			<g>
				<g>
					<ellipse class="st6" cx="618.2" cy="495.5" rx="33.5" ry="33.5"/>
				</g>
			</g>
			<path class="st7" d="M589.9,513.5c11,16.7,33.9,20.4,49,8.8c14.3-11,17.3-32.7,5.6-47.7C626.3,487.6,608.1,500.6,589.9,513.5z"/>
			<g>
				<path class="st0" d="M608.2,494.7c-15.8,34.7,53.5,25.2,9.7-17C614.7,483.4,610.9,488.8,608.2,494.7z"/>
				<path class="st12" d="M622.3,502.6c-3.9,10.6,4.3,13,7.8,2.6C632.4,495.9,626.3,494.4,622.3,502.6z"/>
			</g>
			<ellipse class="st16" cx="618" cy="496" rx="27.3" ry="27.3"/>
		</g>
	</g>
</g>
<rect x="61.2" y="299.2" class="st17" width="677.6" height="310.9"/>
<g id="TEXTS">
</g>
</svg>
