<?xml version="1.0" encoding="utf-8"?>
<!-- Generator: Adobe Illustrator 25.2.1, SVG Export Plug-In . SVG Version: 6.00 Build 0)  -->
<svg version="1.1" xmlns="http://www.w3.org/2000/svg" xmlns:xlink="http://www.w3.org/1999/xlink" x="0px" y="0px"
	 viewBox="0 0 1043 663" style="enable-background:new 0 0 1043 663;" xml:space="preserve">
<style type="text/css">
	.st0{display:none;}
	.st1{display:inline;fill:#DCF3FF;}
	.st2{fill:#C23757;}
	.st3{fill:#9D2640;}
	.st4{fill:#FFFFFF;}
	.st5{fill:none;stroke:#1F364B;stroke-width:3;stroke-linecap:round;stroke-linejoin:round;stroke-miterlimit:10;}
	.st6{fill:#1F364B;}
	.st7{fill:#A78374;}
	.st8{fill:#E3F3FF;}
	.st9{fill:#A1CFEA;}
	.st10{fill:none;stroke:#1F364B;stroke-linecap:round;stroke-linejoin:round;stroke-miterlimit:10;}
	.st11{fill:#E0AF9A;}
	.st12{fill:none;stroke:#2D5071;stroke-linecap:round;stroke-linejoin:round;stroke-miterlimit:10;}
	.st13{fill:#DB9688;}
	.st14{fill:none;stroke:#FFFFFF;stroke-width:5;stroke-miterlimit:10;}
	.st15{fill:none;stroke:#B91E3D;stroke-width:2;stroke-miterlimit:10;}
</style>
<g id="BACKGROUND" class="st0">
	<rect x="121.5" y="31.5" class="st1" width="800" height="600"/>
</g>
<g id="OBJECTS">
	<g>
		<g>
			<path class="st2" d="M367.28,238.89c-5.75,9.49-11.71,18.85-17.84,28.1C120.63,612.58,597.86,786.75,712.79,533.01
				c20.57-45.41,24.68-96.02,14.05-144.4C695.4,245.49,592.23,138.77,513.52,9.37C481.79,92.64,412.76,163.77,367.28,238.89z"/>
			<path class="st3" d="M448.51,552.66c102.07-17.47,197.8-70.04,267.3-146.82c10.13,45.65-18.16,121.09-45.43,158.41
				c-81.5,85.28-255.46,96.49-318.9-15.48C383.56,555.27,416.05,560.09,448.51,552.66z"/>
			<path class="st4" d="M331.28,338.06c-5.19,6.42-1.54,18.63,7.55,12.02c26.87-47.72,48.95-98.71,74.16-147.53
				C389.19,249.54,354.43,290.45,331.28,338.06z"/>
		</g>
		<g>
			<g>
				<path class="st5" d="M476.65,62.05c19.69,15.42,42.47,20.02,57.88,10.96c3.27-1.92,7.46-5.19,11.22-10.96
					c47.51,0,63.92,0,111.43,0c3.02,2.82,14.65,13.01,32.64,13.77c20.72,0.88,34.42-11.39,36.97-13.77"/>
				<rect x="594.65" y="62.05" class="st6" width="7.07" height="546.33"/>
			</g>
			<g>
				<path class="st7" d="M686.6,245.82c-0.42-0.55-0.83-1.1-1.24-1.66c-2.48-3.36-4.57-6.9-5.22-11.08
					c-0.16-1.07-0.21-2.23,0.35-3.16c0.78-1.31,2.53-1.74,4.03-1.48c1.5,0.26,2.85,1.05,4.23,1.69c3.93,1.83,8.32,2.51,12.66,2.57
					c4.34,0.06,8.66-0.48,12.97-0.97c1.23-0.14,2.64-0.22,3.54,0.63c0.56,0.53,0.8,1.33,0.88,2.1c0.49,4.59-3.4,8.32-6.55,11.12
					c-2.6,2.31-5.4,4.42-7.63,7.09c-3.52,4.2-5.48,9.69-5.4,15.17c-2.28-1.49-3.73-3.97-4.74-6.51c-1.01-2.53-1.66-5.21-2.79-7.69
					C690.37,250.81,688.48,248.32,686.6,245.82z"/>
				<g>
					<g>
						<path class="st4" d="M644.21,103.81c-1.83,0.34-3.65,0.71-5.47,1.12c-4.37,0.98-9.08,2.46-11.49,6.23
							c-1.85,2.9-1.93,6.56-1.94,10.01c-0.07,16.55-0.15,33.09-0.22,49.64c-0.07,15.41,1.65,31.33,0.81,46.71
							c0.21,5.73,0.62,11.97,4.44,16.25c4.72,5.28,12.75,5.58,19.83,5.48c13.25-0.18,26.5-0.36,39.75-0.54
							c12-0.16,22.34,0.89,34.02-2.84c2.77-0.88,5.72-1.89,7.48-4.21c1.86-2.44,1.95-5.75,1.97-8.81
							c0.2-32.74,0.39-65.49,0.59-98.23c0.04-6.28-0.35-13.49-5.29-17.36c-2.95-2.31-6.87-2.85-10.6-3.27
							C693.53,101.14,668.46,99.36,644.21,103.81z"/>
						<rect x="671.96" y="233.72" class="st4" width="13.04" height="11.08"/>
						<g>
							<circle class="st4" cx="678.35" cy="101.61" r="10.71"/>
							<path class="st8" d="M674.24,101.16c0.59,5.74,8.54,4.08,8.23-1.54C682.26,94.78,673.91,96.86,674.24,101.16z"/>
							<path class="st3" d="M678.35,68.29L678.35,68.29c1.03,0,1.86,0.83,1.86,1.86v30.35c0,1.03-0.84,1.86-1.86,1.86l0,0
								c-1.03,0-1.86-0.83-1.86-1.86V70.16C676.48,69.13,677.32,68.29,678.35,68.29z"/>
						</g>
					</g>
					<g>
						<g>
							<path class="st8" d="M657.07,165.95c8.95,1.27,17.82,3.6,26.85,3.44c8.17-0.14,16.15-2.31,24.2-3.73
								c7.02-1.24,14.38-1.87,21.23-0.14c-0.4-16.09-1.2-31.41-0.7-41.82c0.82-7.83-4.34-13.27-12.23-12.88
								c-25.73-1.66-52.86-4.8-77.65,2.55c-4.28,1.27-7.28,5.18-7.38,9.64c-0.05,2.08,0.1,4.12,0.15,5.6
								c0.25,13.26,0.07,26.49,0.07,39.71C639.37,164.61,648.51,164.74,657.07,165.95z"/>
							<path class="st4" d="M700.61,119.2c1.84,2.39,4.02,4.51,5.73,6.99c4.09,5.9,5.27,13.38,9.01,19.52
								c0.74,1.22,1.61,2.41,2.83,3.15c1.22,0.75,2.84,0.96,4.06,0.21c1.32-0.82,1.81-2.48,2.11-4c1.11-5.64,1.13-11.43,0.83-17.17
								c-0.12-2.32-0.3-4.67-1-6.89c-0.71-2.22-2.01-4.32-3.96-5.58c-3.12-2.02-7.26-1.72-10.82-1.84
								c-2.63-0.09-6.25-0.55-8.65,0.82c-0.76,0.43-1.31,1.14-1.34,2.04c-0.02,0.52,0.16,1.02,0.38,1.48
								C699.92,118.23,700.61,118.92,700.61,119.2z"/>
							<path class="st4" d="M636.32,159.29c1.4,0.66,3.04-0.56,3.62-1.99c0.58-1.43,0.5-3.04,0.88-4.53
								c0.67-2.65,2.66-4.71,4.43-6.8c1.76-2.09,3.44-4.57,3.23-7.3c-0.24-3.04-2.71-5.35-4.96-7.4c-2.26-2.05-4.64-4.53-4.59-7.58
								c0.02-1.16,0.48-2.75-0.53-3.64c-0.8-0.7-1.41-0.47-1.91,0.34c-1.2,1.94-0.14,6.02-0.04,8.14c0.31,6.55,0.4,13.11,0.29,19.67
								C636.66,151.89,636.52,155.59,636.32,159.29z"/>
						</g>
						<g>
							<path class="st2" d="M708.13,165.67c-8.05,1.42-16.03,3.59-24.2,3.73c-9.04,0.16-17.9-2.17-26.85-3.44
								c-8.57-1.21-17.7-1.35-25.46,2.37c0,13.12,0.17,26.22,1.13,39.35c0.54,7.93-2.53,18.29,5.37,23.56
								c3.25,2.12,7.38,2.16,11.26,2.14c21.95-1.28,44.95,1.7,66.63-1.17c3.74-0.5,6.89-3.04,8.24-6.56
								c5.45-14.21,5.66-37.89,5.11-60.11C722.5,163.8,715.14,164.43,708.13,165.67z"/>
							<path class="st3" d="M651.23,212.66c5.49-0.53,10.98,0.8,16.31,2.21c5.33,1.41,10.73,2.94,16.25,2.81
								c4.55-0.1,8.98-1.32,13.38-2.45c4.4-1.13,8.9-2.19,13.44-1.96s9.2,1.9,12.09,5.41c1.38,1.67,2.26,4.23,0.9,5.91
								c-0.58,0.72-1.47,1.12-2.33,1.47c-6.83,2.71-14.3,3.25-21.64,3.59c-17.27,0.81-34.59,0.71-51.85-0.31
								c-2.62-0.15-5.35-0.36-7.61-1.68c-1.75-1.02-3.2-2.94-3.27-5.01c-0.06-1.8,1.44-3.29,2.59-4.55
								C642.46,214.83,646.9,213.08,651.23,212.66z"/>
							<path class="st3" d="M655.11,174.25c-1.3-0.08-2.71-0.14-3.8,0.58c-1.49,0.97-1.85,3.09-1.3,4.78
								c0.54,1.69,1.78,3.05,2.99,4.35c2.97,3.22,5.95,6.43,8.92,9.65c3.45,3.73,6.9,7.47,10.35,11.2c1.75,1.89,3.54,3.82,5.82,5
								c2.28,1.19,5.19,1.5,7.37,0.14c1.83-1.14,2.84-3.25,3.35-5.35c0.51-2.1,0.61-4.28,1.12-6.37c1.11-4.55,4.09-8.44,7.46-11.7
								c3.37-3.26,7.18-6.04,10.54-9.3c1.03-1,2.03-2.07,2.59-3.39c0.56-1.32,0.59-2.94-0.25-4.1c-1.24-1.71-3.74-1.79-5.81-1.39
								c-3.98,0.75-7.65,2.6-11.39,4.15c-4.07,1.69-8.51,2.73-12.89,3.2c-2.5,0.27-5.2-0.21-7.7-0.36
								c-2.79-0.17-5.58-0.35-8.37-0.52C661.11,174.62,658.11,174.44,655.11,174.25z"/>
							<path class="st3" d="M721.99,180.9c-1.79,2.68-4.29,4.8-6.27,7.33c-1.99,2.53-3.49,5.79-2.75,8.92
								c1.13,4.78,6.76,7.09,8.95,11.49c0.34,0.69,0.6,1.43,1.09,2.02c0.49,0.59,1.3,1,2.02,0.76c1.02-0.35,1.24-1.67,1.29-2.75
								c0.33-6.85,0.65-13.71,0.98-20.56c0.21-4.37,0.42-8.75,0.18-13.12c0-2.28-0.57-5.26-2.54-6.66
								c-0.51,0.68-0.11,1.73-0.08,2.52c0.05,1.17-0.06,2.36-0.26,3.52C724.19,176.7,723.3,178.94,721.99,180.9z"/>
							<path class="st3" d="M643.65,185.76c2.45,2.37,5.51,4.66,5.94,8.04c0.39,2.99-1.48,5.8-3.52,8.02
								c-2.04,2.22-4.42,4.29-5.49,7.11c-0.25,0.65-0.49,1.41-1.13,1.69c-0.74,0.32-1.63-0.25-1.94-1c-0.32-0.75-0.22-1.59-0.13-2.4
								c0.72-6.66,0.6-13.42-0.35-20.05c-0.48-3.37-1.2-6.69-2.08-9.98c-0.86-3.18,1.7-1.51,2.62,0.17
								C639.26,180.46,641.1,183.29,643.65,185.76z"/>
						</g>
					</g>
					<g>
						<rect x="642.21" y="122.24" class="st9" width="37.32" height="14.79"/>
						<rect x="657.18" y="125.9" class="st6" width="19.38" height="1.59"/>
						<rect x="657.18" y="131.83" class="st6" width="19.38" height="1.59"/>
						<path class="st4" d="M654.75,129.66c0,2.58-2.1,4.68-4.68,4.68c-2.58,0-4.68-2.1-4.68-4.68c0-2.58,2.1-4.68,4.68-4.68
							C652.66,124.98,654.75,127.07,654.75,129.66z"/>
					</g>
				</g>
				<g>
					<path class="st8" d="M606.53,307.36c32.43,14.54,59.89,38.37,83.73,64.26c14.1,11.38,28.32,22.89,39.45,37.33
						c19.94,22.08,29.23,66.7-1.9,76.92c-7.01,2.3-14.6,2.07-21.63-0.14c-33.71-10.63-62.86-34.21-90.03-56.44"/>
					<path class="st10" d="M666.04,391.85c2.03-6.44,5.07-13.25,9.91-18.05c0.92-0.92,2.19-1.84,3.42-1.4
						c1.46,0.52,1.66,2.49,1.51,4.03c-0.61,6.53-2.77,12.79-4.32,19.16c-1.55,6.37-2.47,13.14-0.61,19.42"/>
				</g>
				<g>
					<path class="st11" d="M698.88,293.56c-0.34-5.09-0.68-10.18-1.03-15.27c-0.29-4.3-0.58-8.63-1.76-12.77
						c-0.98-3.46-2.58-6.79-2.83-10.38c-0.46-6.73,3.72-10.56,8.54-14.28c2.61-2.01,5.56-3.5,8.57-4.83c2.49-1.1,4.64-2.5,7.09-3.68
						c3.78-1.81,7.15-5.49,6.98-10.01c-0.09-2.27-0.92-4.44-1.28-6.68c-0.91-5.83,1.5-11.76,0.85-17.63
						c-0.19-1.7-0.63-3.37-0.87-5.06c-0.23-1.7-0.24-3.48,0.4-5.06c0.65-1.58,2.07-2.94,3.77-3.12s3.54,1.11,3.62,2.82
						c0-1.4,0-2.84,0.56-4.12c0.56-1.28,1.82-2.36,3.22-2.25c1.55,0.13,2.61,1.59,3.3,2.98c0.96,1.94,1.63,4.01,2.25,6.08
						c2.22,7.35,3.99,14.84,5.29,22.4c0.66,3.83,1.2,7.69,1.61,11.56c0.33,3.03,0.68,6.27-0.37,9.21c-1.14,3.19-3.67,5.67-6.24,7.88
						c-2.57,2.21-5.31,4.34-7.11,7.2c-4.19,6.64,0.43,15.92,2.44,22.59c2.65,8.78,5.3,17.56,7.95,26.33"/>
					<path class="st10" d="M732.63,187.97c1.03,11.11,2.07,22.27,4.62,33.14c0.59,2.5,1.26,5.09,0.74,7.6
						c-1.1,5.3-6.89,8.22-9.38,13.03"/>
				</g>
				<g>
					<path class="st8" d="M685.77,419.35c2.42-51.23,0.61-96.8,3.55-148.01c16.44,3.47,38.32-3.35,54.14-8.99
						c11.73,65.42,25.3,136.79,9.37,202.1c-10.61,24.39-53.03,31.47-65.82,6.03C681.86,455.55,685.04,434.81,685.77,419.35z"/>
					<path class="st10" d="M710.33,466.74c8.01-6.7,18.82-9.94,29.2-8.75"/>
					<path class="st10" d="M689.07,287.29c19.2,1.13,38.71-3.62,55.24-13.46"/>
					<path class="st10" d="M686.9,368.01c-3.66,22.19-5.11,46.17-4.15,68.64"/>
				</g>
			</g>
			<g>
				<path class="st4" d="M394.54,623.39c-3.05-90.43-31.39-202.61-16.19-295.03c6.44-16.31,23.5-20.41,38.77-25.03
					c52.52-15.86,108.96-15.14,162.38-4.17c33.63,5.07,55.54,22.83,56.46,58.06c5.23,79.2-6.52,191.97-8.47,271.25
					c-21,9.95-63.72,26.77-119.77,24.97C454.66,651.71,414.89,634.14,394.54,623.39z"/>
				<g>
					<polygon class="st8" points="555.26,390.09 618.59,390.09 610.09,443.47 589.02,459.79 563.97,445.43 					"/>
					<line class="st10" x1="556.12" y1="395.58" x2="617.43" y2="397.43"/>
				</g>
				<g>
					<g>
						<line class="st10" x1="504.41" y1="328.84" x2="512.49" y2="653.42"/>
					</g>
				</g>
			</g>
			<g>
				<g>
					<path class="st11" d="M472.86,251.89c2.74,21.21-1.46,43.17-11.88,62.14c10.67,8.48,24.3,13.41,38.19,14.56
						c8.98,0.74,18.06-0.07,26.79-2.14c8.79-2.09,15.41-5.69,21.89-11.78c-5.32-6.21-8.43-13.9-10.07-21.74
						c-1.64-7.84-1.87-15.87-1.95-23.85c-0.12-12.13,0.11-24.27,0.68-36.39"/>
					<path class="st7" d="M485.05,278.5c9.22,10.97,25.26,17.29,36.78,6.11c27.18-26.71,13.17-53.25-24.32-44.41
						C474.09,246.07,466.09,260.35,485.05,278.5z"/>
				</g>
				<g>
					<path class="st8" d="M500.99,328.59c-10.73,2.77-10.06,16.89-12.24,25.97c-34.67-8.7-43.53-57.01-16.53-72.73
						C469.33,300.06,480.7,320.04,500.99,328.59z"/>
					<path class="st8" d="M507.04,328.59c10.73,2.77,10.42,15.4,12.6,24.48c34.67-8.7,43.42-59.03,16.42-74.75
						C538.96,296.56,527.34,320.04,507.04,328.59z"/>
				</g>
			</g>
			<g>
				<path class="st11" d="M514.6,274.46c0.58-0.25,1.15-0.51,1.72-0.78c6.05-2.87,11.68-6.57,17.15-10.43
					c5.13-3.61,10.22-7.46,13.95-12.5c5.68-7.66,7.74-17.44,8.38-26.95c0.92-13.55,0.37-27.16,0.96-40.7
					c0.31-7.12-1.32-14.32-4.7-20.59c-4.34-8.04-11.56-14.48-20.04-17.89c-7.37-2.96-15.45-3.64-23.39-3.73
					c-7.37-0.08-14.8,0.32-21.93,2.2c-7.12,1.89-13.96,5.34-19.02,10.69c-8.24,8.7-10.74,21.01-11.77,32.55
					c-0.46,5.13-1.97,10.1-1.8,15.24c0.24,7.31-0.07,14.63,0.28,21.93c0.45,9.41,2.3,19.15,7.96,26.68
					c5.13,6.84,12.84,11.17,19.68,16.31c5.78,4.35,11.49,9.58,18.66,10.57C505.43,277.72,510.19,276.38,514.6,274.46z"/>
				<g>
					<path class="st6" d="M514.81,179.41c-3.1-0.88-6.08-2.17-8.83-3.9c-4.53-2.85-11.38-7.52-12.86-13.09
						c1.23,4.63,2.62,9.54,6.19,12.74c-9.55-0.9-18.06-8.56-19.97-17.96c-1.26,10.5-9.98,20.01-20.15,22.9
						c3.4,10.95,0.2,23.78-7.11,32.44c-10.06-9.47-16.02-23.15-16.12-36.97c-0.1-13.82,5.66-27.58,15.57-37.2
						c-2.97-0.04-6.11-0.14-8.61-1.73c-2.5-1.59-3.93-5.27-2.13-7.62c1.43-1.86,4.26-2.12,6.43-1.22c2.17,0.9,3.83,2.67,5.41,4.4
						c-0.91-5.67-0.33-11.57,1.68-16.95c0.82-2.19,2.57-4.67,4.85-4.19c1.82,0.38,2.69,2.44,3.18,4.24
						c1.43,5.26,2.13,10.72,2.06,16.18c5.72-12.96,20.41-20.32,34.58-20.6s27.81,5.4,40.06,12.53c5.04,2.93,10,6.16,15.6,7.8
						c5.59,1.64,12.08,1.46,16.73-2.05c2.37-1.79,4.69-4.52,7.61-4c2.58,0.46,3.98,3.28,4.6,5.84c1.95,8.04,0.11,16.92-4.89,23.51
						c3.91,0.71,8.17-1.19,10.25-4.58c0.65,8.56-3.58,17.32-10.69,22.13c0.36,9.37-1.89,18.84-8.23,26.12
						c-3.91,4.5-8.52,8.48-11.51,13.64c-6.29-2.59-10.32-9.04-11.8-15.69c-1.47-6.64-0.78-13.55-0.09-20.32
						c-6.62,2.98-13.77,4.94-21.03,5.02C521.96,180.86,518.31,180.4,514.81,179.41z"/>
					<g>
						<path class="st12" d="M453.36,132.7c9.19,3.54,15.18,13.94,13.63,23.67c-1.55,9.72-10.48,17.75-20.31,18.26
							c2.93,3.67,4.23,8.59,3.5,13.23c-0.73,4.64-3.48,8.92-7.4,11.52"/>
						<path class="st12" d="M464.39,132.16c12.57,12.92,28.59,22.45,45.94,27.32s35.99,5.08,53.45,0.59
							c5.32-1.37,10.7-3.26,14.71-7.02"/>
						<path class="st12" d="M476.97,117.14c0.86,4.93,3.54,9.38,6.7,13.26c9.94,12.19,25.36,19.73,41.09,20.1
							c15.72,0.37,31.48-6.44,41.98-18.15"/>
						<path class="st12" d="M501.77,111.42c4.33,7.69,11.44,13.76,19.71,16.83c8.27,3.07,17.63,3.1,25.92,0.09"/>
						<path class="st12" d="M577.03,172.9c-6.09,1.56-11.42,5.89-14.2,11.53c-2.78,5.64-2.96,12.5-0.48,18.28"/>
						<path class="st12" d="M437.14,163.88c5.26,1.84,11.69-0.76,14.2-5.73c2.51-4.97,0.79-11.69-3.81-14.83"/>
					</g>
				</g>
				<g>
					<path class="st11" d="M554.38,207.97c0.27-3.04,0.9-6.12,2.55-8.69c1.65-2.56,4.49-4.52,7.53-4.45
						c3.92,0.09,7.08,3.39,8.73,6.94c1.58,3.4,2.21,7.23,1.81,10.96c-0.82,7.62-5.71,14.09-10.43,20.13
						c-1.43,1.84-2.99,3.77-5.19,4.55c-2.2,0.78-5.18-0.19-5.66-2.47"/>
					<g>
						<g>
							<path class="st10" d="M561.66,207.92c-3.05,5.02-3.19,11.67-0.36,16.81"/>
							<path class="st10" d="M560.04,217.83c3.91-2.01,6.86-5.79,7.86-10.07"/>
						</g>
					</g>
				</g>
				<g>
					<path class="st11" d="M454.79,208.88c-0.6-2.99-1.57-5.99-3.49-8.35c-1.92-2.37-4.96-4-7.98-3.6
						c-3.89,0.52-6.66,4.15-7.92,7.86c-1.2,3.55-1.4,7.43-0.59,11.09c1.66,7.48,7.23,13.37,12.58,18.85
						c1.63,1.67,3.39,3.41,5.66,3.95c2.27,0.53,5.13-0.76,5.36-3.08"/>
					<g>
						<g>
							<path class="st10" d="M447.54,209.63c3.58,4.65,4.46,11.25,2.21,16.67"/>
							<path class="st10" d="M450.25,219.31c-4.11-1.57-7.46-5-8.92-9.15"/>
						</g>
					</g>
				</g>
				<g>
					<g>
						<path class="st10" d="M518.41,194.57c3.13-2.83,7.39-4.35,11.6-4.14c4.21,0.21,8.31,2.14,11.14,5.26"/>
						<path class="st6" d="M521.62,208c0.3,1.37,1.15,2.8,2.53,3.07c0.83,0.16,1.7-0.15,2.36-0.68c0.66-0.53,1.13-1.26,1.5-2.02
							c0.67-1.37,1.06-2.92,0.78-4.42c-0.37-1.97-2.73-4.46-4.9-3.26C521.7,201.9,521.16,205.86,521.62,208z"/>
					</g>
					<g>
						<path class="st10" d="M468.36,194.93c3.47-3.02,8.56-4.54,13.41-4c4.85,0.54,9.34,3.14,11.84,6.83"/>
						<path class="st6" d="M487.13,208.44c-0.3,1.37-1.15,2.8-2.53,3.07c-0.83,0.16-1.7-0.15-2.36-0.68
							c-0.66-0.53-1.13-1.26-1.5-2.02c-0.67-1.37-1.06-2.92-0.78-4.42c0.37-1.97,2.73-4.46,4.9-3.26
							C487.06,202.34,487.6,206.3,487.13,208.44z"/>
					</g>
					<path class="st13" d="M472.02,243.63c1.78,0.62,3.86,0.62,5.47-0.36c1.63-0.99,2.57-2.84,3.07-4.68
						c0.82-3.09,0.53-6.63-1.48-9.11c-2.06-2.55-7.05-3.84-9.78-1.58c-2.94,2.43-3.89,7.68-2.37,11.03
						C467.91,241.08,469.78,242.85,472.02,243.63z"/>
					<path class="st13" d="M539.1,245.9c-1.78,0.62-3.86,0.62-5.47-0.36c-1.63-0.99-2.57-2.84-3.07-4.68
						c-0.82-3.09-0.53-6.63,1.48-9.11c2.06-2.55,7.05-3.84,9.78-1.58c2.93,2.43,3.89,7.68,2.37,11.03
						C543.21,243.35,541.34,245.11,539.1,245.9z"/>
					<path class="st10" d="M510.88,196.83c-1.02,3.96-2.05,7.98-1.92,12.07c0.14,4.09,1.61,8.31,4.79,10.88
						c0.67,0.54,1.47,1.1,1.59,1.95c0.14,0.97-0.68,1.8-1.51,2.33c-2.09,1.35-4.69,1.89-7.14,1.5c-2.46-0.39-4.75-1.72-6.32-3.66"/>
					<path class="st4" d="M508.04,241.46c5.5-0.19,11.09-2.56,14.33-7.02c1.17,7.87-2.85,15.37-9.47,18.23
						c-7.15,3.08-14.98-0.26-18.62-4.46c0,0-1.49-1.72-5.52-12.95l0,0C494.73,237.97,500.88,242.19,508.04,241.46z"/>
				</g>
			</g>
			<g>
				<g>
					<path class="st11" d="M304.72,491.64c-1.33,34.64,39.07,42.08,66.3,38.19c48.28-3.28,96.32-9.38,144.33-15.47
						c0.21-7.5-0.28-16.67,2.05-23.86c2.31-4.53,3-14.38,3.89-18.81c-43.81,2.39-86.04-12.74-129.14-14.93
						c20.63-35.76,45.26-78.44,26.58-120.13c-4.77-10.35-14.5-19.83-25.87-19.01C359.17,322.05,303.51,457.9,304.72,491.64z"/>
					<g>
						<g>
							<path class="st14" d="M437,488.72c23.13-1.49,27.97,4.19,30.92,22.74c2.94,18.55,0.08,37.46-0.32,56.24
								c-0.41,18.78,2.13,38.78,13.96,53.36c17.89,22.03,53.24,24.09,77.39,9.19c24.15-14.9,37.85-42.84,42.18-70.88
								c4.32-28.05,0.49-56.63-3.34-84.75c-3.64-26.69-7.28-53.38-10.91-80.07c-1.75-12.85-3.5-25.92-1.44-38.72
								c0.9-5.6,5.74-22.42,19.76-32.02c19.09-13.08,36.48-0.22,52.51-8.86c11.2-6.03,22.95-23.31,20.45-76.09"/>
							<path class="st15" d="M437,488.72c25.36-0.62,27.97,4.19,30.92,22.74c2.94,18.55,0.08,37.46-0.32,56.24
								c-0.41,18.78,2.13,38.78,13.96,53.36c17.89,22.03,53.24,24.09,77.39,9.19c24.15-14.9,37.85-42.84,42.18-70.88
								c4.32-28.05,0.49-56.63-3.34-84.75c-3.64-26.69-7.28-53.38-10.91-80.07c-1.75-12.85-3.5-25.92-1.44-38.72
								c0.9-5.6,5.74-22.42,19.76-32.02c19.09-13.08,36.48-0.22,52.51-8.86c11.2-6.03,22.95-23.31,20.45-76.09"/>
						</g>
						<g>
							<polyline class="st6" points="419.16,490.62 407.26,489.38 407.26,488.35 419.16,486.82 							"/>
							<polygon class="st3" points="438.59,482.61 438.59,494.84 418.5,493.68 418.5,484.75 							"/>
						</g>
						<g>
							<rect x="444.87" y="478.93" class="st8" width="8.68" height="21.45"/>
							<g>
								<circle class="st4" cx="447.85" cy="481.73" r="1.18"/>
								<path class="st4" d="M452.25,485.89c0,0.65-0.53,1.18-1.18,1.18c-0.65,0-1.18-0.53-1.18-1.18c0-0.65,0.53-1.18,1.18-1.18
									C451.72,484.71,452.25,485.24,452.25,485.89z"/>
								<circle class="st4" cx="447.85" cy="489.54" r="1.18"/>
								<circle class="st4" cx="447.85" cy="496.58" r="1.18"/>
								<path class="st4" d="M452.25,493.08c0,0.65-0.53,1.18-1.18,1.18c-0.65,0-1.18-0.53-1.18-1.18c0-0.65,0.53-1.18,1.18-1.18
									C451.72,491.9,452.25,492.43,452.25,493.08z"/>
							</g>
						</g>
						<g>
							<rect x="404.31" y="478.43" class="st8" width="8.68" height="21.45"/>
							<g>
								<path class="st4" d="M408.36,481.34c0,0.65-0.53,1.18-1.18,1.18c-0.65,0-1.18-0.53-1.18-1.18c0-0.65,0.53-1.18,1.18-1.18
									C407.83,480.17,408.36,480.69,408.36,481.34z"/>
								<path class="st4" d="M411.58,485.5c0,0.65-0.53,1.18-1.18,1.18c-0.65,0-1.18-0.53-1.18-1.18c0-0.65,0.53-1.18,1.18-1.18
									C411.05,484.32,411.58,484.85,411.58,485.5z"/>
								<path class="st4" d="M408.36,489.16c0,0.65-0.53,1.18-1.18,1.18c-0.65,0-1.18-0.53-1.18-1.18c0-0.65,0.53-1.18,1.18-1.18
									C407.83,487.98,408.36,488.51,408.36,489.16z"/>
								<path class="st4" d="M408.36,496.19c0,0.65-0.53,1.18-1.18,1.18c-0.65,0-1.18-0.53-1.18-1.18c0-0.65,0.53-1.18,1.18-1.18
									C407.83,495.01,408.36,495.54,408.36,496.19z"/>
								<circle class="st4" cx="410.4" cy="492.69" r="1.18"/>
							</g>
						</g>
					</g>
				</g>
				<g>
					<path class="st8" d="M413.33,417.43c18.55-28.76,23.13-74.16-1.54-100.47c-13.18-7.52-30.65-1.14-38.24,11.47
						c-18.31,22.48-32.54,48.27-42.83,75.32c-17.16-0.05-19.74,17.97-13.28,29.93c-11.49,5.89-15.73,21.4-8.17,32.1
						c18.82-9.42,64.67-19.95,83.28-9.3c9.01-2.45,24.19-15.61,13.1-23.43C415.81,435.09,423.89,423.45,413.33,417.43z"/>
					<g>
						<g>
							<path class="st10" d="M317.89,432.45c14.35-4.75,28.96-9.26,44.04-10.25c15.08-0.99,30.87,1.83,43.16,10.63"/>
							<path class="st10" d="M413.84,417.02c-9.28-8.3-20.7-14.18-32.85-16.9c-12.14-2.72-24.98-2.29-36.92,1.25"/>
							<path class="st10" d="M331.72,413.56c9.92-2.52,20.03-4.55,30.26-4.93c10.23-0.38,20.63,0.93,30.09,4.87
								c0.83,0.35,1.69,0.73,2.29,1.41c0.6,0.68,0.87,1.73,0.4,2.5c-0.54,0.89-1.74,1.05-2.77,1.07
								c-7.56,0.11-14.85-2.78-22.39-3.38c-7.35-0.59-14.68,1.02-21.84,2.8"/>
							<path class="st10" d="M352.03,430.8c-3.02,2.32-6.78,3.42-10.51,4.2c-3.72,0.78-7.53,1.3-11.09,2.64
								c-3.56,1.34-6.94,3.65-8.61,7.07c-0.36,0.73-0.63,1.58-0.33,2.33c0.36,0.89,1.39,1.3,2.33,1.47
								c3.76,0.71,7.57-0.69,11.17-1.99c8.03-2.92,16.23-5.53,24.69-6.76c8.46-1.23,17.23-1.05,25.38,1.52"/>
						</g>
					</g>
				</g>
				<g>
					<path class="st11" d="M553.02,457.9c5.51-1.63,14.63,0.96,12.91,8c7.37-1.5,11.71,8.75,5.51,13c8.4,0.74,10.15,13,2.31,16.07
						c24.31,28.91-50.09,20.96-63.59,19.85c3.46-11.43,2.51-31.91-2.34-43.17C522.85,467.63,537.22,459.73,553.02,457.9z"/>
					<path class="st10" d="M511.86,491.43c-2.34,1.25-5.11,1.69-7.73,1.22"/>
				</g>
				<g>
					<g>
						<path class="st2" d="M535.21,487.33c1.88-2.15,1.13-6.22,3.95-7.63c-2.54-0.78-3.45-4.22-1.64-6.16
							c-2.11-0.14-3.86-2.03-4.21-4.12c-0.21-6.02,4.91-9.12,10.58-10.51c-1.9-0.44-3.86-0.69-5.89-0.69
							c-11.58,0-21.4,7.51-25.04,17.97C516.33,484.45,527.17,492.46,535.21,487.33z"/>
						<path class="st3" d="M543.88,458.91c-5.66,1.39-10.79,4.49-10.58,10.51c0.35,2.09,2.1,3.98,4.21,4.12
							c-1.81,1.94-0.9,5.38,1.64,6.16c-2.82,1.41-2.07,5.48-3.95,7.63c-8.04,5.13-18.87-2.88-22.26-11.14
							c-0.98,2.8-1.53,5.8-1.53,8.94c0,14.86,11.9,26.91,26.58,26.91c14.68,0,26.58-12.05,26.58-26.91
							C564.57,472.32,555.72,461.62,543.88,458.91z"/>
					</g>
					<g>
						<path class="st11" d="M538.84,461c-8.41,5.38-0.08,13.47,7.44,11.51c-11.17,3.32-1.71,13.18,6.38,11.38
							c-7.48,0.39-13.51,11.37-2.99,11.93c-2.74,0.44-5.46,1.34-6.56,4.16c-0.85,2.17-0.31,4.81,1.31,6.47
							c1.91,1.96,4.87,2.41,7.61,2.45c3.62,0.06,7.22-0.41,10.83-0.62c3.61-0.21,7.29-0.15,10.75,0.91
							c0.57,0.17,1.27,0.34,1.68-0.08c0.23-0.24,0.28-0.61,0.3-0.95c0.21-3.37-0.97-6.65-2.26-9.77c-0.89-2.15-1.83-4.29-2.44-6.54
							c-0.52-1.93-0.56-3.88-0.87-5.84c-0.55-3.53-1.59-7-3.05-10.26c-2.71-6.05-7.08-11.91-13.22-14.79
							C548.97,458.71,543.62,458.86,538.84,461z"/>
						<path class="st10" d="M573.33,495.2c-7.48-0.19-14.97,0.11-22.41,0.9"/>
						<path class="st10" d="M571.67,478.94c-7-0.21-14.04,1.17-20.45,4.01"/>
						<path class="st10" d="M565.54,466.03c-7.09,0.89-13.99,3.21-20.18,6.78"/>
						<path class="st10" d="M549.56,508.03c5.89,2.56,13.35,0.66,19.57-0.28"/>
					</g>
					<g>
						<path class="st11" d="M505.37,501.77c4.77-5.24,12.47-7.62,19.36-5.99c2.05,0.48,4.12,1.43,6.19,1.71
							c2.54,0.34,5.27,0.17,7.84,0.25c-0.85-5.65,0.47-11.6,3.63-16.36c0.43-0.65,0.92-1.3,1.62-1.66c1.07-0.54,2.35-0.28,3.51,0
							c0.88,0.21,1.84,0.47,2.38,1.2c0.42,0.57,0.5,1.31,0.54,2.02c0.31,5.74-1.29,11.48-0.82,17.21c0.16,2,0.58,4.03,0.18,6
							c-0.34,1.68-1.24,3.18-2.12,4.64c-1.12,1.85-2.13,4.26-3.75,5.68c-1.64,1.44-3.25,2.89-5.45,3.36
							c-2.23,0.48-4.53-0.13-6.74-0.67c-7.91-1.96-15.99-3.23-24.11-3.79"/>
						<path class="st10" d="M542.36,480.14c1.35-0.57,2.78-1.08,4.24-1.03s2.99,0.78,3.6,2.12c0.38,0.83,0.36,1.79,0.34,2.7
							c-0.15,5.62-0.29,11.23-0.44,16.85c-0.06,2.14-0.12,4.3-0.68,6.37c-1.01,3.65-3.51,6.68-5.94,9.58"/>
					</g>
				</g>
			</g>
		</g>
		<g>
			<g>
				<g>
					<path class="st3" d="M805.41,105.41h-61.56c-2.21,0-4-1.79-4-4V84.9c0-2.21,1.79-4,4-4h61.56c2.21,0,4,1.79,4,4v16.51
						C809.41,103.62,807.62,105.41,805.41,105.41z"/>
					<path class="st3" d="M762.37,123.93V62.37c0-2.21,1.79-4,4-4h16.51c2.21,0,4,1.79,4,4v61.56c0,2.21-1.79,4-4,4h-16.51
						C764.16,127.93,762.37,126.14,762.37,123.93z"/>
				</g>
			</g>
			<g>
				<path class="st4" d="M830.22,182.99H788.6c-1.49,0-2.71-1.21-2.71-2.71v-11.16c0-1.49,1.21-2.71,2.71-2.71h41.63
					c1.49,0,2.71,1.21,2.71,2.71v11.16C832.93,181.78,831.72,182.99,830.22,182.99z"/>
				<path class="st4" d="M801.12,195.52v-41.63c0-1.49,1.21-2.71,2.71-2.71h11.16c1.49,0,2.71,1.21,2.71,2.71v41.63
					c0,1.49-1.21,2.71-2.71,2.71h-11.16C802.33,198.22,801.12,197.01,801.12,195.52z"/>
			</g>
			<g>
				<g>
					<path class="st2" d="M796.68,234.6h-28.15c-1.01,0-1.83-0.82-1.83-1.83v-7.55c0-1.01,0.82-1.83,1.83-1.83h28.15
						c1.01,0,1.83,0.82,1.83,1.83v7.55C798.51,233.79,797.7,234.6,796.68,234.6z"/>
					<path class="st2" d="M777.01,243.07v-28.15c0-1.01,0.82-1.83,1.83-1.83h7.55c1.01,0,1.83,0.82,1.83,1.83v28.15
						c0,1.01-0.82,1.83-1.83,1.83h-7.55C777.83,244.9,777.01,244.08,777.01,243.07z"/>
				</g>
			</g>
		</g>
		<g>
			<path class="st3" d="M234.28,530.61c-10.83-0.87-23.19,9-24.08,20.08c-1.04,12.91,4.65,25.78,13.12,35.25
				c8.45,9.46,19.38,16.28,30.16,22.97c2.51,1.56,5.28,3.18,8.21,2.84c2.46-0.28,4.54-1.9,6.42-3.51
				c7.31-6.25,13.87-13.38,19.48-21.19c4.3-5.98,8.08-12.43,10.21-19.47c2.13-7.05,2.53-14.76,0.17-21.73
				c-2.37-6.97-7.71-13.08-14.68-15.48c-13.47-4.63-23.59,6.06-28.18,17.44C250.48,539.47,244.73,531.45,234.28,530.61z"/>
			<path class="st4" d="M237.99,505.23c-4.73-2.49-9.48-4.99-13.74-8.21c-4.26-3.22-8.04-7.23-10.28-12.07
				c-2.24-4.85-2.81-10.61-0.81-15.56c2-4.95,6.81-8.85,12.14-9.08c5.34-0.23,10.74,3.73,11.5,9.02c2.73-3.91,5.37-8.54,9.45-11
				c4.08-2.46,9.34-3.38,13.65-1.35c4.13,1.95,6.75,6.34,7.41,10.86c0.66,4.52-0.42,9.14-2.13,13.37
				C260.17,493.64,250.79,501.25,237.99,505.23z"/>
			<path class="st2" d="M253.21,409.33c-0.69-2.12-1.71-4.18-3.27-5.78c-1.56-1.6-3.71-2.7-5.94-2.69c-4.09,0.02-7.47,3.93-7.8,8.01
				c-0.33,4.08,1.83,8.05,4.8,10.87c2.97,2.82,6.7,4.68,10.36,6.51c5.62-2.5,10.34-6.07,14.03-10.99c1.12-1.49,2.13-3.09,2.65-4.88
				c0.51-1.79,0.48-3.79-0.42-5.42c-1.61-2.92-5.7-3.81-8.77-2.51C255.79,403.73,254.31,406.18,253.21,409.33z"/>
		</g>
	</g>
</g>
<g id="TEXTS">
</g>
</svg>
