<?xml version="1.0" encoding="utf-8"?>
<!-- Generator: Adobe Illustrator 25.2.1, SVG Export Plug-In . SVG Version: 6.00 Build 0)  -->
<svg version="1.1" id="Layer_1" xmlns="http://www.w3.org/2000/svg" xmlns:xlink="http://www.w3.org/1999/xlink" x="0px" y="0px"
	 viewBox="0 0 534 218.1" style="enable-background:new 0 0 534 218.1;" xml:space="preserve">
<style type="text/css">
	.st0{fill:#FFFFFF;}
</style>
<g>
	<g>
		<g>
			<path class="st0" d="M200.1,133.6c10.5,0,16.4,1.8,20.2,6.6c1.9,2.4,2.9,7,2.9,13.9v43.2c0,7-1,11.6-2.9,13.9
				c-3.9,4.8-9.7,6.6-20.2,6.6h-10.5c-4,0-7.3-2.8-7.3-6.3v-71.7c0-3.4,3.3-6.3,7.3-6.3H200.1z M199.4,146.1v59.2h2.1
				c3.7,0,4.6-1.3,4.6-5.7v-47.9c0-4.4-0.8-5.7-4.6-5.7H199.4z"/>
			<path class="st0" d="M241.4,209.4l8.2-64.2c1-7.6,6.7-11.9,14.8-11.9c8.3,0,14,4.4,15,11.9l8.6,63.6c0.1,0.6,0.1,1.4,0.1,2.5
				c0,3.9-3.5,6.8-8.3,6.8c-4.6,0-8-2.6-8.5-6.7l-1.1-10.4h-11.6l-1.2,10.9c-0.4,3.9-3.7,6.3-8,6.3c-4.6,0-8.2-2.6-8-6.7
				L241.4,209.4z M268.7,188.5l-4.3-38.8l-4.4,38.8H268.7z"/>
			<path class="st0" d="M375.2,211.7c0,3.8-3.7,6.4-8.3,6.4c-4.6,0-8.3-2.6-8.3-6.4v-56.1l-10.3,56.5c-0.7,3.7-3.5,5.9-7.8,5.9
				c-4,0-7.1-2.5-7.8-6.3l-10-56.2v56.1c0,3.8-3.7,6.4-8.3,6.4c-4.6,0-8.3-2.6-8.3-6.4v-66.7c0-6.7,6-11.8,14.3-11.8
				c7.9,0,12.8,4.7,14,11.8l6.1,35.3l6.4-35.3c1.2-7.1,6.1-11.8,13.7-11.8c8.5,0,14.6,5.1,14.6,11.8V211.7z"/>
			<path class="st0" d="M400.8,133.3c4.3,0,7.3,2.2,8,5.7l5.3,25.1l5.1-25.5c0.7-3.5,3.2-5.3,7.5-5.3c4.4,0,7.8,2.7,7.8,6.4
				c0,0.5,0,1.1-0.3,1.9L422.6,186v25.4c0,3.9-3.7,6.7-8.6,6.7c-4.9,0-8.6-2.8-8.6-6.7v-24.7l-12.3-44.6c-0.4-1.4-0.4-2.2-0.4-2.4
				C392.6,136,396,133.3,400.8,133.3z"/>
		</g>
	</g>
	<g>
		<g>
			<polygon class="st0" points="259,58.5 266.8,58.5 266.8,65.2 259,65.2 259,73 252.3,73 252.3,65.2 244.5,65.2 244.5,58.5 
				252.3,58.5 252.3,50.7 259,50.7 			"/>
			<path class="st0" d="M251.1,0c-30.1,0-46.4,9.5-46.4,59.7v23.2h-71.6c-9.6,0-16-4.1-18-6.3l-4.4-4.7l-2.9,5.8
				c-3.6,7.2-5.6,17.9-0.3,26.4c3.2,5.1,10.1,11.2,25.3,11.3c-3.2,12.5-20.2,19.8-46.8,19.8c-48.1,0-48.1-24.8-48.1-33
				c0-17,8.9-28.6,13.6-32.4l2-1.6l-0.3-2.5c-1-8.4-7.4-16.8-19.5-16.8C28,49,0,51.5,0,100.1c0,44.9,28.1,67.7,83.5,67.7h4.9
				c69.8,0,81.3-35.7,82.8-52.3h48c7.3,0,14.2-1.8,18.8-3.9c6,2.9,12.6,4.3,20.7,4.3c21.2,0,46.4-9.9,46.4-57.3
				C305.1,6.1,274.3,0,251.1,0z M279.4,74.9c-2.1,8.1-7.2,13.4-15.1,15.9c-7,2.2-13.8,1.8-20.4-1.2c-6.8-3.2-10.7-8.7-12.3-16
				c-1.4-6.5-0.6-12.9,1.2-19.3c1.7-6,4.9-11.4,8.1-16.7c4.7-7.7,9.4-15.4,14.2-23c0.2-0.3,0.4-0.5,0.6-0.9c0.4,0.6,0.6,1.1,0.9,1.6
				c5.4,8.8,10.8,17.5,16.2,26.4c3.1,5,5.4,10.4,6.6,16.2C280.6,63.5,280.9,69.2,279.4,74.9z"/>
		</g>
		<g>
			<path class="st0" d="M442.2,55.7c0,20.7-9.8,59.7-46.9,59.7h-34.2c-8.5,0-13.8-6.2-13.8-16.3c0-10,5.3-16.3,13.8-16.3h13.7
				c19.8,0,29.4-8,29.4-24.6c0-15.3-8.3-24.9-13.5-28.4c-0.3,0.1-0.7,0.3-1.2,0.8c-1.1,1-3.5,4.1-3.5,12.2v3l-2.8,1.1
				c-3,1.2-10.1,3.4-15.6,3.4c-9.7,0-20.2-6.5-20.2-20.9C347.3,5.4,377.9,0,388.6,0C407.8,0,442.2,18.6,442.2,55.7z"/>
		</g>
		<g>
			<g>
				<path class="st0" d="M78.8,207.9c-0.8,2.4-2.1,4.4-3.9,5.9c-1.8,1.6-4.1,2.8-6.8,3.5c-1.9,0.5-3.9,0.8-5.8,0.8
					c-2.6,0-5.2-0.5-7.8-1.5c-4.6-1.7-7.6-5-8.8-9.5c-0.9-3.3-0.6-6.9,0.7-10.8c1.1-3.2,3-5.9,5.1-8.8c2.8-3.7,5.5-7.4,8.3-11.1
					l2.5-3.3l2.9,3.9c3.1,4.1,6.2,8.3,9.2,12.4c2.2,2.9,3.6,5.8,4.3,8.7C79.8,201.7,79.7,204.9,78.8,207.9z"/>
			</g>
			<g>
				<path class="st0" d="M121.7,207.9c-0.8,2.4-2.1,4.4-3.9,5.9c-1.8,1.6-4.1,2.8-6.8,3.5c-1.9,0.5-3.9,0.8-5.8,0.8
					c-2.6,0-5.2-0.5-7.8-1.5c-4.6-1.7-7.6-5-8.8-9.5c-0.9-3.3-0.6-6.9,0.7-10.8c1.1-3.2,3-5.9,5.1-8.8c2.8-3.7,5.5-7.4,8.3-11.1
					l2.5-3.3l2.9,3.9c3.1,4.1,6.2,8.3,9.2,12.4c2.2,2.9,3.6,5.8,4.3,8.7C122.7,201.7,122.7,204.9,121.7,207.9z"/>
			</g>
		</g>
	</g>
</g>
</svg>
