<?xml version="1.0" encoding="utf-8"?>
<!-- Generator: Adobe Illustrator 24.3.0, SVG Export Plug-In . SVG Version: 6.00 Build 0)  -->
<svg version="1.1" id="Layer_1" xmlns="http://www.w3.org/2000/svg" xmlns:xlink="http://www.w3.org/1999/xlink" x="0px" y="0px"
	 viewBox="0 0 588.7 516.8" style="enable-background:new 0 0 588.7 516.8;" xml:space="preserve">
<style type="text/css">
	.st0{display:none;}
	.st1{display:inline;fill:#E30613;}
	.st2{display:inline;}
	.st3{display:inline;clip-path:url(#SVGID_2_);fill:#FFFFFF;}
	.st4{display:inline;clip-path:url(#SVGID_2_);fill-rule:evenodd;clip-rule:evenodd;fill:#FFFFFF;}
	.st5{fill:#BB1B2C;}
	.st6{fill-rule:evenodd;clip-rule:evenodd;fill:#BB1B2C;}
</style>
<g id="Layer_2" class="st0">
	<rect x="-21.4" y="-48" class="st1" width="631.5" height="631.5"/>
</g>
<g class="st0">
	<defs>
		<rect id="SVGID_1_" x="-386.4" y="-119.5" width="1366" height="768"/>
	</defs>
	<use xlink:href="#SVGID_1_"  style="display:inline;overflow:visible;fill:#FFFFFF;"/>
	<clipPath id="SVGID_2_" class="st2">
		<use xlink:href="#SVGID_1_"  style="overflow:visible;"/>
	</clipPath>
	<path class="st3" d="M-332.7-110.1c-2.5,0.7-4.8,2.5-6.3,5c-1.3,2.3-1.9,5.4-1.3,9c0.3,1.8,0.9,3.7,1.8,5.7h-4.4
		c-0.7-1.7-1.1-3.5-1.4-5.1c-0.7-4.6,0.1-8.5,1.8-11.6c2-3.6,5.2-6,8.7-7c3.2-0.9,6.7-0.6,9.8,0.6c2.3,0.9,4.3,2.2,6,4
		c1.7-1.7,3.7-3.1,6-4c3.1-1.2,6.6-1.5,9.8-0.6c3.6,1,6.7,3.4,8.7,7c1.7,3.1,2.5,7,1.8,11.6c-0.3,1.6-0.7,3.4-1.4,5.1h-4.4
		c0.9-2,1.5-3.9,1.8-5.7c0.6-3.6,0-6.6-1.3-9c-1.4-2.6-3.7-4.3-6.3-5c-7-2-10.4,2.5-14.7,6.7C-322.2-107.6-325.6-112-332.7-110.1"/>
	<path class="st4" d="M-341.3-108.1c0.3,18.3,7.2,12.2,10.1,20.6c0.4,1.1,0.2,2.2,0.6,3c1.2,2.5,4.4,6,4.7,7.8
		c0.3,2.6-1.6,1.4-1.6,1.4s-4.2-3.9-4.6-4.4c-0.4-0.5-1.7-2.6-1.8-3.2c-0.1,0.6,0.6,2.2,1.5,3.6c0.3,0.4,0.8,0.8,1.2,1.2
		c2,1.9,3.1,3.4,4.2,3.7c1.2,0.3,1.4-0.9,1.4-0.9s2.5,3,4.7,3.9c2.3,0.9,2.6,2.6,2.1,3.2c-0.2,0.3-2-0.7-2.6-0.7
		c-2.7-0.4-5.7-2.7-7.4-3.7c-2.2-1.3-7.4-4.1-9.3-7.4C-343.3-89.2-348.1-98.6-341.3-108.1"/>
	<path class="st4" d="M-294.7-108.1c1.8,20.7-9.7,13.1-10.1,20.6c-0.1,1.1-0.2,2.2-0.6,3c-1.2,2.5-4.4,6-4.7,7.8
		c-0.3,2.6,1.6,1.4,1.6,1.4s4.2-3.9,4.6-4.4c0.4-0.5,1.7-2.6,1.8-3.2c0.1,0.6-0.6,2.2-1.5,3.6c-0.3,0.4-0.8,0.8-1.2,1.2
		c-2,1.9-3.1,3.4-4.2,3.7c-1.2,0.3-1.4-0.9-1.4-0.9s-2.5,3-4.7,3.9c-2.3,0.9-2.6,2.6-2.1,3.2c0.2,0.3,2-0.7,2.6-0.7
		c2.7-0.4,5.7-2.7,7.4-3.7c2.2-1.3,7.4-4.1,9.3-7.4C-292.7-89.2-287.9-98.6-294.7-108.1"/>
	<path class="st3" d="M-317.7-101.5c-0.1-0.2-0.5-0.2-0.6,0c-3.6,9.4-8.3,10.5-8.3,16.5c0,4.8,3.6,8.7,8.5,8.8h0.1
		c4.9,0,8.5-3.9,8.5-8.8C-309.4-91-314.1-92.1-317.7-101.5 M-325.1-85.4c0-0.4,0.1-0.7,0.1-1c0.1-0.4,0.5-0.7,0.8-0.6
		c0.4,0.1,0.7,0.5,0.6,0.8c0,0.3-0.1,0.6-0.1,0.8c0,0.4-0.3,0.7-0.7,0.7h0C-324.8-84.7-325.1-85-325.1-85.4 M-318-77.7L-318-77.7
		C-318-77.7-318-77.7-318-77.7C-318-77.7-318-77.7-318-77.7L-318-77.7c-2,0-3.8-0.8-5.1-2.2c-0.9-0.9-1.5-2.1-1.8-3.3
		c-0.1-0.4,0.1-0.8,0.5-0.9c0.4-0.1,0.8,0.1,0.9,0.5c0.2,1,0.7,1.9,1.4,2.6c1,1.1,2.5,1.7,4,1.7c0,0,0,0,0,0c0,0,0,0,0,0
		c0.4,0,0.7,0.3,0.7,0.7C-317.2-78-317.6-77.7-318-77.7"/>
</g>
<path class="st5" d="M131.5,49.1c-28.1,7.9-53.5,27.3-69.4,55.8c-14.5,26.1-21,59.8-14.8,99.8c3.2,20.1,9.9,41.6,19.5,63.6H18.4
	C11.1,249,5.8,229.9,2.9,211.6C-5,161,3.8,117.4,22.8,83.1c21.9-39.4,57.3-66.3,96.7-77.3c35.4-9.9,73.9-6.7,108.3,6.6
	c25.1,9.7,48.2,24.8,66.6,44.2c18.4-19.3,41.5-34.5,66.5-44.2c34.4-13.3,72.9-16.6,108.3-6.6c39.4,11,74.8,37.9,96.7,77.3
	c19,34.3,27.8,77.9,19.9,128.5c-2.9,18.3-8.1,37.3-15.4,56.7H522c9.6-21.9,16.3-43.4,19.5-63.6c6.2-40-0.3-73.8-14.8-99.8
	c-15.9-28.6-41.3-48-69.4-55.8c-78-21.8-115.8,27.9-162.9,74.7C247.2,77,209.5,27.3,131.5,49.1"/>
<path class="st6" d="M36,70.8c3.8,203.4,79.4,135.7,112.2,229c4.3,12,1.8,24,6.7,33.7c13.6,27.4,49.2,67,51.8,87
	c3.6,28.9-18.2,15.7-18.2,15.7s-46.6-42.9-51.2-48.4c-4.6-5.5-18.9-29.4-19.5-35.9c-1.5,6.3,6.5,23.9,16.5,40c3,4.8,8.6,9,13.8,13.9
	c22.5,21,34,37.6,47,41.3c12.9,3.7,15.8-9.7,15.8-9.7s27.8,33.6,51.9,43.2c25.3,10.1,29,28.5,23,35.6c-2.7,3.2-22.1-7.3-29-8.3
	c-30-4.2-63.7-30-82.6-41.3c-24-14.3-81.9-45.3-102.8-82.6C13.5,280.6-39.4,176.1,36,70.8"/>
<path class="st6" d="M552.7,70.8c20.1,229.5-107.2,145.2-112.2,229c-0.7,12.7-1.8,24-6.7,33.7c-13.7,27.4-49.3,67-51.8,87
	c-3.7,28.9,18.2,15.7,18.2,15.7s46.6-42.9,51.2-48.4c4.6-5.5,18.9-29.4,19.5-35.9c1.4,6.3-6.6,23.9-16.5,40c-3,4.8-8.6,9-13.8,13.9
	c-22.5,21-34,37.6-47,41.3c-12.9,3.7-15.8-9.7-15.8-9.7s-27.9,33.6-52,43.2c-25.2,10.1-28.9,28.5-23,35.6c2.6,3.2,22.1-7.3,29-8.3
	c29.9-4.2,63.7-30,82.6-41.3c24-14.3,81.9-45.3,102.8-82.6C575.2,280.6,628.2,176.1,552.7,70.8"/>
<path class="st5" d="M297.5,144.3c-1-2.7-5.2-2.7-6.2,0c-39.5,104.2-91.7,117.1-91.7,182.8c0,53.7,39.9,97,93.9,97.4h1.7
	c54.1-0.4,94-43.7,94-97.4C389.2,261.4,336.9,248.5,297.5,144.3 M215.1,322.9c0.2-4,0.6-7.9,1.2-11.6c0.8-4.4,5-7.4,9.4-6.6
	c4.4,0.8,7.3,5,6.6,9.4c-0.5,3-0.9,6.1-1,9.4c-0.2,4.4-3.8,7.8-8.1,7.8h-0.3C218.4,331.2,214.9,327.4,215.1,322.9 M294.4,409
	L294.4,409c-0.2,0-0.3,0-0.4,0c-0.1,0-0.2,0-0.3,0h-0.1c-21.7-0.2-41.6-8.6-56.1-23.9c-9.6-10.1-16.5-22.8-19.9-36.7
	c-1.1-4.4,1.6-8.7,6-9.8c4.4-1.1,8.7,1.6,9.8,6c2.8,11.2,8.2,21.3,15.9,29.4c11.4,12,27.2,18.7,44.5,18.9c0.1,0,0.2,0,0.2,0
	c0.1,0,0.2,0,0.3,0c4.5,0,8.2,3.6,8.2,8.1C302.5,405.4,298.9,409,294.4,409"/>
</svg>
