<?xml version="1.0" encoding="utf-8"?>
<!-- Generator: Adobe Illustrator 25.2.1, SVG Export Plug-In . SVG Version: 6.00 Build 0)  -->
<svg version="1.1" id="Layer_1" xmlns="http://www.w3.org/2000/svg" xmlns:xlink="http://www.w3.org/1999/xlink" x="0px" y="0px"
	 viewBox="0 0 539 438" style="enable-background:new 0 0 539 438;" xml:space="preserve">
<style type="text/css">
	.st0{fill:#EE9681;}
	.st1{fill:#BCE3F6;}
	.st2{fill:#517CC5;}
	.st3{fill:#DEF1F8;}
	.st4{fill:#EC6469;}
	.st5{fill:none;stroke:#EC6469;stroke-linecap:round;stroke-miterlimit:10;}
	.st6{fill:none;stroke:#DEF1F8;stroke-width:2;stroke-linecap:round;stroke-miterlimit:10;}
	.st7{fill:#E73555;}
	.st8{fill:#F0FAFF;}
	.st9{fill:#E76266;}
	.st10{fill:#EE4652;}
	.st11{fill:#2CA5C6;}
	.st12{fill:#292669;}
	.st13{fill:#1E1242;}
	.st14{fill:#90C8EE;}
	.st15{fill:#F9575C;}
	.st16{fill:#BB1A2C;}
	.st17{fill:#F8C6A3;}
	.st18{fill:#40BEDB;}
	.st19{fill:#2F256A;}
	.st20{clip-path:url(#SVGID_2_);fill:none;stroke:#EE9681;stroke-linecap:round;stroke-miterlimit:10;}
	.st21{fill:none;stroke:#EE9681;stroke-linecap:round;stroke-miterlimit:10;}
	.st22{fill:#FE6061;}
	.st23{fill:#ADD9EA;}
	.st24{clip-path:url(#SVGID_4_);fill:none;stroke:#EE9681;stroke-linecap:round;stroke-miterlimit:10;}
</style>
<g>
	<path id="XMLID_592_" class="st0" d="M122.29,82.54c10.74,3.52,14.76,45.5,21.75,53.46c6.99,7.92,27.66,22.37,27.66,22.37
		l-4.79,15.91c0,0-31.75-17.23-35.88-21.13c-4.13-3.9-14.68-30.82-14.68-30.82L122.29,82.54z"/>
	<path id="XMLID_590_" class="st0" d="M188.73,164.78c0.04,0.12,0.12,0.31,0.54,0.5c3.17,1.39,6.49,0.77,9.93,0.39
		c3.48-0.39,6.3-0.54,9.5-0.85c4.6-0.42,4.17,6.06,2.09,8.96c-2.97,4.13-8.19,6.26-13.02,7.46c-9.85,2.43-22.13-1.04-30.9-6.95
		c0,0,4.79-15.88,4.79-15.91c1.97,1.7,4.56,2.63,5.1,2.59c1.35-0.12,2.86-1,4.17-1.47L188.73,164.78z"/>
	<g id="XMLID_526_">
		<g id="XMLID_1116_">
			<g id="XMLID_1202_">
				<path id="XMLID_1213_" class="st1" d="M236.63,417.36L236.63,417.36c-1.35,0-2.43-1.08-2.43-2.43V51.13
					c0-1.35,1.08-2.43,2.43-2.43l0,0c1.35,0,2.43,1.08,2.43,2.43v363.76C239.06,416.28,237.98,417.36,236.63,417.36z"/>
				<path id="XMLID_1210_" class="st1" d="M197.54,69.52h76.79c1.35,0,2.43-1.08,2.43-2.43l0,0c0-1.35-1.08-2.43-2.43-2.43h-77.06
					L197.54,69.52z"/>
				<g id="XMLID_1208_">
					<path id="XMLID_1209_" class="st1" d="M281.48,415.55c-1.35,0-2.43-1.08-2.43-2.43v-2.94l-43.03-11.47
						c-1.31-0.35-2.09-1.7-1.74-3.01c0.35-1.31,1.7-2.09,3.01-1.74l44.85,11.94c1.08,0.27,1.82,1.27,1.82,2.36v4.83
						C283.95,414.46,282.83,415.55,281.48,415.55z"/>
				</g>
				<g id="XMLID_1206_">
					<path id="XMLID_1207_" class="st1" d="M191.78,415.55c-1.35,0-2.43-1.08-2.43-2.43v-4.83c0-1.12,0.73-2.09,1.82-2.36
						l44.85-11.97c1.31-0.35,2.67,0.42,3.01,1.74c0.35,1.31-0.42,2.67-1.74,3.01l-43.03,11.43v2.94
						C194.22,414.46,193.13,415.55,191.78,415.55z"/>
				</g>
				<circle id="XMLID_1205_" class="st2" cx="236.63" cy="419.25" r="6.88"/>
				<path id="XMLID_1204_" class="st2" d="M288.39,419.25c0,3.82-3.09,6.88-6.88,6.88c-3.82,0-6.88-3.09-6.88-6.88
					c0-3.79,3.09-6.88,6.88-6.88S288.39,415.43,288.39,419.25z"/>
				<path id="XMLID_1203_" class="st2" d="M184.64,419.25c0,3.82,3.09,6.88,6.88,6.88c3.79,0,6.88-3.09,6.88-6.88
					c0-3.79-3.09-6.88-6.88-6.88C187.73,412.38,184.64,415.43,184.64,419.25z"/>
			</g>
			<g id="XMLID_1117_">
				<path id="XMLID_1184_" class="st3" d="M212.68,133.37l0.46,2.55c0.12,0.62,0.7,1.04,1.35,0.97c0.93-0.12,1.82,0.42,1.93,1.35
					l1.27,9.08c0.12,0.85-0.46,1.66-1.31,1.82l-5.06,0.93c-0.85,0.15-1.66-0.39-1.85-1.24l-1.93-8.92
					c-0.19-0.89,0.39-1.74,1.27-1.93l0.46-0.08c0.66-0.12,1.08-0.73,0.97-1.39l-0.31-1.66c-0.15-0.89-1-1.43-1.93-1.2
					c-0.85,0.23-1.78,0.42-2.74,0.58c-0.77,0.15-1.31,0.77-1.27,1.55l0.46,13.87c0.15,1.47-0.85,2.36-2.2,2.36
					c-1.47,0-2.32-0.93-2.36-2.2l-0.46-13.37c-0.04-0.85-0.73-1.51-1.55-1.47c-0.5,0-1.04,0.04-1.55,0.04
					c-2.9,0-5.52-0.23-7.88-0.58c-0.5-0.08-1.12-0.19-1.74-0.31c-0.97-0.19-1.82,0.27-1.97,1.04c-0.12,0.77-0.23,1.43-0.23,1.43
					c-0.12,0.7,0.35,1.31,1,1.47c1,0.19,1.7,1.08,1.51,2.05l-1.93,9.66c-0.19,0.93-1.04,1.51-1.97,1.35l-5.45-0.89
					c-0.93-0.15-1.55-1-1.43-1.93l1.2-9.73c0.12-0.97,1-1.66,1.97-1.51l0.5,0.08c0.7,0.12,1.35-0.39,1.47-1.08l0.31-2.01
					c0.12-0.73-0.31-1.39-1-1.66c-7.92-3.09-11.12-8.19-10.93-10.82c0.27-3.9,1.97-29.36,3.09-38.86c1.12-9.5,3.09-12.01,6.14-13.21
					c3.09-1.16,6.14-1.89,8.38-4.75s3.9-5.41,8.96-5.41c5.02,0,6.72,2.55,8.96,5.41c2.24,2.86,5.33,3.59,8.38,4.75
					c3.09,1.16,5.02,3.71,6.14,13.21s2.78,34.96,3.09,38.86c0.15,2.43-2.59,6.99-9.35,10.12
					C212.91,131.98,212.56,132.68,212.68,133.37z M199.39,67.2c0-1.7-1.35-3.05-3.05-3.05s-3.05,1.35-3.05,3.05s1.35,3.05,3.05,3.05
					C198.04,70.29,199.39,68.9,199.39,67.2z"/>
				<path id="XMLID_1181_" class="st1" d="M216.66,90.61c-0.7-11.47-1.24-17.61-6.84-17.42c-5.6,0.19-18.43,0.35-22.4,0
					c-3.98-0.35-8.77-0.04-9.66,3.01c-0.89,3.09-1.89,13.83-2.09,18.43c-0.15,4.6,12.75,6.06,23.72,6.22
					C210.36,101.04,216.66,90.61,216.66,90.61z"/>
				<path id="XMLID_1180_" class="st4" d="M175.68,94.63c-0.73,8.96-1.47,19.58-1.82,24.64l-0.19,2.51
					c0.15,2.05,6.03,9.31,22.67,9.31s22.48-7.26,22.67-9.23l-0.19-2.59c-0.39-5.83-1.31-19.08-2.16-28.66c0,0-2.05-1.35-7.46,0
					c-5.37,1.35-10.85,4.02-23.64,2.9C177.68,92.81,175.68,94.63,175.68,94.63z"/>
				<line id="XMLID_1156_" class="st5" x1="201.83" y1="139.32" x2="201.44" y2="129.28"/>
				<path id="XMLID_1142_" class="st6" d="M264.9,313.34c-26.42-0.77-45.77-17.03-56.4-40.48c-12.09-26.77-14.64-57.56-15.61-86.53
					c-0.58-17.54-0.31-35.07,0.23-52.61"/>
				<path id="XMLID_1139_" class="st5" d="M193.29,128.74c-0.85,31.83-1.47,66.25,2.32,95.76c3.32,26.03,10.39,55.7,30.71,74.05
					c10.66,9.62,24.34,14.41,38.55,14.79"/>
				<path id="XMLID_1135_" class="st7" d="M219.02,121.86l-0.19-2.59c-0.04-0.81-0.12-1.74-0.19-2.78
					c0.58,8.34-12.24,10.7-24.64,7.46c-11.82-3.09-9.58-12.52-8.27-30.4c-0.04,0-0.08,0-0.15,0c-7.88-0.7-9.89,1.12-9.89,1.12
					c-0.73,8.96-1.47,19.58-1.82,24.64l-0.19,2.51c0.15,2.05,6.03,9.31,22.67,9.31S218.82,123.83,219.02,121.86z"/>
				<path id="XMLID_1121_" class="st8" d="M210.32,115.83c-8.92,1-18.27,0.93-27.89,0c-0.39-0.04-0.73-0.39-0.73-0.77v-6.88
					c0-0.42,0.35-0.77,0.73-0.77c9.27-0.46,18.54-0.46,27.81,0c0.42,0.04,0.73,0.39,0.73,0.77v6.88
					C211.02,115.45,210.75,115.8,210.32,115.83z"/>
				<path id="XMLID_1118_" class="st3" d="M209.71,76.24c-8.65-0.39-14.64-0.46-14.76,1.27c-0.12,1.74,11.63,2.2,15.3,6.1
					c3.67,3.9,3.67,2.55,3.67,0C213.96,81.07,213.26,76.4,209.71,76.24z"/>
			</g>
		</g>
		<path id="XMLID_597_" class="st0" d="M180.97,159.48c3.67-1.27,7.3-2.59,10.97-3.86c0.58-0.19,1.2-0.39,1.78-0.15
			c2.63,1.08,0.39,4.33-0.89,5.49c-1.12,1-2.94,2.36-3.86,3.52c-0.08,0.08-0.23,0.23-0.19,0.35L180.97,159.48z"/>
		<g id="XMLID_459_">
			<path id="XMLID_578_" class="st9" d="M281.05,218.55c-3.55,0.31-7.42-0.89-9.89-3.86c-1.47-1.74-2.16-4.02-3.09-6.1
				c-0.31-0.7-0.62-1.39-1.2-1.85c-0.54-0.46-1.31-0.7-2.01-0.58c-0.42,0.08-0.85,0.27-1.08,0.66s-0.15,0.89-0.08,1.35
				c0.7,4.09,1.12,9.35,4.21,12.36c2.86,2.74,5.99,4.06,9.81,5.02L281.05,218.55z"/>
			<path id="XMLID_574_" class="st7" d="M266.18,205.41c0,7.61,6.18,13.79,13.79,13.79c7.61,0,13.79-6.18,13.79-13.79
				c0-7.61-6.18-13.79-13.79-13.79C272.36,191.62,266.18,197.8,266.18,205.41z"/>
			<path id="XMLID_563_" class="st4" d="M279.97,191.62c6.45,0,11.86,4.44,13.37,10.43c-0.5,5.99-5.52,10.7-11.63,10.7
				c-6.45,0-11.67-5.21-11.67-11.67c0-2.74,0.97-5.29,2.55-7.3C274.72,192.43,277.27,191.62,279.97,191.62z"/>
			<path id="XMLID_559_" class="st10" d="M347.92,222.21c9.58,0,15.84,6.84,10.12,13.02c-4.98,5.37-25.61,6.1-39.75,6.1
				s-33.45,0.19-45.85-3.05c-12.4-3.24-12.21-13.75-3.44-14.72C277.81,222.6,347.92,222.21,347.92,222.21z"/>
			<path id="XMLID_535_" class="st0" d="M279.43,226.93c2.24,0.35,4.91,0.62,8.03,0.81c10.7,0.7,17.54,0.42,34.57,0.46
				c14.79,0.04,22.79-0.66,24.84-1.82c4.02-2.28,14.41-15.84,16.92-19.47c3.63-5.33,12.13-45.58,12.13-45.58l-5.95-5.21
				c-7.57,3.05-9.77,5.45-12.24,10.89c-5.49,12.09-16.46,39.05-17.5,40.21c-0.58,0.66-1.62,2.43-4.36,2.82
				c-4.29,0.58-31.37,3.28-34.61,3.24c-4.48-0.08-3.13-0.66-5.29-2.9c-0.77-0.81-1.66-1.58-2.55-1.58
				c-2.16,6.33-6.91,8.96-10.97,9.73L279.43,226.93z"/>
			<path id="XMLID_492_" class="st11" d="M374.41,154.58c-5.29,0.62-12.59,3.05-15.91,7.96c-3.32,4.91-14.37,32.29-14.37,32.29
				s5.99,5.41,18.89,6.45L374.41,154.58z"/>
			<polygon id="XMLID_485_" class="st8" points="332.27,211.32 335.71,218.85 331.42,219.2 328.18,211.75 			"/>
			<path id="XMLID_464_" class="st0" d="M279.43,226.93c-2.78-0.5-6.53-1.97-9.04-6.18c-2.51-4.21-3.98-10.12-2.55-12.4
				c1.74-2.82,2.43-0.35,3.32,1.39c0.89,1.78,3.59,10.24,14.1,7.92L279.43,226.93z"/>
		</g>
		<g id="XMLID_452_">
			<path id="XMLID_456_" class="st6" d="M322.54,216.07c-1.08,32.64,25.84,60.76,59.1,58.29"/>
			<path id="XMLID_453_" class="st5" d="M381.64,274.36c-19.78,1-37.2-7.46-48.83-23.83c-4.44-6.3-6.91-11.78-8.58-18.66
				c-1.51-6.18-1.78-13.64-1.66-15.8l14.72-1.55"/>
		</g>
		<g id="XMLID_538_">
			<g id="XMLID_564_">
				<g id="XMLID_1092_">
					<path id="XMLID_1113_" class="st12" d="M393.07,377.88v-0.15c0-2.94-2.39-5.33-5.33-5.33l0,0c-2.94,0-5.33-2.39-5.33-5.33
						v-0.15c0-2.94-2.39-5.33-5.33-5.33h-61.57c-2.94,0-5.33,2.39-5.33,5.33v0.15c0,2.94-2.39,5.33-5.33,5.33l0,0
						c-2.94,0-5.33,2.39-5.33,5.33v0.15c0,2.94,2.39,5.33,5.33,5.33l0,0c2.94,0,5.33,2.39,5.33,5.33v0.15
						c0,2.94-2.39,5.33-5.33,5.33l0,0c-2.94,0-5.33,2.39-5.33,5.33v0.15c0,2.94,2.39,5.33,5.33,5.33l0,0c2.94,0,5.33,2.39,5.33,5.33
						v0.15c0,2.94,2.39,5.33,5.33,5.33h61.61c2.94,0,5.33-2.39,5.33-5.33v-0.15c0-2.94,2.39-5.33,5.33-5.33l0,0
						c2.94,0,5.33-2.39,5.33-5.33v-0.15c0-2.94-2.39-5.33-5.33-5.33l0,0c-2.94,0-5.33-2.39-5.33-5.33v-0.15
						c0-2.94,2.39-5.33,5.33-5.33l0,0C390.68,383.18,393.07,380.82,393.07,377.88z"/>
					<path id="XMLID_1099_" class="st13" d="M304.88,393.99h82.86c-2.94,0-5.33-2.39-5.33-5.33v-0.15c0-2.94,2.39-5.33,5.33-5.33
						h-82.86c2.94,0,5.33,2.39,5.33,5.33v0.15C310.21,391.6,307.82,393.99,304.88,393.99z"/>
					<path id="XMLID_1096_" class="st13" d="M387.74,372.4c-2.94,0-5.33-2.39-5.33-5.33v-0.15c0-2.94-2.36-5.29-5.29-5.29h-61.65
						c-2.94,0.04-5.29,2.39-5.29,5.29v0.15c0,2.94-2.39,5.33-5.33,5.33h-0.04H387.74L387.74,372.4z"/>
					<path id="XMLID_1093_" class="st13" d="M310.21,410.06v0.15c0,2.94,2.39,5.33,5.33,5.33h61.61c2.94,0,5.33-2.39,5.33-5.33
						v-0.15c0-2.94,2.39-5.33,5.33-5.33h-82.93C307.82,404.77,310.21,407.12,310.21,410.06z"/>
				</g>
				<g id="XMLID_1074_">
					<path id="XMLID_1091_" class="st1" d="M388.13,414.54h-83.59c-5.37,0-10.16,3.44-11.9,8.54l0,0c-0.5,1.51,0.62,3.09,2.2,3.09
						h102.94c1.58,0,2.7-1.58,2.2-3.09l0,0C398.29,417.98,393.5,414.54,388.13,414.54z"/>
					<path id="XMLID_1076_" class="st3" d="M389.36,421.92h-66.32c-2.05,0-3.71-1.66-3.71-3.71l0,0c0-2.05,1.66-3.71,3.71-3.71
						h66.32c2.05,0,3.71,1.66,3.71,3.71l0,0C393.07,420.26,391.41,421.92,389.36,421.92z"/>
				</g>
			</g>
			<g id="XMLID_539_">
				<g id="XMLID_550_">
					<path id="XMLID_561_" class="st1" d="M316.01,364.71c-5.25-1.35-29.9-14.02-35.96-20.74l2.32-26.11h74.71l72.04,25.11
						L316.01,364.71z"/>
					<path id="XMLID_556_" class="st3" d="M429.92,337.83c0,10.43,1.12,21.4-1.97,24.22c-3.09,2.82-26.19,7.11-50.22,7.11
						s-60.72-0.62-63.66-5.95c-2.94-5.33-1.39-40.06-1.39-40.06L429.92,337.83z"/>
					<path id="XMLID_551_" class="st14" d="M430.08,345.9c-0.04-2.63-0.12-5.37-0.12-8.07l-23.6-2.78l-49.29-17.19h-69.45
						l-5.56,26.11c0,0,20.05-5.87,28.08-8.19s13.75,2.12,46.66,8.19C387.08,349.57,416.94,347.68,430.08,345.9z"/>
				</g>
				<g id="XMLID_547_">
					<path id="XMLID_549_" class="st15" d="M486.39,171.19c-6.3-7.57-60.41-26.65-80.62-21.63c-20.2,5.02-41.64,116.31-41.64,116.31
						s47.24,53.38,78.3,55.24C442.4,319.44,486.39,171.19,486.39,171.19z"/>
					<path id="XMLID_548_" class="st16" d="M483.34,169.14L483.34,169.14c-11.51-3.32-23.6,2.97-27.58,14.25
						c-12.98,36.62-22.79,73.97-29.36,112.14c-1.82,10.55,4.09,20.86,14.06,24.76l1.97,0.77c3.36,1.31,7.07-0.58,8-4.06
						l37.08-140.57C488.33,173.27,486.47,170.03,483.34,169.14z"/>
				</g>
				<g id="XMLID_543_">
					<path id="XMLID_546_" class="st10" d="M320.8,331.72c-6.14-1.97-9.66-3.9-16.69-10.47s-38.63-39.67-42.84-43.88
						c-4.21-4.21-0.97-23.02,20.36-23.6c21.32-0.58,75.25,0.08,92.9,8.65c17.65,8.58,58.37,50.91,61.84,58.25
						C439.81,328.02,320.8,331.72,320.8,331.72z"/>
					<path id="XMLID_545_" class="st15" d="M436.33,320.68c-0.89-1.85-4.13-5.95-8.77-11.12c-19.12-7.8-37.78-8.77-57.28-10.16
						c-21.98-1.58-46.31-2.63-51.84,7.07c-4.21,7.34-6.18,15.41-5.95,21.55c2.63,1.66,5.14,2.7,8.3,3.71
						C320.8,331.72,439.81,328.02,436.33,320.68z"/>
					<path id="XMLID_544_" class="st16" d="M441.28,338.14c2.09-6.41-1.43-16.49-9-21.48c-7.57-4.94-22.37-9.08-52.49-11.51
						c-30.13-2.39-46.55-2.7-53.38,1.93c-6.84,4.64-8.23,15.49-8.92,18.66c-0.7,3.17,1.39,5.56,5.68,6.95
						c4.29,1.39,27.19,7.73,53.54,9.81c26.34,2.09,45.66,1.74,55.2,0C437.92,341.5,440.7,339.87,441.28,338.14z"/>
				</g>
				<g id="XMLID_540_">
					<path id="XMLID_542_" class="st15" d="M240.84,368.85c-9.73,4.09-33.1-7.65-44-12.55c-10.74-4.83-29.63-14.56-32.68-18.93
						c-3.05-4.36-5.79-18.62,4.6-28.2c10.39-9.58,46.78-31.79,75.01-32.52c28.2-0.7,66.25,25.07,69.53,32.52
						c3.28,7.42,3.67,12.44,2.59,18.04L240.84,368.85z"/>
					<path id="XMLID_541_" class="st16" d="M315.89,327.2c0.35-1.97,0.19-9.31-3.44-14.37c-3.63-5.1-12.55-10.93-32.87-0.77
						c-20.32,10.16-37.55,21.94-43.57,28c-6.03,6.06-5.52,16.76-3.63,22.6c1.89,5.87,4.64,7.22,8.42,6.18
						c3.79-1.04,65.63-32.56,69.22-35.11C313.92,330.99,315.51,329.29,315.89,327.2z"/>
				</g>
			</g>
		</g>
		<g id="XMLID_517_">
			<path id="XMLID_525_" class="st0" d="M178.3,308.55l9.12-8l14.49,11.86l-8.46,6.76c0,0-5.64-0.85-10.31-4.64
				C178.49,310.75,178.3,308.55,178.3,308.55z"/>
			<path id="XMLID_524_" class="st9" d="M187.42,300.55l-1.16,1c0,0,3.4,10.31,12.17,13.67l3.52-2.82L187.42,300.55z"/>
			<path id="XMLID_521_" class="st13" d="M195.53,315.35c-0.54-1.35-3.79,1.43-6.37,1.12c-2.63-0.27-4.87-0.77-5.95-3.13
				c-1.27-2.78-0.12-4.67,1.47-6.49c1.93-2.2,1.82-5.79-0.58-7.49c-0.39-0.27-0.77-0.42-1.2-0.5c-2.51-0.35-3.28,1.93-8.46,2.05
				c-5.79,0.15-10.66-2.01-16.11-3.32c-6.53-1.62-9.77-5.41-13.44-5.56c-3.32-0.12-5.18,0.97-7.42,7.84c0.93,4.6,5.25,9,10.62,12.21
				c4.91,2.94,12.01,5.91,16.18,7.92c4.21,2.01,10.62,10.62,19.85,11.9C191.4,324.66,195.53,315.35,195.53,315.35z"/>
			<path id="XMLID_518_" class="st13" d="M335.9,236.7c0,0-64.78-3.24-70.96-3.24c-6.18,0-9.77,1.2-14.33,5.33
				c-4.56,4.09-63.19,61.77-63.19,61.77s3.24,8.81,14.99,14.33l74.28-56.36l75.01,1.93L335.9,236.7z"/>
		</g>
		<g id="XMLID_508_">
			<path id="XMLID_516_" class="st17" d="M198.43,312.84l-8.42,6.57c-0.12,10.51,4.79,15.45,12.4,14.29l9.81-8.07L198.43,312.84z"/>
			<path id="XMLID_515_" class="st0" d="M198.43,312.84l-0.93,0.73c0,0,2.39,9.89,10,15.91l4.67-3.86L198.43,312.84z"/>
			<path id="XMLID_512_" class="st12" d="M405.39,271.04c-2.97,12.05-9.08,23.99-29.05,25.07c-19.97,1.04-57.21-7.73-70.57-9.5
				c-13.37-1.74-18.62,0.7-25.65,4.56c-7.03,3.86-67.83,38.32-67.83,38.32s-7.84-4.33-13.83-16.65c0,0,59.87-55.78,68.64-59.99
				c8.81-4.21,13.02-4.56,27.77-6.33c14.76-1.74,41.06-3.52,41.06-3.52L405.39,271.04z"/>
			<path id="XMLID_509_" class="st12" d="M204.84,331.76c-0.27-1.43-3.98,0.66-6.49-0.15c-2.51-0.81-4.64-1.74-5.21-4.25
				c-0.73-2.97,0.81-4.6,2.74-6.06c2.36-1.78,2.94-5.33,0.89-7.49c-0.31-0.35-0.66-0.58-1.04-0.73c-2.39-0.81-3.59,1.24-8.69,0.35
				c-5.72-1-10.08-4.06-15.14-6.45c-6.1-2.86-8.5-7.26-12.09-8.11c-3.24-0.77-5.29-0.08-8.81,6.22c0,4.71,3.36,9.85,8,14.06
				c4.21,3.82,10.62,8.15,14.33,10.97c3.71,2.82,8.34,12.52,17.11,15.61C198.93,340.11,204.84,331.76,204.84,331.76z"/>
		</g>
		<path id="XMLID_507_" class="st18" d="M383.88,152.38c-4.17,0.89-16.03,2.82-21.17,8.27c-2.59,2.74-26.81,85.83-26.81,85.83
			S346.76,271,405.39,271l13.13-43.49l4.75-67.48l-15.22-8.81C408.06,151.22,388.05,151.49,383.88,152.38z"/>
		<path id="XMLID_506_" class="st11" d="M335.9,246.51c0,0,1.27-4.4,3.28-11.24c18.73,8,61.65,10.35,69.72-20.2
			c0,0,8.15,8.07,10,5.95l-0.46,6.53l-13.13,43.49C346.76,271.04,335.9,246.51,335.9,246.51z"/>
		<g id="XMLID_493_">
			<path id="XMLID_505_" class="st19" d="M412.77,126.77l-0.42,4.98c-0.15,1.89-1.85,3.32-3.79,3.09l0,0l0.27-9.5L412.77,126.77z"/>
			<g id="XMLID_502_">
				<g>
					<path id="XMLID_503_" class="st17" d="M371.36,97.33c-0.89,10.27-2.28,31.87,1.2,40.17c3.48,8.3,11.32,8.61,11.32,8.61v12.24
						c0,0,10.74,6.18,24.03-1.82l1-32.83c0,0,2.55-22.83-1-26.38C404.35,93.78,390.68,81.77,371.36,97.33z"/>
				</g>
				<g>
					<defs>
						<path id="SVGID_1_" d="M371.36,97.33c-0.89,10.27-2.28,31.87,1.2,40.17c3.48,8.3,11.32,8.61,11.32,8.61v12.24
							c0,0,10.74,6.18,24.03-1.82l1-32.83c0,0,2.55-22.83-1-26.38C404.35,93.78,390.68,81.77,371.36,97.33z"/>
					</defs>
					<clipPath id="SVGID_2_">
						<use xlink:href="#SVGID_1_"  style="overflow:visible;"/>
					</clipPath>
					<path id="XMLID_504_" class="st20" d="M383.14,147.05c7.46,0.93,20.16-1.74,22.21-15.68"/>
				</g>
			</g>
			<circle id="XMLID_501_" class="st17" cx="411.53" cy="120.59" r="6.14"/>
			<path id="XMLID_500_" class="st19" d="M409.56,115.33l-0.31,4.02h-3.75v-8c0-0.04-0.04-0.08-0.08-0.12
				c-0.42-0.27-2.94-1.97-3.05-5.29c-0.15-3.63,0.81-9.43-1.93-9.7c-2.74-0.31-10.62,6.53-18.77,5.72
				c-8.15-0.81-11.7-5.1-13.21-7.92c-1.47-2.82-1.27-6.22,0-6.22c1.27,0,4.6,0.97,6.37,1.39c0,0-1.85-2.97-2.24-5.18
				c-0.39-2.24,1.27-1.78,4.67-0.73s16.53,2.74,22.91,3.94c6.37,1.2,9.66,2.67,11.94,5.41c2.32,2.74,1.66,14.33,1.04,22.13
				C411.53,114.29,410.41,114.75,409.56,115.33z"/>
			<circle id="XMLID_498_" class="st19" cx="390.87" cy="116.49" r="1.78"/>
			<circle id="XMLID_497_" class="st19" cx="376.19" cy="115.76" r="1.78"/>
			<path id="XMLID_496_" class="st19" d="M396.86,111.86c-2.97-1.31-6.18-1.78-9.31-1.7c0,0,1.74-1.74,5.1-1.2
				C396.01,109.54,396.86,111.86,396.86,111.86z"/>
			<path id="XMLID_1133_" class="st19" d="M405.51,113.21c-0.12,7.38-2.97,17.5-7.73,18.62c-4.75,1.12-11.47-1.55-15.57-1.74
				c-4.13-0.19-11.36,1.04-11.55-2.09c0,0-0.7,7.84,1.62,12.79s6.95,6.64,12.94,7.3c5.95,0.66,20.67-0.31,23.49-17.46l0.15-4.56
				l0.46-6.76L405.51,113.21z"/>
			<path id="XMLID_495_" class="st0" d="M382.99,137.31c3.24-0.08,6.33-1.04,9.12-2.43c0,0-0.5,3.17-3.82,3.82
				C384.69,139.36,382.99,137.31,382.99,137.31z"/>
			<path id="XMLID_494_" class="st19" d="M379.44,109.27c-3.21-0.62-6.41-0.31-9.43,0.46c0,0,1.27-2.09,4.67-2.32
				C378.04,107.18,379.44,109.27,379.44,109.27z"/>
			<path id="XMLID_499_" class="st21" d="M382.14,110.16c0,0-2.51,17.46-2.39,18.31c0.08,0.85,3.44,1.62,3.44,1.62"/>
		</g>
		<g id="XMLID_514_">
			<g id="XMLID_536_">
				<path id="XMLID_537_" class="st1" d="M408.52,333.38c8.15,0,18.12-0.19,30.17-5.29c2.51-1.04,4.09-3.48,3.32-6.1
					c-0.77-2.59-3.52-4.21-6.1-3.32c-12.75,4.4-24.53,5.06-32.18,3.63c-5.68-1.08-8.85-3.82-10.35-9.08
					c-2.74-9.62-3.52-19.35-2.59-31.48c0.19-2.7-1.82-5.06-4.52-5.25c-2.7-0.19-5.06,1.82-5.25,4.52
					c-1.04,13.33-0.12,24.1,2.94,34.88c2.67,9.39,6.88,15.14,17.65,16.96C403.35,333.11,406.55,333.38,408.52,333.38z"/>
			</g>
			<path id="XMLID_533_" class="st14" d="M390.83,281.74c-0.19,2.36-0.31,4.64-0.35,6.84c-2.97,0.08-6.26,0.15-9.81,0.23
				c0.04-2.51,0.15-5.1,0.35-7.8c0-0.08,0.04-0.15,0.04-0.23l9.7-0.12C390.83,281.01,390.83,281.35,390.83,281.74z"/>
			<path id="XMLID_523_" class="st3" d="M414.7,275.83c-0.5,3.28-2.16,6.1-6.64,7.15c-4.87,1.12-15.18,1.74-29.97,1.62
				c-14.52-0.12-22.91-1.16-27.7-1.89c-4.79-0.77-5.33-6.53-5.33-6.53L414.7,275.83z"/>
			<path id="XMLID_522_" class="st22" d="M412.5,259.18c9.58,0,15.84,6.84,10.12,13.02c-4.98,5.33-25.61,6.06-39.71,6.06
				c-14.14,0-33.45,0.19-45.85-3.05c-12.4-3.24-12.21-13.75-3.44-14.72C342.39,259.57,412.5,259.18,412.5,259.18z"/>
			<path id="XMLID_520_" class="st10" d="M414.74,259.34c6.22,2.09,8.5,5.45-4.94,8.03c-11.78,2.28-69.84,3.71-82.16-2.82
				L414.74,259.34z"/>
		</g>
		<g id="XMLID_448_">
			<path id="XMLID_445_" class="st17" d="M352.24,249.14c1.04-0.08,5.68-0.5,6.99-0.62c3.52-0.39,34.8-5.25,38.28-5.83
				c3.52-0.58,4.87-1.16,5.06-2.12c0.19-0.97,6.61-43.65,6.61-43.65l28.66,9.39c0,0-7.46,42.84-8.81,47.67
				c-1.35,4.87-3.71,7.76-6.3,8.54s-15.72,3.82-35.15,3.86c-13.33,0.04-21.52-0.97-30.09,0.23c-3.05,0.42-4.67,2.16-9.43,3.28
				c-3.75,0.89-8.23-0.04-11.97-0.42c-4.67-0.5-9.04-0.81-13.56,0.66c-2.74,0.89-5.52,1.7-8.07-0.19c-0.66-0.5-1.27-1.2-1.31-2.01
				c-0.04-1.62,1.62-3.98,2.51-5.21c1.2-1.66,2.63-3.17,4.09-4.6c2.78-2.7,5.64-4.6,9.35-5.68
				C331.73,251.73,348.73,249.45,352.24,249.14z"/>
			<path id="XMLID_451_" class="st0" d="M409.18,196.88l-1.93,13.6c0,0,8.96,9.46,28.28,8.69l2.32-12.9L409.18,196.88z"/>
			<path id="XMLID_449_" class="st11" d="M423.28,160.02c6.18,3.09,14.68,8.81,16.42,20.47c1.74,11.67-1.89,34.92-1.89,34.92
				s-8.34,0.77-17.11-0.97c-8.73-1.74-14.02-6.1-14.02-6.1s1.62-12.24,3.09-22.75C411.88,170.69,415.17,161.96,423.28,160.02z"/>
		</g>
		<path id="XMLID_519_" class="st1" d="M214.88,64.61h-5.68c-1.35,0-2.43,1.08-2.43,2.43l0,0c0,1.35,1.08,2.43,2.43,2.43h5.68V64.61
			z"/>
	</g>
	<g id="XMLID_529_">
		<path id="XMLID_596_" class="st0" d="M66.28,375.49l-7.49,18.77c0,0,0.54,8.27,6.61,9.19s12.05-11.47,12.05-11.47l5.06-10.16
			L66.28,375.49z"/>
		<path id="XMLID_595_" class="st9" d="M82.51,381.79l-3.13,6.3c0,0-3.67,0.15-9.19-2.28c-5.52-2.47-6.06-4.94-6.06-4.94l2.16-5.37
			L82.51,381.79z"/>
		<path id="XMLID_591_" class="st23" d="M58.75,392.25c1.31-0.35,1.04,3.67,2.74,5.52c1.7,1.85,3.36,3.28,5.76,2.78
			c2.86-0.58,3.63-2.59,4.09-4.79c0.58-2.74,3.4-4.67,6.06-3.82c0.42,0.12,0.77,0.35,1.04,0.62c1.66,1.7,0.39,3.59,3.21,7.65
			c3.17,4.52,6.91,8.07,11.7,10.43c4.09,2.01,7.57,0.58,11.74,3.79c2.32,1.78,2.47,6.37,1.7,9.7c-4.06,1.89-15.18,2.05-19.24,1.16
			c-5.29-1.16-10.74-4.4-14.68-6.45c-3.9-2.05-15.37-3.28-21.59-9.58C52.72,399.55,58.75,392.25,58.75,392.25z"/>
		<g id="XMLID_634_">
			<g>
				<path id="XMLID_9_" class="st11" d="M68.6,181.35c0,0,17.65,102.87,16.96,108.2c-0.7,5.37-21.44,87.41-21.44,87.41
					c4.25,4.64,12.9,8.73,18.39,7.57c0,0,36.23-73.08,37.82-88.23c2.2-20.86,0-116.54,0-116.54L68.6,181.35z"/>
			</g>
		</g>
		<g id="XMLID_639_">
			<path id="XMLID_1216_" class="st17" d="M110.43,387.23l2.09,19.74c0,0,3.32,7.61,9.35,6.41s7.42-14.91,7.42-14.91l-0.58-11.24
				H110.43z"/>
			<path id="XMLID_1212_" class="st0" d="M110.43,387.23l0.7,7.15c0,0,8.69,3.48,17.88-0.93l-0.31-6.22H110.43z"/>
			<path id="XMLID_771_" class="st18" d="M131.02,180.84c0,0,3.32,94.06,3.44,107.58c0.12,13.52-4.48,100.97-4.48,100.97
				s-7.53,4.13-20.12-0.39c0.35-2.39-12.71-87.99-14.06-96.99c-1.35-8.96-24.88-109.35-24.88-109.35L131.02,180.84z"/>
			<path id="XMLID_643_" class="st1" d="M111.79,405.15c1.12-0.77,2.24,3.09,4.48,4.25c2.24,1.16,4.29,1.93,6.37,0.66
				c2.47-1.55,2.55-3.67,2.24-5.91c-0.39-2.78,1.62-5.56,4.4-5.64c0.42,0,0.85,0.04,1.2,0.23c2.16,1.04,1.58,3.24,5.64,6.1
				c4.52,3.17,9.39,4.44,14.52,5.83c6.41,1.7,11.47,1.2,14.6,2.7c2.63,1.24,4.71,4.29,2.86,10.89c-3.17,3.17-11.01,3.55-16.96,3.24
				c-5.41-0.27-12.63-1.62-17.03-2.24c-4.4-0.62-14.02,2.82-22.02-1C110.16,414.73,111.79,405.15,111.79,405.15z"/>
		</g>
		<g id="XMLID_602_">
			<g>
				<path id="XMLID_38_" class="st18" d="M73.23,94.63c-0.19-4.64,2.43-8.92,6.68-10.74c6.06-2.59,14.06-4.75,18.58-5.64
					c6.76-1.31,18.54,0.35,24.88,2.86c6.33,2.51,7.38,5.37,11.74,13.21c3.86,6.91,6.37,11.47,6.99,18.66
					c0.85,9.93-6.64,18.73-6.64,18.73s-2.09,9.97-2.28,14.6c-0.08,2.12,5.76,17.69,6.49,21.86c0.85,4.83,16.11,54.19,15.49,88.77
					c-10.27,9.5-38.78,12.75-60.26,11.01l-4.02-35l-5.83,32.56c-11.16-2.12-20.36-5.56-24.61-9.85c0,0-1.12-65.9,17.03-105.53
					c3.98-8.69-0.81-29.7-2.78-37.51c-0.54-2.09-0.85-4.21-0.97-6.33L73.23,94.63z"/>
				<path id="XMLID_37_" class="st18" d="M74.7,112.74c-0.27-0.97-0.46-1.97-0.62-2.97c0.15,0.35,20.59,45.31,29.74,51.22
					c9.19,5.91,34.69,3.32,34.69,3.32l2.36,8.65c0,0-21.05,8.88-41.22,7.61c-13.17-0.81-24.45,17.88-25.57,49.91
					c-0.93,27.39,5.95,33.34,7.96,34.49c-9.77-2.16-17.73-5.33-21.59-9.19c0,0-1.12-65.9,17.03-105.53
					C81.5,141.52,76.71,120.55,74.7,112.74z"/>
				<path id="XMLID_36_" class="st18" d="M95.56,193.48l-23.06-1.12c0,0-3.21,28.35-0.39,30.28c4.52,3.09,16.11,3.24,21.01,1.7
					C96.6,223.22,95.56,193.48,95.56,193.48z"/>
				<path id="XMLID_35_" class="st18" d="M72.11,222.64c-0.66-0.46-1-2.43-1.12-5.14l0,0c1.47,4.71,9.12,4.79,16.26,4.56
					c5.37-0.15,6.99-9.54,8.42-15.68c0.39,6.64-0.66,17.31-2.55,17.92C88.18,225.88,76.63,225.77,72.11,222.64z"/>
				<path id="XMLID_34_" class="st18" d="M95.48,82.15c0,0-4.4,0.62-4.56,2.97c-0.23,3.28,6.84,13.83,26.19,28.7
					c1.55-0.62,8.27-28.51,0.7-31.33L95.48,82.15z"/>
			</g>
			<g>
				<path id="XMLID_33_" class="st3" d="M73.23,94.63c-0.19-4.64,2.43-8.92,6.68-10.74c6.06-2.59,14.06-4.75,18.58-5.64
					c6.76-1.31,18.54,0.35,24.88,2.86c6.33,2.51,7.38,5.37,11.74,13.21c3.86,6.91,6.37,11.47,6.99,18.66
					c0.85,9.93-6.64,18.73-6.64,18.73s-2.09,9.97-2.28,14.6c-0.08,2.12,5.76,17.69,6.49,21.86c0.85,4.83,16.11,54.19,15.49,88.77
					c-10.27,9.5-38.78,12.75-60.26,11.01l-4.02-35l-5.83,32.56c-11.16-2.12-20.36-5.56-24.61-9.85c0,0-1.12-65.9,17.03-105.53
					c3.98-8.69-0.81-29.7-2.78-37.51c-0.54-2.09-0.85-4.21-0.97-6.33L73.23,94.63z"/>
				<path id="XMLID_32_" class="st1" d="M74.7,112.74c-0.27-0.97-0.46-1.97-0.62-2.97c0.15,0.35,20.59,45.31,29.74,51.22
					c9.19,5.91,34.69,3.32,34.69,3.32l2.36,8.65c0,0-21.05,8.88-41.22,7.61c-13.17-0.81-24.45,17.88-25.57,49.91
					c-0.93,27.39,5.95,33.34,7.96,34.49c-9.77-2.16-17.73-5.33-21.59-9.19c0,0-1.12-65.9,17.03-105.53
					C81.5,141.52,76.71,120.55,74.7,112.74z"/>
				<path id="XMLID_31_" class="st3" d="M95.56,193.48l-23.06-1.12c0,0-3.21,28.35-0.39,30.28c4.52,3.09,16.11,3.24,21.01,1.7
					C96.6,223.22,95.56,193.48,95.56,193.48z"/>
				<path id="XMLID_30_" class="st1" d="M72.11,222.64c-0.66-0.46-1-2.43-1.12-5.14l0,0c1.47,4.71,9.12,4.79,16.26,4.56
					c5.37-0.15,6.99-9.54,8.42-15.68c0.39,6.64-0.66,17.31-2.55,17.92C88.18,225.88,76.63,225.77,72.11,222.64z"/>
				<path id="XMLID_29_" class="st18" d="M95.48,82.15c0,0-4.4,0.62-4.56,2.97c-0.23,3.28,6.84,13.83,26.19,28.7
					c1.55-0.62,8.27-28.51,0.7-31.33L95.48,82.15z"/>
			</g>
		</g>
		<g id="XMLID_530_">
			<path id="XMLID_582_" class="st17" d="M100.35,120.05c0,0,11.82,29.36,12.28,30.17c0.46,0.81,2.36,0.93,5.68,0.42
				c3.32-0.5,26.73-5.83,33.1-8.07c3.17-1.12,7.42-2.59,8.92-6.22c1.51-3.63,2.9-6.06,4.52-9.77c1.82-4.09,1.58-8.77,3.21-8.69
				c1.97,0.08,5.21,3.01,4.64,8.27c-0.27,2.32-0.42,4.13-0.58,5.45c-0.12,1.39,1,2.55,2.39,2.47c1.55-0.08,3.71-0.23,6.18-0.66
				c6.61-1.04,18.46-3.48,18.46-3.48s4.67,0.58,0.73,4.21c-3.48,3.24-9,3.67-11.2,6.95c-2.24,3.28-6.95,6.61-17.77,11.01
				c-10.82,4.4-20.28,8.15-37.82,13.98c-17.58,5.79-24.41,5.64-27,5.72s-6.22-3.24-8.92-7.22s-16.15-31.67-16.15-31.67
				L100.35,120.05z"/>
			<path id="XMLID_531_" class="st3" d="M80.5,83.97c-7.42,1.43-11.94,8.85-11.24,19.24s11.78,40.75,11.78,40.75
				s7.38-0.93,14.6-4.09s10.97-7.92,10.97-7.92s-8.11-21.17-11.36-29.97C90.58,89.53,87.87,84.12,80.5,83.97z"/>
		</g>
		<g id="XMLID_275_">
			<g id="XMLID_610_">
				<path id="XMLID_585_" class="st19" d="M95.1,65.89c-2.94-0.5-5.83-3.09-8.61-10.35c-2.78-7.3-8.3-25.73-1.82-33.88
					c7.11-8.88,14.33-10.2,25.26-6.99v51.26H95.1V65.89z"/>
				<g id="XMLID_1225_">
					<g>
						<path id="XMLID_1228_" class="st17" d="M128.12,27.57c2.51,8.92,4.75,23.76,0.58,35.42c-3.48,9.7-13.56,9.39-13.56,9.39
							l-0.08,11.55c0,0-5.1,9.5-19.55-0.27l-0.89-38.7c0,0-5.06-12.9-1.74-16.42S109.08,13.09,128.12,27.57z"/>
					</g>
					<g>
						<defs>
							<path id="SVGID_3_" d="M128.12,27.57c2.51,8.92,4.75,23.76,0.58,35.42c-3.48,9.7-13.56,9.39-13.56,9.39l-0.08,11.55
								c0,0-5.1,9.5-19.55-0.27l-0.89-38.7c0,0-5.06-12.9-1.74-16.42S109.08,13.09,128.12,27.57z"/>
						</defs>
						<clipPath id="SVGID_4_">
							<use xlink:href="#SVGID_3_"  style="overflow:visible;"/>
						</clipPath>
						<path id="XMLID_1229_" class="st24" d="M118.24,73.31c-7.84,0.46-17.03-2.63-20.86-15.84"/>
					</g>
				</g>
				<path id="XMLID_1221_" class="st17" d="M86.48,49.59c-0.08-3.28,2.47-5.99,5.76-6.1c3.28-0.08,5.99,2.47,6.1,5.76
					c0.08,3.28-2.47,5.99-5.76,6.1S86.6,52.87,86.48,49.59z"/>
				<path id="XMLID_1219_" class="st21" d="M120.05,40.97c0,0,2.39,12.71,2.32,13.52c-0.08,0.81-3.28,1.04-3.28,1.04"/>
				<path id="XMLID_619_" class="st19" d="M109.58,45.26c-0.04-0.97,0.73-1.74,1.66-1.78c0.97-0.04,1.74,0.73,1.78,1.66
					c0.04,0.97-0.73,1.74-1.66,1.78C110.39,46.96,109.62,46.23,109.58,45.26z"/>
				<path id="XMLID_617_" class="st19" d="M125.38,44.53c-0.04-0.97,0.73-1.74,1.66-1.78c0.97-0.04,1.74,0.73,1.78,1.66
					c0.04,0.97-0.73,1.74-1.66,1.78C126.19,46.23,125.42,45.49,125.38,44.53z"/>
				<path id="XMLID_615_" class="st19" d="M106.42,41.86c2.24-1.08,4.71-1.89,7.11-1.93c0,0-1.51-1.74-4.06-1.24
					C106.84,39.2,106.42,41.86,106.42,41.86z"/>
				<path id="XMLID_614_" class="st19" d="M123.61,39.35c2.47,0.12,4.94,0.54,7.03,1.66c0,0-0.5-2.2-2.94-2.97
					C125.23,37.23,123.61,39.35,123.61,39.35z"/>
				<path id="XMLID_613_" class="st9" d="M120.75,61.22c-3.13,0.31-6.18-0.27-9-1.31c0,0,0.27,3.36,4.02,3.79
					C120.13,64.23,120.75,61.22,120.75,61.22z"/>
				<path id="XMLID_612_" class="st19" d="M93.36,43.52l1.12,6.91c2.9-0.39,4.02-1.27,3.86-4.21l-0.42-3.44c0,0,4.56-1.16,7.76-4.4
					c5.56-5.68,1.82-18.81,1.82-18.81s-3.59-2.16-11.74,3.9C87.6,29.46,90.85,40.55,93.36,43.52z"/>
				<path id="XMLID_611_" class="st19" d="M108.27,23.05c0,0,4.09,14.79,21.71,13.75c0,0,0.97,6.1,0.97,7.84
					c0,0,4.17-1.51,6.64-8.61c2.59-7.46-0.42-16.07-6.41-20.82c-10.78-8.61-24.34-4.02-27.35,0.97l2.28,5.33L108.27,23.05z"/>
			</g>
			<path id="XMLID_589_" class="st17" d="M114.22,97.99c3.13-2.01,4.6-9.31,3.59-15.49l-3.86-1.66l-18.46,1.27
				c0,0-1.7,0.46-1.85,1.89C93.4,85.86,103.21,95.71,114.22,97.99z"/>
		</g>
	</g>
</g>
</svg>
