<?xml version="1.0" encoding="utf-8"?>
<!-- Generator: Adobe Illustrator 24.3.0, SVG Export Plug-In . SVG Version: 6.00 Build 0)  -->
<svg version="1.1" id="Layer_1" xmlns="http://www.w3.org/2000/svg" xmlns:xlink="http://www.w3.org/1999/xlink" x="0px" y="0px"
	 viewBox="0 0 481 420.4" style="enable-background:new 0 0 481 420.4;" xml:space="preserve">
<style type="text/css">
	.st0{fill:#BB1A2C;}
	.st1{fill-rule:evenodd;clip-rule:evenodd;fill:#BB1A2C;}
	.st2{display:none;}
	.st3{display:inline;fill:#BB1A2C;}
</style>
<g>
	<g>
		<path class="st0" d="M108.1,40.1c-22.9,6.4-43.5,22.2-56.5,45.4c-11.8,21.2-17.2,48.8-12.1,81.2c2.5,16.3,8.1,33.8,15.8,51.6H15.9
			C10,202.5,5.7,187,3.3,172.2C-3.1,131,4,95.5,19.4,67.6C37.3,35.5,66,13.7,98.1,4.7c28.8-8.1,60.2-5.4,88.1,5.4
			c20.3,7.9,39.2,20.2,54.1,36c15-15.8,33.8-28.1,54.1-36c28.1-10.9,59.4-13.5,88.1-5.4c32.1,8.9,60.9,30.8,78.7,62.9
			c15.5,27.9,22.7,63.4,16.1,104.6c-2.4,15-6.6,30.4-12.6,46.1h-39.3c7.7-17.8,13.3-35.3,15.8-51.6c5-32.5-0.3-60-12.1-81.2
			c-12.9-23.2-33.6-39-56.5-45.4c-63.4-17.8-94.2,22.7-132.5,60.7C202.2,62.8,171.4,22.4,108.1,40.1L108.1,40.1z"/>
		<path class="st1" d="M30.4,57.7c3,165.5,64.6,110.5,91.3,186.3c3.5,9.8,1.5,19.5,5.4,27.4c11.1,22.2,40,54.5,42.2,70.8
			c3,23.5-14.8,12.8-14.8,12.8s-37.8-34.8-41.7-39.3c-3.7-4.5-15.3-23.9-15.8-29.3c-1.2,5,5.4,19.3,13.5,32.5
			c2.4,3.9,7.1,7.4,11.3,11.3c18.3,17.2,27.7,30.6,38.2,33.6c10.6,3,12.8-7.9,12.8-7.9s22.7,27.4,42.2,35.1
			c20.5,8.2,23.5,23.2,18.7,28.9c-2.2,2.5-18-5.9-23.5-6.7c-24.4-3.5-51.8-24.4-67.3-33.6c-19.5-11.6-66.6-36.8-83.6-67.3
			C12,228.5-31,143.5,30.4,57.7L30.4,57.7z"/>
		<path class="st1" d="M450.6,57.7c16.3,186.6-87.3,118.2-91.3,186.3c-0.7,10.4-1.5,19.5-5.4,27.4c-11.1,22.2-40,54.5-42.2,70.8
			c-3,23.5,14.8,12.8,14.8,12.8s37.8-34.8,41.7-39.3c3.7-4.5,15.5-23.9,16-29.3c1.2,5-5.4,19.3-13.5,32.5
			c-2.4,3.9-6.9,7.4-11.3,11.3c-18.3,17.2-27.7,30.6-38.3,33.6c-10.6,3-12.8-7.9-12.8-7.9s-22.7,27.4-42.2,35.1
			c-20.5,8.2-23.5,23.2-18.7,28.9c2.2,2.5,18-5.9,23.5-6.7c24.4-3.5,51.8-24.4,67.3-33.6c19.5-11.6,66.6-36.8,83.6-67.3
			C468.9,228.5,512.1,143.5,450.6,57.7L450.6,57.7z"/>
		<g>
			<g>
				<g>
					<g>
						<path class="st0" d="M243.1,117.6c-0.8-2.2-4.2-2.2-5,0c-32.1,84.7-74.7,95.3-74.7,148.8c0,43.7,32.5,78.9,76.5,79.2h1.3
							c43.9-0.3,76.5-35.5,76.5-79.2C317.6,212.7,275.2,202.3,243.1,117.6z M176,262.8c0.2-3.2,0.5-6.4,1-9.4c0.7-3.5,4-6.1,7.6-5.4
							c3.5,0.7,6.1,4,5.4,7.7c-0.5,2.5-0.7,4.9-0.8,7.6c-0.2,3.5-3,6.4-6.6,6.4h-0.3C178.7,269.6,176,266.5,176,262.8z M240.6,333
							L240.6,333c-0.2,0-0.2,0-0.3,0c0,0-0.2,0-0.3,0l0,0c-17.7-0.2-33.8-7.1-45.7-19.5c-7.7-8.2-13.5-18.5-16.1-29.9
							c-0.8-3.5,1.3-7.1,4.9-8.1c3.5-0.8,7.1,1.3,8.1,4.9c2.2,9.1,6.7,17.3,12.9,23.9c9.2,9.8,22.2,15.3,36.2,15.3h0.2
							c0.2,0,0.2,0,0.3,0c3.7,0,6.7,3,6.7,6.6C247.1,329.9,244.3,333,240.6,333z"/>
					</g>
				</g>
			</g>
		</g>
	</g>
	<g class="st2">
		<path class="st3" d="M555.8,173.9V64.1h53.6c13.8,0,24.2,2.7,31.1,7.9c6.9,5.2,10.4,12.1,10.4,20.7c0,5.7-1.3,10.8-4.2,15
			s-6.7,7.6-11.6,9.8c-4.9,2.4-10.6,3.5-17,3.5l3-6.4c6.9,0,12.9,1.2,18.3,3.4c5.4,2.2,9.4,5.5,12.4,9.9s4.5,9.8,4.5,16.1
			c0,9.4-3.7,16.8-11.1,22c-7.4,5.2-18.3,7.9-32.8,7.9C612.7,173.9,555.8,173.9,555.8,173.9z M581,154.7h29.6c6.6,0,11.6-1,15-3.2
			s5-5.5,5-10.3c0-4.5-1.7-8.1-5-10.3c-3.4-2.2-8.4-3.4-15-3.4h-31.4V109h27.1c6.2,0,10.9-1,14.1-3.2c3.4-2.2,4.9-5.4,4.9-9.8
			c0-4.2-1.7-7.6-4.9-9.6c-3.4-2.2-8.1-3.2-14.1-3.2H581V154.7z"/>
		<path class="st3" d="M674.2,173.9V57.5h24.5v116.4H674.2z"/>
		<path class="st3" d="M761.5,175.1c-8.9,0-17-1.8-23.9-5.7c-6.9-3.7-12.4-8.9-16.5-15.5c-4-6.6-6.1-14-6.1-22.4s2-16,6.1-22.5
			s9.6-11.6,16.5-15.3s15-5.5,23.9-5.5s16.8,1.8,23.9,5.5c7.1,3.7,12.4,8.7,16.5,15.3c4,6.6,5.9,14,5.9,22.5c0,8.4-2,15.8-5.9,22.4
			c-4,6.6-9.4,11.6-16.5,15.5C778.3,173.2,770.4,175.1,761.5,175.1z M761.5,155.1c4,0,7.7-1,10.9-2.9c3.2-1.8,5.9-4.5,7.7-8.1
			c1.8-3.5,2.9-7.7,2.9-12.4c0-4.9-1-9.1-2.9-12.6s-4.4-6.1-7.7-8.1c-3.2-1.8-6.9-2.9-10.9-2.9s-7.7,1-10.9,2.9
			c-3.2,1.8-5.9,4.5-7.7,8.1c-2,3.5-2.9,7.6-2.9,12.6c0,4.9,1,8.9,2.9,12.4s4.5,6.2,7.7,8.1C753.7,154.1,757.4,155.1,761.5,155.1z"
			/>
		<path class="st3" d="M864.2,175.1c-8.9,0-17-1.8-23.9-5.7c-6.9-3.7-12.4-8.9-16.5-15.5c-4-6.6-6.1-14-6.1-22.4s2-16,6.1-22.5
			c4-6.6,9.6-11.6,16.5-15.3s15-5.5,23.9-5.5s16.8,1.8,23.9,5.5c7.1,3.7,12.4,8.7,16.5,15.3c4,6.6,5.9,14,5.9,22.5
			c0,8.4-2,15.8-5.9,22.4c-4,6.6-9.4,11.6-16.5,15.5C881,173.2,873.1,175.1,864.2,175.1z M864.2,155.1c4,0,7.7-1,10.9-2.9
			c3.2-1.8,5.9-4.5,7.7-8.1c1.8-3.5,2.9-7.7,2.9-12.4c0-4.9-1-9.1-2.9-12.6s-4.4-6.1-7.7-8.1c-3.2-1.8-6.9-2.9-10.9-2.9
			s-7.7,1-10.9,2.9s-5.9,4.5-7.7,8.1c-2,3.5-2.9,7.6-2.9,12.6c0,4.9,1,8.9,2.9,12.4s4.5,6.2,7.7,8.1
			C856.5,154.1,860.2,155.1,864.2,155.1z"/>
		<path class="st3" d="M963.1,175.1c-7.9,0-15.1-1.8-21.5-5.4s-11.4-8.6-15.1-15.1c-3.7-6.6-5.5-14.1-5.5-22.9
			c0-8.9,1.8-16.6,5.5-23c3.7-6.6,8.7-11.4,15.1-15.1c6.4-3.5,13.5-5.4,21.5-5.4c7.1,0,13.3,1.5,18.7,4.7s9.4,7.9,12.4,14.3
			c2.9,6.4,4.2,14.6,4.2,24.5c0,9.8-1.3,18-4.2,24.4s-6.9,11.3-12.1,14.3C976.9,173.6,970.5,175.1,963.1,175.1z M967.3,155.1
			c4,0,7.6-1,10.8-2.9c3.2-1.8,5.9-4.5,7.7-8.1c1.8-3.5,2.9-7.7,2.9-12.4c0-4.9-1-9.1-2.9-12.6c-2-3.5-4.5-6.1-7.7-8.1
			c-3.2-1.8-6.9-2.9-10.8-2.9c-4,0-7.7,1-10.9,2.9c-3.2,1.8-5.9,4.5-7.7,8.1c-2,3.5-2.9,7.6-2.9,12.6c0,4.9,1,8.9,2.9,12.4
			c1.8,3.5,4.5,6.2,7.7,8.1C959.5,154.1,963.2,155.1,967.3,155.1z M989.3,173.9v-17.3l0.5-25.1l-1.5-24.9V57.5h24.5v116.4H989.3z"/>
		<path class="st3" d="M555.8,362V252.2h49.9c11.9,0,22.4,2.4,31.4,6.9c9.1,4.5,16.1,10.9,21.4,19c5,8.2,7.7,17.8,7.7,29.1
			c0,11.1-2.5,20.7-7.7,28.9c-5,8.2-12.3,14.6-21.4,19.2c-9.1,4.5-19.7,6.9-31.4,6.9h-49.9V362z M581.2,341.2h23.2
			c7.4,0,13.6-1.3,19-4.2c5.4-2.7,9.6-6.7,12.6-11.8s4.5-11.1,4.5-18c0-7.1-1.5-13.1-4.5-18.2c-3-5-7.2-8.9-12.6-11.8
			c-5.4-2.7-11.8-4.2-19-4.2h-23.2V341.2z"/>
		<path class="st3" d="M723.8,363.2c-8.9,0-17-1.8-23.9-5.7c-6.9-3.7-12.4-8.9-16.5-15.5c-4-6.6-6.1-14-6.1-22.4s2-16,6.1-22.5
			c4-6.6,9.6-11.6,16.5-15.3c6.9-3.7,15-5.5,23.9-5.5s16.8,1.8,23.9,5.5c7.1,3.7,12.4,8.7,16.5,15.3c4,6.6,5.9,14,5.9,22.5
			c0,8.4-2,15.8-5.9,22.4c-4,6.6-9.4,11.6-16.5,15.5C740.6,361.4,732.7,363.2,723.8,363.2z M723.8,343.2c4,0,7.7-1,10.9-2.9
			c3.2-1.8,5.9-4.5,7.7-8.1c1.8-3.5,2.9-7.7,2.9-12.4c0-4.9-1-9.1-2.9-12.6c-1.8-3.5-4.4-6.1-7.7-8.1c-3.2-1.8-6.9-2.9-10.9-2.9
			s-7.7,1-10.9,2.9c-3.2,1.8-5.9,4.5-7.7,8.1c-2,3.5-2.9,7.6-2.9,12.6c0,4.9,1,8.9,2.9,12.4c1.8,3.5,4.5,6.2,7.7,8.1
			S719.8,343.2,723.8,343.2z"/>
		<path class="st3" d="M837.6,276.5c6.7,0,12.6,1.3,18,4c5.2,2.7,9.4,6.7,12.4,12.3s4.5,12.4,4.5,21V362H848v-44.6
			c0-6.7-1.5-11.8-4.5-15.1c-3-3.2-7.2-4.9-12.6-4.9c-3.9,0-7.4,0.8-10.4,2.4c-3,1.7-5.5,4-7.2,7.4s-2.5,7.6-2.5,12.8v41.7h-24.5
			v-84.1h23.4V301l-4.4-7.1c3-5.7,7.4-9.9,12.9-12.9C824,278,830.4,276.5,837.6,276.5z"/>
		<path class="st3" d="M920.9,363.2c-6.6,0-12.3-1.2-17-3.4s-8.2-5.4-10.8-9.2c-2.5-3.9-3.7-8.2-3.7-12.9c0-5,1.2-9.4,3.7-13.1
			s6.4-6.7,11.6-8.9c5.4-2.2,12.3-3.2,20.8-3.2h22.4v14.3h-19.8c-5.7,0-9.8,1-11.8,2.9c-2.2,1.8-3.2,4.2-3.2,7.1
			c0,3.2,1.2,5.5,3.7,7.4c2.5,1.8,5.9,2.7,10.1,2.7c4,0,7.7-1,10.9-2.9c3.2-1.8,5.5-4.7,7.1-8.6l3.7,11.3c-1.8,5.4-5,9.6-9.8,12.4
			C934.3,361.9,928.3,363.2,920.9,363.2z M946.6,362v-16.5l-1.5-3.5v-29.4c0-5.2-1.5-9.2-4.7-12.3c-3.2-2.9-8.1-4.4-14.6-4.4
			c-4.5,0-8.9,0.7-13.3,2.2c-4.4,1.3-8.1,3.4-11.1,5.7l-8.7-17.2c4.5-3.2,10.1-5.7,16.6-7.6c6.6-1.8,13.1-2.7,19.8-2.7
			c12.8,0,22.9,3,29.9,9.1c7.1,6.1,10.6,15.5,10.6,28.4V362H946.6z"/>
		<path class="st3" d="M981.6,298.3v-18.8h58.5v18.8H981.6z M1026.1,363.2c-9.9,0-17.7-2.5-23.2-7.6c-5.5-5-8.2-12.6-8.2-22.7v-74
			h24.5v73.6c0,3.5,1,6.2,2.9,8.2c1.8,2,4.4,2.9,7.7,2.9c3.9,0,7.2-1,9.9-3.2l6.6,17.3c-2.5,1.8-5.5,3.2-9.1,4
			C1033.5,362.9,1029.8,363.2,1026.1,363.2z"/>
		<path class="st3" d="M1072,265.9c-4.5,0-8.2-1.3-10.9-3.9c-2.9-2.7-4.2-5.9-4.2-9.8s1.3-7.1,4.2-9.8s6.6-3.9,10.9-3.9
			c4.5,0,8.2,1.2,10.9,3.7c2.9,2.5,4.2,5.5,4.2,9.4c0,4-1.3,7.4-4.2,10.1C1080.3,264.5,1076.6,265.9,1072,265.9z M1059.8,362v-84.4
			h24.5V362H1059.8z"/>
		<path class="st3" d="M1147.2,363.2c-8.9,0-17-1.8-23.9-5.7c-6.9-3.7-12.4-8.9-16.5-15.5c-4-6.6-6.1-14-6.1-22.4s2-16,6.1-22.5
			c4-6.6,9.6-11.6,16.5-15.3c6.9-3.7,15-5.5,23.9-5.5s16.8,1.8,23.9,5.5s12.4,8.7,16.5,15.3c4,6.6,5.9,14,5.9,22.5
			c0,8.4-2,15.8-5.9,22.4c-4,6.6-9.4,11.6-16.5,15.5S1156.1,363.2,1147.2,363.2z M1147.2,343.2c4,0,7.7-1,10.9-2.9s5.9-4.5,7.7-8.1
			c1.8-3.5,2.9-7.7,2.9-12.4c0-4.9-1-9.1-2.9-12.6c-1.8-3.5-4.4-6.1-7.7-8.1c-3.2-1.8-6.9-2.9-10.9-2.9s-7.7,1-10.9,2.9
			s-5.9,4.5-7.7,8.1c-2,3.5-2.9,7.6-2.9,12.6c0,4.9,1,8.9,2.9,12.4c1.8,3.5,4.5,6.2,7.7,8.1C1139.5,342.2,1143,343.2,1147.2,343.2z"
			/>
		<path class="st3" d="M1261,276.5c6.7,0,12.6,1.3,18,4c5.2,2.7,9.4,6.7,12.4,12.3s4.5,12.4,4.5,21V362h-24.5v-44.6
			c0-6.7-1.5-11.8-4.5-15.1c-3-3.2-7.2-4.9-12.6-4.9c-3.9,0-7.4,0.8-10.4,2.4c-3,1.7-5.5,4-7.2,7.4s-2.5,7.6-2.5,12.8v41.7h-24.5
			v-84.1h23.4V301l-4.4-7.1c3-5.7,7.4-9.9,12.9-12.9C1247.4,278,1253.8,276.5,1261,276.5z"/>
	</g>
</g>
</svg>
