<?xml version="1.0" encoding="utf-8"?>
<!-- Generator: Adobe Illustrator 25.2.1, SVG Export Plug-In . SVG Version: 6.00 Build 0)  -->
<svg version="1.1" id="Calque_1" xmlns="http://www.w3.org/2000/svg" xmlns:xlink="http://www.w3.org/1999/xlink" x="0px" y="0px"
	 viewBox="0 0 315.9 96.6" style="enable-background:new 0 0 315.9 96.6;" xml:space="preserve">
<style type="text/css">
	.st0{fill:#BB1A2C;}
	.st1{fill-rule:evenodd;clip-rule:evenodd;fill:#BB1A2C;}
</style>
<g>
	<g>
		<path class="st0" d="M40.2,11.2c-5,1.4-9.5,4.8-12.3,9.9c-2.6,4.6-3.7,10.6-2.6,17.7c0.5,3.6,1.8,7.4,3.5,11.2h-8.6
			c-1.3-3.5-2.2-6.8-2.8-10c-1.4-9,0.1-16.7,3.5-22.8c3.9-7,10.1-11.8,17.2-13.7c6.3-1.8,13.1-1.2,19.2,1.2
			c4.4,1.7,8.5,4.4,11.8,7.8c3.3-3.4,7.4-6.1,11.8-7.8c6.1-2.4,12.9-2.9,19.2-1.2c7,1.9,13.3,6.7,17.2,13.7
			c3.4,6.1,4.9,13.8,3.5,22.8c-0.5,3.3-1.4,6.6-2.8,10h-8.6c1.7-3.9,2.9-7.7,3.4-11.2c1.1-7.1-0.1-13.1-2.6-17.7
			c-2.8-5.1-7.3-8.5-12.3-9.9C84.1,7.3,77.4,16.2,69,24.4C60.8,16.2,54,7.4,40.2,11.2L40.2,11.2z"/>
		<path class="st1" d="M23.3,15.1c0.7,36.1,14.1,24.1,19.9,40.6c0.8,2.1,0.3,4.2,1.2,6c2.4,4.8,8.7,11.9,9.2,15.4
			c0.7,5.1-3.2,2.8-3.2,2.8s-8.2-7.6-9.1-8.6c-0.8-1-3.3-5.2-3.5-6.4c-0.3,1.1,1.2,4.2,2.9,7.1c0.5,0.8,1.5,1.6,2.5,2.5
			c4,3.7,6,6.7,8.3,7.3c2.3,0.7,2.8-1.7,2.8-1.7s5,6,9.2,7.7c4.5,1.8,5.1,5.1,4.1,6.3c-0.5,0.6-3.9-1.3-5.1-1.5
			c-5.3-0.8-11.3-5.3-14.7-7.3c-4.2-2.5-14.5-8-18.2-14.7C19.3,52.3,9.9,33.8,23.3,15.1L23.3,15.1z"/>
		<path class="st1" d="M114.9,15.1c3.6,40.7-19,25.8-19.9,40.6c-0.2,2.3-0.3,4.2-1.2,6c-2.4,4.8-8.7,11.9-9.2,15.4
			c-0.7,5.1,3.2,2.8,3.2,2.8s8.2-7.6,9.1-8.6c0.8-1,3.4-5.2,3.5-6.4c0.3,1.1-1.2,4.2-2.9,7.1C97,72.8,96,73.6,95,74.4
			c-4,3.7-6.1,6.7-8.4,7.3S83.9,80,83.9,80s-4.9,6-9.2,7.7c-4.5,1.8-5.1,5.1-4.1,6.3c0.5,0.6,3.9-1.3,5.1-1.5
			c5.3-0.8,11.3-5.3,14.7-7.3c4.2-2.5,14.5-8,18.2-14.7C118.9,52.3,128.3,33.8,114.9,15.1L114.9,15.1z"/>
		<g>
			<g>
				<g>
					<g>
						<path class="st0" d="M69.7,28.1c-0.2-0.5-0.9-0.5-1.1,0c-7,18.5-16.3,20.8-16.3,32.4c0,9.5,7.1,17.2,16.7,17.3h0.3
							c9.6-0.1,16.7-7.7,16.7-17.3C85.9,48.9,76.7,46.6,69.7,28.1z M55,59.8c0-0.7,0.1-1.4,0.2-2c0.2-0.8,0.9-1.3,1.7-1.2
							s1.3,0.9,1.2,1.7c-0.1,0.5-0.2,1.1-0.2,1.7c0,0.8-0.7,1.4-1.4,1.4h-0.1C55.6,61.2,55,60.6,55,59.8z M69.1,75.1L69.1,75.1
							C69.1,75.1,69.1,75.1,69.1,75.1c-0.1,0-0.1,0-0.1,0l0,0c-3.8,0-7.4-1.5-10-4.2c-1.7-1.8-2.9-4-3.5-6.5
							c-0.2-0.8,0.3-1.5,1.1-1.8c0.8-0.2,1.5,0.3,1.8,1.1c0.5,2,1.5,3.8,2.8,5.2c2,2.1,4.8,3.3,7.9,3.3h0c0,0,0,0,0.1,0
							c0.8,0,1.5,0.7,1.5,1.4C70.5,74.4,69.9,75.1,69.1,75.1z"/>
					</g>
				</g>
			</g>
		</g>
	</g>
	<g>
		<path class="st0" d="M137.8,40.4V16.5h11.7c3,0,5.3,0.6,6.8,1.7c1.5,1.1,2.3,2.6,2.3,4.5c0,1.2-0.3,2.4-0.9,3.3
			c-0.6,0.9-1.5,1.6-2.5,2.1c-1.1,0.5-2.3,0.8-3.7,0.8l0.7-1.4c1.5,0,2.8,0.3,4,0.7c1.2,0.5,2.1,1.2,2.7,2.2s1,2.1,1,3.5
			c0,2-0.8,3.7-2.4,4.8c-1.6,1.1-4,1.7-7.1,1.7C150.2,40.4,137.8,40.4,137.8,40.4z M143.3,36.2h6.4c1.4,0,2.5-0.2,3.3-0.7
			s1.1-1.2,1.1-2.2c0-1-0.4-1.8-1.1-2.2c-0.7-0.5-1.8-0.7-3.3-0.7h-6.9v-4h5.9c1.4,0,2.4-0.2,3.1-0.7c0.7-0.5,1.1-1.2,1.1-2.1
			c0-0.9-0.4-1.6-1.1-2.1c-0.7-0.5-1.8-0.7-3.1-0.7h-5.5L143.3,36.2L143.3,36.2z"/>
		<path class="st0" d="M163.6,40.4V15h5.4v25.4H163.6z"/>
		<path class="st0" d="M182.7,40.7c-1.9,0-3.7-0.4-5.2-1.2c-1.5-0.8-2.7-1.9-3.6-3.4c-0.9-1.4-1.3-3-1.3-4.9s0.4-3.5,1.3-4.9
			s2.1-2.5,3.6-3.3s3.3-1.2,5.2-1.2s3.7,0.4,5.2,1.2c1.5,0.8,2.7,1.9,3.6,3.3c0.9,1.4,1.3,3,1.3,4.9c0,1.8-0.4,3.5-1.3,4.9
			c-0.9,1.4-2.1,2.5-3.6,3.4C186.3,40.2,184.6,40.7,182.7,40.7z M182.7,36.3c0.9,0,1.7-0.2,2.4-0.6c0.7-0.4,1.3-1,1.7-1.8
			c0.4-0.8,0.6-1.7,0.6-2.7c0-1.1-0.2-2-0.6-2.8s-0.9-1.3-1.7-1.8c-0.7-0.4-1.5-0.6-2.4-0.6s-1.7,0.2-2.4,0.6
			c-0.7,0.4-1.3,1-1.7,1.8c-0.4,0.8-0.6,1.6-0.6,2.8c0,1.1,0.2,1.9,0.6,2.7s1,1.4,1.7,1.8C181,36.1,181.8,36.3,182.7,36.3z"/>
		<path class="st0" d="M205.1,40.7c-1.9,0-3.7-0.4-5.2-1.2c-1.5-0.8-2.7-1.9-3.6-3.4c-0.9-1.4-1.3-3-1.3-4.9s0.4-3.5,1.3-4.9
			s2.1-2.5,3.6-3.3s3.3-1.2,5.2-1.2s3.7,0.4,5.2,1.2c1.5,0.8,2.7,1.9,3.6,3.3c0.9,1.4,1.3,3,1.3,4.9c0,1.8-0.4,3.5-1.3,4.9
			c-0.9,1.4-2.1,2.5-3.6,3.4C208.7,40.2,207,40.7,205.1,40.7z M205.1,36.3c0.9,0,1.7-0.2,2.4-0.6c0.7-0.4,1.3-1,1.7-1.8
			c0.4-0.8,0.6-1.7,0.6-2.7c0-1.1-0.2-2-0.6-2.8s-0.9-1.3-1.7-1.8c-0.7-0.4-1.5-0.6-2.4-0.6s-1.7,0.2-2.4,0.6
			c-0.7,0.4-1.3,1-1.7,1.8c-0.4,0.8-0.6,1.6-0.6,2.8c0,1.1,0.2,1.9,0.6,2.7s1,1.4,1.7,1.8C203.4,36.1,204.2,36.3,205.1,36.3z"/>
		<path class="st0" d="M226.6,40.7c-1.7,0-3.3-0.4-4.7-1.2c-1.4-0.8-2.5-1.9-3.3-3.3s-1.2-3.1-1.2-5c0-1.9,0.4-3.6,1.2-5
			c0.8-1.4,1.9-2.5,3.3-3.3c1.4-0.8,2.9-1.2,4.7-1.2c1.5,0,2.9,0.3,4.1,1s2.1,1.7,2.7,3.1c0.6,1.4,0.9,3.2,0.9,5.4
			c0,2.1-0.3,3.9-0.9,5.3c-0.6,1.4-1.5,2.5-2.6,3.1C229.6,40.3,228.2,40.7,226.6,40.7z M227.5,36.3c0.9,0,1.6-0.2,2.4-0.6
			c0.7-0.4,1.3-1,1.7-1.8c0.4-0.8,0.6-1.7,0.6-2.7c0-1.1-0.2-2-0.6-2.8c-0.4-0.8-1-1.3-1.7-1.8c-0.7-0.4-1.5-0.6-2.4-0.6
			c-0.9,0-1.7,0.2-2.4,0.6c-0.7,0.4-1.3,1-1.7,1.8c-0.4,0.8-0.6,1.6-0.6,2.8c0,1.1,0.2,1.9,0.6,2.7s1,1.4,1.7,1.8
			C225.9,36.1,226.6,36.3,227.5,36.3z M232.3,40.4v-3.8l0.1-5.5l-0.3-5.4V15h5.4v25.4C237.5,40.4,232.3,40.4,232.3,40.4z"/>
		<path class="st0" d="M137.8,81.4V57.5h10.9c2.6,0,4.9,0.5,6.9,1.5c2,1,3.5,2.4,4.7,4.1c1.1,1.8,1.7,3.9,1.7,6.3
			c0,2.4-0.6,4.5-1.7,6.3c-1.1,1.8-2.7,3.2-4.7,4.2c-2,1-4.3,1.5-6.9,1.5L137.8,81.4L137.8,81.4z M143.4,76.9h5.1
			c1.6,0,3-0.3,4.1-0.9c1.2-0.6,2.1-1.5,2.8-2.6s1-2.4,1-3.9c0-1.5-0.3-2.9-1-4s-1.6-1.9-2.8-2.6c-1.2-0.6-2.6-0.9-4.1-0.9h-5.1
			V76.9z"/>
		<path class="st0" d="M174.4,81.7c-1.9,0-3.7-0.4-5.2-1.2c-1.5-0.8-2.7-1.9-3.6-3.4c-0.9-1.4-1.3-3-1.3-4.9s0.4-3.5,1.3-4.9
			s2.1-2.5,3.6-3.3s3.3-1.2,5.2-1.2s3.7,0.4,5.2,1.2c1.5,0.8,2.7,1.9,3.6,3.3c0.9,1.4,1.3,3,1.3,4.9c0,1.8-0.4,3.4-1.3,4.9
			c-0.9,1.4-2.1,2.5-3.6,3.4C178.1,81.3,176.4,81.7,174.4,81.7z M174.4,77.3c0.9,0,1.7-0.2,2.4-0.6c0.7-0.4,1.3-1,1.7-1.8
			c0.4-0.8,0.6-1.7,0.6-2.7c0-1.1-0.2-2-0.6-2.8s-0.9-1.3-1.7-1.8c-0.7-0.4-1.5-0.6-2.4-0.6s-1.7,0.2-2.4,0.6
			c-0.7,0.4-1.3,1-1.7,1.8c-0.4,0.8-0.6,1.7-0.6,2.8c0,1.1,0.2,1.9,0.6,2.7s1,1.4,1.7,1.8S173.6,77.3,174.4,77.3z"/>
		<path class="st0" d="M199.3,62.8c1.5,0,2.8,0.3,3.9,0.9c1.1,0.6,2.1,1.5,2.7,2.7s1,2.7,1,4.6v10.5h-5.4v-9.7c0-1.5-0.3-2.6-1-3.3
			c-0.7-0.7-1.6-1.1-2.8-1.1c-0.8,0-1.6,0.2-2.3,0.5c-0.7,0.4-1.2,0.9-1.6,1.6s-0.6,1.7-0.6,2.8v9.1H188V63h5.1v5.1l-0.9-1.5
			c0.7-1.2,1.6-2.2,2.8-2.8C196.3,63.1,197.7,62.8,199.3,62.8z"/>
		<path class="st0" d="M217.4,81.7c-1.4,0-2.7-0.3-3.7-0.7c-1-0.5-1.8-1.2-2.4-2c-0.6-0.8-0.8-1.8-0.8-2.8c0-1.1,0.3-2.1,0.8-2.9
			s1.4-1.5,2.5-1.9c1.2-0.5,2.7-0.7,4.6-0.7h4.9v3.1H219c-1.2,0-2.1,0.2-2.6,0.6c-0.5,0.4-0.7,0.9-0.7,1.5c0,0.7,0.3,1.2,0.8,1.6
			s1.3,0.6,2.2,0.6c0.9,0,1.7-0.2,2.4-0.6c0.7-0.4,1.2-1,1.5-1.9l0.8,2.5c-0.4,1.2-1.1,2.1-2.1,2.7C220.4,81.4,219,81.7,217.4,81.7z
			 M223,81.4v-3.6l-0.3-0.8v-6.4c0-1.1-0.3-2-1-2.7c-0.7-0.6-1.8-0.9-3.2-0.9c-1,0-1.9,0.2-2.9,0.5c-0.9,0.3-1.8,0.7-2.4,1.2
			l-1.9-3.7c1-0.7,2.2-1.2,3.6-1.7c1.4-0.4,2.9-0.6,4.3-0.6c2.8,0,5,0.7,6.5,2c1.5,1.3,2.3,3.4,2.3,6.2v10.5
			C228,81.4,223,81.4,223,81.4z"/>
		<path class="st0" d="M230.6,67.5v-4.1h12.8v4.1H230.6z M240.4,81.7c-2.2,0-3.9-0.6-5.1-1.7c-1.2-1.1-1.8-2.8-1.8-4.9V58.9h5.4V75
			c0,0.8,0.2,1.4,0.6,1.8s0.9,0.6,1.7,0.6c0.8,0,1.6-0.2,2.2-0.7l1.4,3.8c-0.6,0.4-1.2,0.7-2,0.9C242,81.6,241.2,81.7,240.4,81.7z"
			/>
		<path class="st0" d="M250.4,60.4c-1,0-1.8-0.3-2.4-0.8c-0.6-0.6-0.9-1.3-0.9-2.1s0.3-1.5,0.9-2.1c0.6-0.6,1.4-0.8,2.4-0.8
			c1,0,1.8,0.3,2.4,0.8c0.6,0.5,0.9,1.2,0.9,2c0,0.9-0.3,1.6-0.9,2.2C252.2,60.2,251.4,60.4,250.4,60.4z M247.7,81.4V63h5.4v18.4
			H247.7z"/>
		<path class="st0" d="M266.8,81.7c-1.9,0-3.7-0.4-5.2-1.2c-1.5-0.8-2.7-1.9-3.6-3.4s-1.3-3-1.3-4.9s0.4-3.5,1.3-4.9
			s2.1-2.5,3.6-3.3s3.3-1.2,5.2-1.2c1.9,0,3.7,0.4,5.2,1.2c1.5,0.8,2.7,1.9,3.6,3.3s1.3,3,1.3,4.9c0,1.8-0.4,3.4-1.3,4.9
			c-0.9,1.4-2,2.5-3.6,3.4C270.4,81.3,268.7,81.7,266.8,81.7z M266.8,77.3c0.9,0,1.7-0.2,2.4-0.6c0.7-0.4,1.3-1,1.7-1.8
			c0.4-0.8,0.6-1.7,0.6-2.7c0-1.1-0.2-2-0.6-2.8s-1-1.3-1.7-1.8c-0.7-0.4-1.5-0.6-2.4-0.6s-1.7,0.2-2.4,0.6c-0.7,0.4-1.3,1-1.7,1.8
			c-0.4,0.8-0.6,1.7-0.6,2.8c0,1.1,0.2,1.9,0.6,2.7s1,1.4,1.7,1.8S265.8,77.3,266.8,77.3z"/>
		<path class="st0" d="M291.6,62.8c1.5,0,2.8,0.3,3.9,0.9c1.1,0.6,2,1.5,2.7,2.7s1,2.7,1,4.6v10.5h-5.4v-9.7c0-1.5-0.3-2.6-1-3.3
			c-0.7-0.7-1.6-1.1-2.8-1.1c-0.8,0-1.6,0.2-2.3,0.5c-0.7,0.4-1.2,0.9-1.6,1.6s-0.5,1.7-0.5,2.8v9.1h-5.4V63h5.1v5.1l-1-1.5
			c0.7-1.2,1.6-2.2,2.8-2.8C288.6,63.1,290,62.8,291.6,62.8z"/>
	</g>
</g>
</svg>
